<svg width="16" height="14" viewBox="0 0 16 14" fill="none" xmlns="http://www.w3.org/2000/svg">
<path fill-rule="evenodd" clip-rule="evenodd" d="M1.32345 0C0.59854 0 0 0.598538 0 1.32345V12.6757C0 13.4007 0.59854 13.9992 1.32345 13.9992H14.6765C15.4015 13.9992 16 13.4007 16 12.6757V1.32345C16 0.598538 15.4015 0 14.6765 0H1.32345ZM1.32345 0.942042H14.6765C14.8964 0.942042 15.058 1.10365 15.058 1.32345V3.29301H0.941124V1.32345C0.941124 1.10364 1.10363 0.942042 1.32345 0.942042ZM2.22138 1.45396C1.86347 1.46303 1.57436 1.75749 1.57436 2.11752C1.57436 2.48328 1.87217 2.78201 2.23792 2.78201C2.60368 2.78201 2.90241 2.48328 2.90241 2.11752C2.90241 1.75177 2.60368 1.45396 2.23792 1.45396C2.23223 1.45396 2.22707 1.45382 2.22138 1.45396ZM4.11374 1.45396C3.75583 1.46303 3.46671 1.75749 3.46671 2.11752C3.46671 2.48328 3.76453 2.78201 4.13028 2.78201C4.49603 2.78201 4.79476 2.48328 4.79476 2.11752C4.79476 1.75177 4.49603 1.45396 4.13028 1.45396C4.12458 1.45396 4.11943 1.45382 4.11374 1.45396ZM6.00609 1.45396C5.64818 1.46303 5.35907 1.75749 5.35907 2.11752C5.35907 2.48328 5.65688 2.78201 6.02263 2.78201C6.38839 2.78201 6.68712 2.48328 6.68712 2.11752C6.68712 1.75177 6.38839 1.45396 6.02263 1.45396C6.01694 1.45396 6.01178 1.45382 6.00609 1.45396ZM0.941124 4.23505H15.058V12.6757C15.058 12.8956 14.8964 13.0581 14.6765 13.0581H1.32345C1.10365 13.0581 0.941124 12.8956 0.941124 12.6757V4.23505ZM8.79086 5.3609C8.6802 5.35232 8.57008 5.38312 8.47993 5.44787C8.38979 5.51262 8.32544 5.60714 8.29824 5.71475L6.78454 11.6234C6.76922 11.6833 6.76588 11.7457 6.77468 11.8069C6.78349 11.8681 6.80428 11.927 6.83586 11.9802C6.86745 12.0334 6.9092 12.0798 6.95875 12.1168C7.00829 12.1539 7.06465 12.1808 7.12459 12.196C7.24525 12.2273 7.3734 12.2095 7.48092 12.1464C7.58844 12.0834 7.66655 11.9802 7.69809 11.8596L9.21271 5.94727C9.22814 5.88722 9.23156 5.82471 9.22276 5.76334C9.21396 5.70197 9.19312 5.64294 9.16144 5.58964C9.12975 5.53635 9.08784 5.48984 9.03813 5.4528C8.98841 5.41575 8.93186 5.38889 8.87174 5.37377C8.8452 5.36716 8.81813 5.36282 8.79086 5.3609ZM5.81585 6.18806C5.71615 6.19383 5.62087 6.23117 5.5438 6.29467L3.11288 8.30191C3.05935 8.34606 3.01625 8.4015 2.98666 8.46427C2.95708 8.52703 2.94173 8.59555 2.94173 8.66494C2.94173 8.73433 2.95708 8.80285 2.98666 8.86561C3.01625 8.92838 3.05935 8.98382 3.11288 9.02797L5.5438 11.0361C5.59166 11.0755 5.64682 11.105 5.70612 11.123C5.76542 11.1409 5.82768 11.147 5.88933 11.1409C5.95098 11.1347 6.01082 11.1165 6.06539 11.0871C6.11997 11.0578 6.16822 11.018 6.20737 10.9699C6.28611 10.874 6.32373 10.7507 6.31202 10.6271C6.30031 10.5035 6.24023 10.3896 6.14487 10.3101L4.15509 8.66677L6.14487 7.02072C6.24023 6.94122 6.30031 6.82726 6.31202 6.70365C6.32373 6.58005 6.28611 6.45683 6.20737 6.36083C6.16041 6.30314 6.10044 6.25739 6.03239 6.22736C5.96433 6.19732 5.89012 6.18387 5.81585 6.18806ZM10.1805 6.18806C10.1062 6.18387 10.032 6.19734 9.96395 6.22737C9.89589 6.25741 9.83592 6.30315 9.78896 6.36085C9.71022 6.45684 9.6726 6.58007 9.68431 6.70367C9.69602 6.82727 9.7561 6.94124 9.85146 7.02074L11.8449 8.66679L9.85146 10.3101C9.7561 10.3896 9.69602 10.5035 9.68431 10.6271C9.6726 10.7508 9.71022 10.874 9.78896 10.97C9.82811 11.018 9.87636 11.0578 9.93094 11.0871C9.98551 11.1165 10.0453 11.1347 10.107 11.1409C10.1687 11.147 10.2309 11.141 10.2902 11.123C10.3495 11.105 10.4047 11.0755 10.4525 11.0361L12.8835 9.02799C12.937 8.98384 12.9801 8.9284 13.0097 8.86563C13.0393 8.80287 13.0546 8.73435 13.0546 8.66496C13.0546 8.59557 13.0393 8.52705 13.0097 8.46429C12.9801 8.40152 12.937 8.34608 12.8835 8.30193L10.4525 6.29468C10.3755 6.23117 10.2802 6.19383 10.1805 6.18806Z" fill="#777675"/>
</svg>
