<svg width="16" height="16" viewBox="0 0 16 16" fill="none" xmlns="http://www.w3.org/2000/svg">
<path d="M14.4362 0H1.56378C0.700134 0 0 0.700152 0 1.56378V14.4362C0 14.8504 0.164957 15.2485 0.45821 15.5418C0.751463 15.835 1.14956 16 1.56378 16H14.4362C14.8504 16 15.2485 15.835 15.5418 15.5418C15.835 15.2485 16 14.8504 16 14.4362V1.56378C16 1.14956 15.835 0.751465 15.5418 0.45821C15.2485 0.164955 14.8504 0 14.4362 0ZM15.2185 1.56378V2.96921L9.25879 2.96994C8.90249 2.96921 8.59163 2.728 8.5022 2.38343L8.07845 0.782265H14.4362C14.6437 0.782265 14.8424 0.864377 14.989 1.01101C15.1356 1.15765 15.2178 1.35631 15.2178 1.5638L15.2185 1.56378ZM14.4362 15.2177H1.56378C1.13196 15.2177 0.782245 14.868 0.782245 14.4362V1.56376C0.782245 1.13194 1.13196 0.782226 1.56378 0.782226H7.26897L7.74772 2.58648C7.92587 3.27564 8.54683 3.75804 9.25872 3.7595H15.2177V14.4362C15.2177 14.6437 15.1355 14.8424 14.9889 14.989C14.8423 15.1356 14.6437 15.2177 14.4362 15.2177ZM3.38637 2.28148C3.38637 2.53954 3.23095 2.77195 2.99267 2.87018C2.7544 2.96916 2.4802 2.91417 2.29839 2.73235C2.11584 2.5498 2.06159 2.27561 2.15983 2.03734C2.2588 1.79908 2.4912 1.64437 2.74853 1.64437C3.10044 1.64437 3.38637 1.92957 3.38637 2.28148ZM5.53666 2.28148C5.53666 2.53954 5.38123 2.77195 5.14295 2.87018C4.90469 2.96916 4.63122 2.91417 4.44868 2.73235C4.26612 2.5498 4.21188 2.27561 4.31084 2.03734C4.40909 1.79908 4.64149 1.64437 4.89955 1.64437C5.25146 1.64437 5.53666 1.92957 5.53666 2.28148ZM10.9523 6.73896V6.3086C10.9508 5.70009 10.4581 5.20742 9.84962 5.20596H9.65387C9.14507 5.20962 8.70445 5.56006 8.58642 6.05493C7.94638 6.44568 7.21105 6.65317 6.46109 6.65317H5.7067C4.86212 6.65097 4.118 7.20741 3.88191 8.01826C3.64511 8.82838 3.97355 9.69788 4.68617 10.1502V12.4185C4.71403 13.1744 5.33572 13.7733 6.09306 13.7733C6.84965 13.7733 7.47137 13.1744 7.49922 12.4185V10.5827C7.87239 10.6802 8.23016 10.8305 8.5608 11.0285C8.58939 11.615 9.07253 12.0769 9.65978 12.0783H9.85553C10.464 12.0769 10.9567 11.5842 10.9582 10.9757V10.5417C11.8621 10.3569 12.5117 9.5622 12.5117 8.63914C12.5117 7.71607 11.8621 6.9214 10.9582 6.73659L10.9523 6.73896ZM5.7067 7.4347H6.46329C7.18763 7.43543 7.90317 7.27414 8.55708 6.96183V10.1386C7.90312 9.82623 7.18758 9.66349 6.46329 9.66349H5.7067C5.0916 9.66349 4.59233 9.16497 4.59233 8.54912C4.59233 7.93403 5.0916 7.4347 5.7067 7.4347ZM6.71769 12.4186C6.69863 12.75 6.42444 13.0088 6.09306 13.0088C5.76096 13.0088 5.48675 12.75 5.46843 12.4186V10.4303C5.54761 10.4398 5.62679 10.4457 5.7067 10.4457H6.46329C6.5476 10.4457 6.63338 10.4457 6.71769 10.4552V12.4186ZM10.1701 10.9758C10.1701 11.1525 10.0264 11.2962 9.84975 11.2962H9.654C9.47731 11.2955 9.33435 11.1525 9.33362 10.9758V6.30869C9.33435 6.132 9.47731 5.98905 9.654 5.98832H9.84975C9.93479 5.98832 10.0162 6.02204 10.0763 6.08216C10.1364 6.14228 10.1701 6.22365 10.1701 6.30869V10.9758ZM10.9524 9.73241V7.55209C11.415 7.71485 11.7244 8.1518 11.7244 8.64227C11.7244 9.13274 11.415 9.56965 10.9524 9.73241Z" fill="#777675"/>
</svg>
