<svg width="16" height="16" viewBox="0 0 16 16" fill="none" xmlns="http://www.w3.org/2000/svg">
<path d="M2.19704 3.13647C2.716 3.13647 3.13821 2.71426 3.13821 2.19529C3.13821 1.67633 2.716 1.25411 2.19704 1.25411C1.67807 1.25411 1.25586 1.67633 1.25586 2.19529C1.25586 2.71426 1.67807 3.13647 2.19704 3.13647ZM2.19704 1.88157C2.37002 1.88157 2.51076 2.0223 2.51076 2.19529C2.51076 2.36828 2.37002 2.50902 2.19704 2.50902C2.02405 2.50902 1.88331 2.36828 1.88331 2.19529C1.88331 2.0223 2.02405 1.88157 2.19704 1.88157Z" fill="#777675"/>
<path d="M4.7068 3.13647C5.22577 3.13647 5.64798 2.71426 5.64798 2.19529C5.64798 1.67633 5.22577 1.25411 4.7068 1.25411C4.18784 1.25411 3.76562 1.67633 3.76562 2.19529C3.76562 2.71426 4.18784 3.13647 4.7068 3.13647ZM4.7068 1.88157C4.87979 1.88157 5.02053 2.0223 5.02053 2.19529C5.02053 2.36828 4.87979 2.50902 4.7068 2.50902C4.53381 2.50902 4.39308 2.36828 4.39308 2.19529C4.39308 2.0223 4.53381 1.88157 4.7068 1.88157Z" fill="#777675"/>
<path d="M7.21657 3.13647C7.73553 3.13647 8.15774 2.71426 8.15774 2.19529C8.15774 1.67633 7.73553 1.25411 7.21657 1.25411C6.6976 1.25411 6.27539 1.67633 6.27539 2.19529C6.27539 2.71426 6.6976 3.13647 7.21657 3.13647ZM7.21657 1.88157C7.38956 1.88157 7.53029 2.0223 7.53029 2.19529C7.53029 2.36828 7.38956 2.50902 7.21657 2.50902C7.04358 2.50902 6.90284 2.36828 6.90284 2.19529C6.90284 2.0223 7.04358 1.88157 7.21657 1.88157Z" fill="#777675"/>
<path d="M9.72583 2.50901H14.4317C14.605 2.50901 14.7454 2.36853 14.7454 2.19529C14.7454 2.02205 14.605 1.88156 14.4317 1.88156H9.72583C9.5526 1.88156 9.41211 2.02205 9.41211 2.19529C9.41211 2.36853 9.5526 2.50901 9.72583 2.50901Z" fill="#777675"/>
<path d="M11.9225 8.93534H10.7636C10.7241 8.81976 10.6773 8.70691 10.6235 8.5973L11.443 7.77782C11.5655 7.65531 11.5655 7.45666 11.443 7.33411L10.5484 6.43946C10.4258 6.31698 10.2272 6.31698 10.1047 6.43946L9.28519 7.25895C9.17557 7.20514 9.06269 7.15836 8.94715 7.1188V5.96C8.94715 5.78673 8.80666 5.64627 8.63342 5.64627H7.36842C7.19518 5.64627 7.05469 5.78673 7.05469 5.96V7.11884C6.93912 7.1584 6.82627 7.20517 6.71665 7.25898L5.89717 6.43949C5.77463 6.31702 5.57604 6.31702 5.45347 6.43949L4.55882 7.33411C4.43631 7.45662 4.43631 7.65527 4.55882 7.77782L5.3783 8.5973C5.3245 8.70691 5.27772 8.81979 5.23816 8.93534H4.07935C3.90608 8.93534 3.76562 9.07582 3.76562 9.24906V10.5141C3.76562 10.6873 3.90608 10.8278 4.07935 10.8278H5.23819C5.27775 10.9434 5.32453 11.0562 5.37833 11.1658L4.55885 11.9853C4.43634 12.1078 4.43634 12.3065 4.55885 12.429L5.4535 13.3237C5.57604 13.4461 5.77463 13.4461 5.8972 13.3237L6.71668 12.5042C6.8263 12.558 6.93918 12.6048 7.05472 12.6443V13.8031C7.05472 13.9764 7.19521 14.1169 7.36845 14.1169H8.63345C8.80669 14.1169 8.94718 13.9764 8.94718 13.8031V12.6443C9.06275 12.6047 9.1756 12.558 9.28522 12.5042L10.1047 13.3236C10.2272 13.4461 10.4258 13.4461 10.5484 13.3236L11.4431 12.429C11.5656 12.3065 11.5656 12.1078 11.4431 11.9853L10.6236 11.1658C10.6774 11.0562 10.7242 10.9433 10.7637 10.8278H11.9225C12.0957 10.8278 12.2362 10.6873 12.2362 10.514V9.24903C12.2362 9.07579 12.0957 8.93534 11.9225 8.93534ZM11.6088 10.2003H10.5295C10.3854 10.2003 10.2599 10.2984 10.225 10.4382C10.1704 10.6574 10.0836 10.8667 9.96716 11.0602C9.89287 11.1837 9.91223 11.3419 10.0141 11.4438L10.7775 12.2072L10.3265 12.6581L9.56318 11.8948C9.46122 11.7929 9.30301 11.7736 9.17955 11.8478C8.98602 11.9643 8.77676 12.0511 8.55756 12.1057C8.4178 12.1405 8.3197 12.266 8.3197 12.4101V13.4894H7.68214V12.4101C7.68214 12.266 7.58404 12.1405 7.44428 12.1057C7.22508 12.0511 7.01582 11.9643 6.82228 11.8478C6.6989 11.7735 6.54062 11.7929 6.43866 11.8948L5.6753 12.6581L5.22435 12.2072L5.98771 11.4438C6.08961 11.3419 6.10897 11.1837 6.03468 11.0602C5.91819 10.8667 5.83141 10.6574 5.77679 10.4382C5.74197 10.2984 5.61645 10.2003 5.47239 10.2003H4.39308V9.56279H5.47239C5.61645 9.56279 5.74197 9.46469 5.77679 9.32492C5.83141 9.10572 5.91819 8.89647 6.03468 8.70293C6.10897 8.57945 6.08961 8.42124 5.98771 8.31931L5.22435 7.55595L5.6753 7.105L6.43866 7.86836C6.54065 7.97026 6.6988 7.98955 6.82228 7.91532C7.01582 7.79884 7.22508 7.71206 7.44428 7.65744C7.58404 7.62262 7.68214 7.49709 7.68214 7.35303V6.27372H8.3197V7.35303C8.3197 7.49709 8.4178 7.62262 8.55756 7.65744C8.77676 7.71206 8.98602 7.79884 9.17955 7.91532C9.30304 7.98961 9.46125 7.97029 9.56318 7.86836L10.3265 7.105L10.7775 7.55595L10.0141 8.31931C9.91223 8.4212 9.89287 8.57945 9.96716 8.70293C10.0836 8.89647 10.1704 9.10572 10.225 9.32492C10.2599 9.46469 10.3854 9.56279 10.5295 9.56279H11.6088V10.2003Z" fill="#777675"/>
<path d="M7.99943 8.46807C7.22004 8.46807 6.58594 9.10217 6.58594 9.88156C6.58594 10.6609 7.22004 11.295 7.99943 11.295C8.77882 11.295 9.41292 10.6609 9.41292 9.88156C9.41292 9.10217 8.77882 8.46807 7.99943 8.46807ZM7.99943 10.6676C7.56602 10.6676 7.21339 10.315 7.21339 9.88156C7.21339 9.44811 7.56598 9.09552 7.99943 9.09552C8.43287 9.09552 8.78547 9.44811 8.78547 9.88156C8.78547 10.315 8.43284 10.6676 7.99943 10.6676Z" fill="#777675"/>
<path d="M14.7451 -0.000793457H1.2549C0.562949 -0.000793457 0 0.562156 0 1.25411V14.7443C0 15.4363 0.562949 15.9992 1.2549 15.9992H14.7451C15.4371 15.9992 16 15.4363 16 14.7443V1.25411C16 0.562156 15.4371 -0.000793457 14.7451 -0.000793457ZM1.2549 0.626658H14.7451C15.0911 0.626658 15.3725 0.908132 15.3725 1.25411V3.76391H0.627451V1.25411C0.627451 0.908132 0.908926 0.626658 1.2549 0.626658ZM14.7451 15.3718H1.2549C0.908926 15.3718 0.627451 15.0903 0.627451 14.7443V4.39136H15.3725V14.7443C15.3725 15.0903 15.0911 15.3718 14.7451 15.3718Z" fill="#777675"/>
</svg>
