<svg width="16" height="12" viewBox="0 0 16 12" fill="none" xmlns="http://www.w3.org/2000/svg">
<path d="M2 11.9992H14C15.1028 11.9992 16 11.1581 16 10.1242V3.37421C16 2.34033 15.1028 1.49921 14 1.49921H11.2V1.12421C11.2 0.503957 10.6616 -0.000793457 10 -0.000793457H6C5.3384 -0.000793457 4.8 0.503957 4.8 1.12421V1.49921H2C0.8972 1.49921 0 2.34033 0 3.37421V10.1242C0 11.1581 0.8972 11.9992 2 11.9992ZM14 11.2492H2C1.3384 11.2492 0.8 10.7445 0.8 10.1242V5.99921H6.4V7.12421C6.4 7.33121 6.5792 7.49921 6.8 7.49921H9.2C9.4208 7.49921 9.6 7.33121 9.6 7.12421V5.99921H15.2V10.1242C15.2 10.7445 14.6616 11.2492 14 11.2492ZM7.2 5.99921H8.8V6.74921H7.2V5.99921ZM5.6 1.12421C5.6 0.917582 5.7796 0.749207 6 0.749207H10C10.2204 0.749207 10.4 0.917582 10.4 1.12421V1.49921H5.6V1.12421ZM2 2.24921H14C14.6616 2.24921 15.2 2.75396 15.2 3.37421V5.24921H0.8V3.37421C0.8 2.75396 1.3384 2.24921 2 2.24921Z" fill="#777675"/>
</svg>
