<svg width="18" height="17" viewBox="0 0 18 17" fill="none" xmlns="http://www.w3.org/2000/svg">
<path d="M1.34191 15.9878H15.6432C15.8332 15.9878 15.9886 15.8324 15.9886 15.6425C15.9886 15.4525 15.8332 15.2971 15.6432 15.2971H1.68727V13.9536H3.17922C9.88955 13.9536 14.1444 11.1286 15.5535 5.77898L16.365 7.03955C16.4307 7.14315 16.5412 7.19841 16.6551 7.19841C16.7208 7.19841 16.7829 7.18114 16.8416 7.14315C17.0005 7.03955 17.0489 6.82542 16.9452 6.66656L15.6985 4.73254C15.6502 4.65656 15.5707 4.60131 15.4809 4.58058C15.4809 4.58058 15.4809 4.58058 15.4775 4.58058C15.4602 4.58058 15.4429 4.58058 15.4257 4.58058C15.398 4.58058 15.3704 4.57713 15.3428 4.58058C15.3013 4.58749 15.2633 4.60476 15.2288 4.62548C15.2288 4.62548 15.2254 4.62548 15.2219 4.62548C15.2219 4.62548 15.215 4.62894 15.2115 4.63239L13.2879 5.87223C13.129 5.97584 13.0807 6.18996 13.1843 6.34883C13.2879 6.50769 13.502 6.55604 13.6609 6.45243L14.8696 5.67537C13.5227 10.7073 9.59945 13.2629 3.18267 13.2629H1.69072V1.34457C1.69072 1.15462 1.53531 0.999207 1.34536 0.999207C1.15541 0.999207 1 1.15462 1 1.34457V15.6459C1 15.8359 1.15541 15.9913 1.34536 15.9913L1.34191 15.9878Z" fill="#777675" stroke="#777675" stroke-width="0.2"/>
<path d="M7.46925 8.83887H8.49151C9.0579 8.83887 9.51723 8.37954 9.51723 7.81315V6.45589H10.8745C11.4409 6.45589 11.9002 5.99656 11.9002 5.43017V4.40791C11.9002 3.84152 11.4409 3.38219 10.8745 3.38219H9.51723V2.02492C9.51723 1.45853 9.0579 0.999207 8.49151 0.999207H7.46925C6.90286 0.999207 6.44353 1.45853 6.44353 2.02492V3.38219H5.08626C4.51987 3.38219 4.06055 3.84152 4.06055 4.40791V5.43017C4.06055 5.99656 4.51987 6.45589 5.08626 6.45589H6.44353V7.81315C6.44353 8.37954 6.90286 8.83887 7.46925 8.83887ZM5.08626 5.76517C4.89977 5.76517 4.75127 5.61321 4.75127 5.43017V4.40791C4.75127 4.22141 4.90322 4.07291 5.08626 4.07291H6.78889C6.97883 4.07291 7.13425 3.91749 7.13425 3.72755V2.02492C7.13425 1.83843 7.2862 1.68993 7.46925 1.68993H8.49151C8.678 1.68993 8.82651 1.84188 8.82651 2.02492V3.72755C8.82651 3.91749 8.98192 4.07291 9.17187 4.07291H10.8745C11.061 4.07291 11.2095 4.22486 11.2095 4.40791V5.43017C11.2095 5.61666 11.0575 5.76517 10.8745 5.76517H9.17187C8.98192 5.76517 8.82651 5.92058 8.82651 6.11053V7.81315C8.82651 7.99964 8.67455 8.14815 8.49151 8.14815H7.46925C7.28275 8.14815 7.13425 7.99619 7.13425 7.81315V6.11053C7.13425 5.92058 6.97883 5.76517 6.78889 5.76517H5.08626Z" fill="#777675" stroke="#777675" stroke-width="0.2"/>
</svg>
