<svg width="18" height="13" viewBox="0 0 18 13" fill="none" xmlns="http://www.w3.org/2000/svg">
<path fill-rule="evenodd" clip-rule="evenodd" d="M5.64173 1.53735H5.09566C4.60419 1.53735 4.27654 1.9196 4.27654 2.35646V10.5476C4.27654 10.9844 4.60419 11.3667 5.09566 11.3667H5.64173C6.07859 11.3667 6.46084 10.9844 6.46084 10.5476V2.35646C6.46084 1.9196 6.07859 1.53735 5.64173 1.53735ZM5.09566 0.991272C4.33115 0.991272 3.73047 1.59195 3.73047 2.35646V10.5476C3.73047 11.3121 4.33115 11.9128 5.09566 11.9128H5.64173C6.40624 11.9128 7.00692 11.3121 7.00692 10.5476V2.35646C7.00692 1.59195 6.40624 0.991272 5.64173 0.991272H5.09566Z" fill="#777675" stroke="#777675" stroke-width="0.5"/>
<path fill-rule="evenodd" clip-rule="evenodd" d="M12.3046 11.3667H12.8507C13.2876 11.3667 13.6698 10.9844 13.6698 10.5476V2.35646C13.6698 1.9196 13.3422 1.53735 12.8507 1.53735H12.3046C11.8678 1.53735 11.4855 1.9196 11.4855 2.35646V10.5476C11.4855 10.9844 11.8678 11.3667 12.3046 11.3667ZM12.8507 11.9128C13.6152 11.9128 14.2159 11.3121 14.2159 10.5476V2.35646C14.2159 1.59195 13.6152 0.991272 12.8507 0.991272H12.3046C11.5401 0.991272 10.9395 1.59195 10.9395 2.35646V10.5476C10.9395 11.3121 11.5401 11.9128 12.3046 11.9128H12.8507Z" fill="#777675" stroke="#777675" stroke-width="0.5"/>
<path fill-rule="evenodd" clip-rule="evenodd" d="M2.91126 2.62949H2.36519C1.87372 2.62949 1.54608 3.01175 1.54608 3.44861V9.45543C1.54608 9.89229 1.87372 10.2745 2.36519 10.2745H2.91126C3.34812 10.2745 3.73038 9.89229 3.73038 9.45543V3.44861C3.73038 3.01175 3.34812 2.62949 2.91126 2.62949ZM2.36519 2.08342C1.60068 2.08342 1 2.6841 1 3.44861V9.45543C1 10.2199 1.60068 10.8206 2.36519 10.8206H2.91126C3.67577 10.8206 4.27645 10.2199 4.27645 9.45543V3.44861C4.27645 2.6841 3.62116 2.08342 2.91126 2.08342H2.36519Z" fill="#777675" stroke="#777675" stroke-width="0.5"/>
<path fill-rule="evenodd" clip-rule="evenodd" d="M15.0878 10.2745H15.6339C16.0708 10.2745 16.453 9.89229 16.453 9.45543V3.44861C16.453 3.01175 16.0708 2.62949 15.6339 2.62949H15.0878C14.651 2.62949 14.2687 3.01175 14.2687 3.44861V9.45543C14.2687 9.89229 14.5964 10.2745 15.0878 10.2745ZM15.6339 10.8206C16.3984 10.8206 16.9991 10.2199 16.9991 9.45543V3.44861C16.9991 2.6841 16.3984 2.08342 15.6339 2.08342H15.0878C14.3233 2.08342 13.7227 2.6841 13.7227 3.44861V9.45543C13.7227 10.2199 14.3233 10.8206 15.0878 10.8206H15.6339Z" fill="#777675" stroke="#777675" stroke-width="0.5"/>
<path fill-rule="evenodd" clip-rule="evenodd" d="M11.2124 6.45202H6.84375V5.90594H11.2124V6.45202Z" fill="#777675" stroke="#777675" stroke-width="0.5"/>
</svg>
