<svg width="20" height="15" viewBox="0 0 20 15" fill="none" xmlns="http://www.w3.org/2000/svg">
<path fill-rule="evenodd" clip-rule="evenodd" d="M15.1121 4.74037C14.2084 3.22952 13.913 1.44598 13.913 0H14.4893C14.4893 1.36652 14.7703 3.02048 15.5956 4.40025C16.4135 5.76773 17.7786 6.88878 20 7.18991L19.9643 7.5L20 7.81009C17.7786 8.11122 16.4135 9.23227 15.5956 10.5997C14.7703 11.9795 14.4893 13.6335 14.4893 15H13.913C13.913 13.554 14.2084 11.7705 15.1121 10.2596C15.6905 9.29259 16.5129 8.44666 17.6477 7.87498L0 7.87498V7.12498L17.6476 7.12498C16.5128 6.5533 15.6904 5.70738 15.1121 4.74037Z" fill="white"/>
</svg>
