<svg width="43" height="35" viewBox="0 0 43 35" fill="none" xmlns="http://www.w3.org/2000/svg">
<path fill-rule="evenodd" clip-rule="evenodd" d="M31.2875 0.754074C31.3923 0.791007 31.447 0.905728 31.4106 1.01071C30.4771 3.70272 30.0008 7.52724 31.301 10.6243C31.9525 12.1761 33.0544 13.5628 34.8195 14.5756C36.5656 15.5775 39.0316 16.2534 42.482 16.2786C42.5924 16.2794 42.6827 16.3689 42.6827 16.4793L42.6829 18.5206C42.6829 18.6311 42.5927 18.7206 42.4822 18.7214C39.0319 18.7466 36.5656 19.4225 34.8195 20.4244C33.0544 21.4372 31.9525 22.8239 31.301 24.3757C30.0008 27.4728 30.4771 31.2973 31.4106 33.9893C31.447 34.0943 31.3923 34.209 31.2875 34.2459L29.335 34.9341C29.2314 34.9706 29.118 34.9176 29.0818 34.814C28.0355 31.8148 27.391 27.3106 29.0154 23.4413C29.6996 21.8117 30.7828 20.3078 32.3785 19.1032C32.5365 18.984 32.4546 18.7207 32.2567 18.7207L0.2 18.7207C0.0895431 18.7207 0 18.6311 0 18.5207L0 16.4793C0 16.3689 0.0895449 16.2793 0.200002 16.2793L32.2567 16.2793C32.4546 16.2793 32.5365 16.016 32.3785 15.8968C30.7828 14.6922 29.6996 13.1883 29.0154 11.5587C27.391 7.68938 28.0355 3.18522 29.0818 0.186036C29.118 0.0823636 29.2314 0.0294253 29.335 0.0659226L31.2875 0.754074Z" fill="#0A2213"/>
</svg>
