<svg width="41" height="38" viewBox="0 0 41 38" fill="none" xmlns="http://www.w3.org/2000/svg">
<path d="M8.60448 4.22393C8.60369 5.94294 7.54098 7.48985 5.91747 8.1352C4.29395 8.78058 2.43383 8.39553 1.21423 7.16165C-0.00537786 5.92774 -0.340905 4.0914 0.365837 2.51853C1.0726 0.94566 2.6805 -0.0496595 4.43136 0.00191247C6.75684 0.0704147 8.60554 1.94075 8.60448 4.22393ZM8.73355 11.5702H0.129173V38H8.73355V11.5702ZM22.3285 11.5702H13.7671V38H22.2425V24.1307C22.2425 16.4044 32.5032 15.6866 32.5032 24.1307V38H41V21.2597C41 8.23484 25.8133 8.72038 22.2425 15.1167L22.3285 11.5702Z" fill="#555555"/>
</svg>
