<svg width="33" height="38" viewBox="0 0 33 38" fill="none" xmlns="http://www.w3.org/2000/svg">
<path d="M16.7522 0H16.7499C11.1641 0.0384305 6.84697 1.90735 3.94453 5.57176C1.36508 8.82845 0.0443675 13.3739 0 19.0119V19.0144C0.0443675 24.6527 1.36517 29.1717 3.94453 32.4283C6.8471 36.0926 11.1865 37.9616 16.7723 38H16.7744C21.739 37.9657 25.2597 36.6727 28.1602 33.7947C31.9627 30.0218 31.8496 25.2878 30.5938 22.3784C29.6376 20.1646 27.7491 18.3929 25.2185 17.2911C24.8916 11.9369 21.8577 8.81214 16.8716 8.78051C13.9261 8.76246 11.2685 10.0716 9.64069 12.5247L12.6314 14.5622C13.5941 13.1116 15.1181 12.4119 16.849 12.4278C19.3552 12.4436 21.0024 13.8169 21.4646 16.2261C20.0698 16.0094 18.5708 15.9464 16.9764 16.0372C12.2088 16.3099 9.08619 19.1091 9.2944 22.9906C9.51218 27.0486 13.4707 29.2597 17.2293 29.0558C21.7316 28.8108 24.4071 25.511 25.0417 21.3026C26.0842 21.9735 26.8534 22.8291 27.2891 23.8383C28.0833 25.6778 28.1337 28.7117 25.6349 31.1912C23.4368 33.3722 20.7944 34.3229 16.7623 34.3525C12.2916 34.3195 8.93639 32.8971 6.75878 30.1478C4.71417 27.5663 3.64599 23.8227 3.60596 19C3.64599 14.1772 4.71417 10.4335 6.75878 7.85219C8.93639 5.10284 12.2915 3.6805 16.7622 3.64726C21.2656 3.68075 24.6815 5.11009 26.9443 7.87487C28.1922 9.39983 28.974 11.2228 29.4959 13.1043L33 12.1758C32.3446 9.7763 31.3088 7.48794 29.7219 5.54908C26.7354 1.90003 22.3489 0.0385741 16.7522 0ZM17.1802 19.6782C18.7771 19.5867 20.2575 19.6876 21.573 19.9586C21.3189 22.7882 20.1401 25.2444 17.0351 25.4137C15.0265 25.526 12.994 24.6356 12.8952 22.7925C12.8217 21.4223 13.8421 19.8693 17.1802 19.6782Z" fill="#555555"/>
</svg>
