<svg width="38" height="38" viewBox="0 0 38 38" fill="none" xmlns="http://www.w3.org/2000/svg">
<path d="M19 13.3C15.851 13.3 13.3 15.8519 13.3 19C13.3 22.1489 15.8519 24.7 19 24.7C22.1489 24.7 24.7 22.1481 24.7 19C24.7 15.8511 22.1481 13.3 19 13.3ZM19 9.5C24.2448 9.5 28.5 13.7505 28.5 19C28.5 24.2449 24.2495 28.5 19 28.5C13.7551 28.5 9.49999 24.2495 9.49999 19C9.49999 13.7551 13.7505 9.5 19 9.5ZM31.35 9.02339C31.35 10.3346 30.2845 11.3984 28.975 11.3984C27.6638 11.3984 26.6 10.333 26.6 9.02339C26.6 7.71381 27.6653 6.65 28.975 6.65C30.2828 6.64835 31.35 7.71381 31.35 9.02339ZM19 3.8C14.2985 3.8 13.5322 3.81244 11.3454 3.90982C9.85561 3.97976 8.85694 4.18013 7.92903 4.54037C7.10444 4.86018 6.5096 5.24206 5.87582 5.87584C5.23961 6.51206 4.85841 7.1053 4.53989 7.93028C4.17882 8.86031 3.9785 9.85741 3.90982 11.3452C3.81149 13.4429 3.8 14.176 3.8 19C3.8 23.7015 3.81244 24.4678 3.9098 26.6543C3.97977 28.1436 4.18041 29.1437 4.53978 30.0694C4.86042 30.8951 5.24308 31.4914 5.87381 32.1222C6.51253 32.76 7.10753 33.1425 7.92468 33.4579C8.86389 33.8209 9.86194 34.0216 11.3452 34.0902C13.4429 34.1884 14.176 34.2 19 34.2C23.7016 34.2 24.4678 34.1875 26.6544 34.0902C28.1403 34.0205 29.1413 33.8192 30.0694 33.4601C30.8929 33.1404 31.491 32.7564 32.1222 32.1262C32.7609 31.4864 33.1427 30.8929 33.4584 30.0738C33.8206 29.138 34.0216 28.1386 34.0902 26.6549C34.1884 24.5571 34.2 23.8239 34.2 19C34.2 14.2985 34.1875 13.5322 34.0902 11.3456C34.0203 9.85921 33.8191 8.85683 33.4596 7.92904C33.1406 7.10672 32.7573 6.51006 32.1241 5.87584C31.4868 5.23858 30.8951 4.85817 30.0696 4.5399C29.1403 4.17913 28.1417 3.97852 26.6547 3.90984C24.5571 3.81149 23.8239 3.8 19 3.8ZM19 0C24.1616 0 24.806 0.0189999 26.8328 0.114C28.8545 0.207423 30.2338 0.52725 31.445 0.9975C32.6973 1.48042 33.755 2.13275 34.811 3.18883C35.8655 4.24492 36.518 5.30575 37.0025 6.555C37.471 7.76467 37.791 9.14533 37.886 11.1672C37.9762 13.1939 38 13.8383 38 19C38 24.1617 37.981 24.806 37.886 26.8328C37.7925 28.8547 37.471 30.2337 37.0025 31.445C36.5195 32.6975 35.8655 33.755 34.811 34.8112C33.755 35.8657 32.6925 36.518 31.445 37.0025C30.2338 37.4712 28.8545 37.791 26.8328 37.886C24.806 37.9763 24.1616 38 19 38C13.8383 38 13.1939 37.981 11.1672 37.886C9.14532 37.7925 7.76782 37.4712 6.55499 37.0025C5.30415 36.5195 4.2449 35.8657 3.18882 34.8112C2.13275 33.755 1.482 32.6927 0.997499 31.445C0.52725 30.2337 0.209 28.8547 0.114 26.8328C0.0237503 24.806 0 24.1617 0 19C0 13.8383 0.0190003 13.1939 0.114 11.1672C0.207404 9.14375 0.52725 7.76625 0.997499 6.555C1.4804 5.30417 2.13275 4.24492 3.18882 3.18883C4.2449 2.13275 5.30575 1.482 6.55499 0.9975C7.76624 0.52725 9.14374 0.209 11.1672 0.114C13.1939 0.0237499 13.8383 0 19 0Z" fill="#555555"/>
</svg>
