<svg width="118" height="46" viewBox="0 0 118 46" fill="none" xmlns="http://www.w3.org/2000/svg">
<path d="M111.696 19.6008C112.858 19.6008 113.917 19.8834 114.872 20.4485C115.827 21.0137 116.587 21.7739 117.152 22.7291C117.718 23.6763 118 24.727 118 25.8812C118 26.7489 117.837 27.5648 117.511 28.3289C117.184 29.0931 116.731 29.7657 116.149 30.3468C115.576 30.9199 114.908 31.3696 114.144 31.696C113.387 32.0224 112.571 32.1855 111.696 32.1855C110.948 32.1855 110.283 32.0184 109.702 31.6841C109.129 31.3418 108.647 30.9 108.257 30.3587V31.8751H105.344V13.9651H108.257V21.4276C108.647 20.8863 109.129 20.4485 109.702 20.1142C110.283 19.7719 110.948 19.6008 111.696 19.6008ZM111.66 29.3677C112.281 29.3677 112.842 29.2125 113.344 28.902C113.853 28.5836 114.259 28.1618 114.561 27.6364C114.864 27.111 115.015 26.526 115.015 25.8812C115.015 25.2444 114.864 24.6633 114.561 24.138C114.259 23.6047 113.853 23.1828 113.344 22.8723C112.834 22.5619 112.273 22.4067 111.66 22.4067C111.055 22.4067 110.514 22.5659 110.036 22.8843C109.559 23.1947 109.184 23.6166 108.914 24.1499C108.643 24.6753 108.508 25.2524 108.508 25.8812C108.508 26.526 108.643 27.115 108.914 27.6483C109.184 28.1737 109.559 28.5916 110.036 28.902C110.514 29.2125 111.055 29.3677 111.66 29.3677Z" fill="white"/>
<path d="M91.9453 27.4573V19.9351H94.8587V26.6931C94.8587 27.1627 94.9741 27.5926 95.2049 27.9826C95.4358 28.3647 95.7422 28.6712 96.1243 28.902C96.5144 29.1249 96.9402 29.2363 97.4019 29.2363C97.8795 29.2363 98.3093 29.1249 98.6914 28.902C99.0735 28.6712 99.38 28.3647 99.6108 27.9826C99.8416 27.5926 99.9571 27.1627 99.9571 26.6931V19.9351H102.87L102.882 31.8751H99.969L99.9571 30.7885C99.5431 31.2184 99.0536 31.5606 98.4884 31.8154C97.9233 32.0621 97.3183 32.1855 96.6736 32.1855C95.8059 32.1855 95.0139 31.9746 94.2975 31.5527C93.5811 31.1228 93.008 30.5537 92.5781 29.8453C92.1562 29.1289 91.9453 28.3329 91.9453 27.4573Z" fill="white"/>
<path d="M78 14.3027H81V22.3027H87V14.3027H90V32.3027H87V25.3027H81V32.3027H78V14.3027Z" fill="white"/>
<path d="M72.3281 31.8751V13.9651H75.2415V31.8751H72.3281Z" fill="white"/>
<path d="M66.5391 31.8751V13.9651H69.4524V31.8751H66.5391Z" fill="white"/>
<path d="M60.7118 19.9352H63.6252V31.8752H60.7118V19.9352ZM62.1924 18.3949C61.7625 18.3949 61.4004 18.2556 61.1058 17.977C60.8113 17.6905 60.6641 17.3323 60.6641 16.9024C60.6641 16.4805 60.8113 16.1263 61.1058 15.8398C61.4004 15.5532 61.7586 15.4099 62.1804 15.4099C62.6023 15.4099 62.9565 15.5532 63.2431 15.8398C63.5376 16.1263 63.6849 16.4805 63.6849 16.9024C63.6849 17.3323 63.5416 17.6905 63.255 17.977C62.9685 18.2556 62.6143 18.3949 62.1924 18.3949Z" fill="white"/>
<path d="M58.9671 31.8751H55.612L52.8897 27.1827L51.2181 29.1767V31.8751H48.3047V13.9651H51.2181V24.6514L55.1702 19.9351H58.9791L54.8836 24.8186L58.9671 31.8751Z" fill="white"/>
<path d="M39.3503 32.1856C38.427 32.1856 37.5394 32.0423 36.6877 31.7557C35.8439 31.4612 35.1037 31.0433 34.4669 30.502C33.8301 29.9528 33.3724 29.2961 33.0938 28.5319L35.828 27.529C35.9395 27.8474 36.1663 28.1379 36.5086 28.4006C36.8509 28.6633 37.2688 28.8742 37.7623 29.0334C38.2558 29.1926 38.7852 29.2722 39.3503 29.2722C39.9314 29.2722 40.4727 29.1847 40.9742 29.0095C41.4836 28.8265 41.8935 28.5757 42.204 28.2573C42.5144 27.931 42.6696 27.5529 42.6696 27.123C42.6696 26.6852 42.5065 26.327 42.1801 26.0484C41.8537 25.7618 41.4358 25.535 40.9264 25.3678C40.417 25.2007 39.8916 25.0733 39.3503 24.9857C38.1643 24.8027 37.1016 24.5201 36.1623 24.138C35.2231 23.7559 34.4788 23.2266 33.9296 22.55C33.3883 21.8734 33.1176 20.9978 33.1176 19.9232C33.1176 18.9123 33.4082 18.0287 33.9893 17.2725C34.5703 16.5163 35.3345 15.9273 36.2817 15.5054C37.229 15.0835 38.2518 14.8726 39.3503 14.8726C40.2657 14.8726 41.1493 15.0158 42.001 15.3024C42.8527 15.589 43.597 16.0069 44.2338 16.5561C44.8785 17.1053 45.3402 17.766 45.6188 18.5381L42.8726 19.5292C42.7612 19.2108 42.5343 18.9202 42.192 18.6575C41.8498 18.3949 41.4319 18.1879 40.9383 18.0367C40.4448 17.8775 39.9155 17.7979 39.3503 17.7979C38.7852 17.7899 38.2479 17.8814 37.7384 18.0725C37.2369 18.2556 36.827 18.5063 36.5086 18.8247C36.1902 19.1431 36.031 19.5093 36.031 19.9232C36.031 20.4565 36.1783 20.8585 36.4728 21.1291C36.7753 21.3998 37.1772 21.5988 37.6787 21.7261C38.1802 21.8455 38.7374 21.957 39.3503 22.0604C40.4647 22.2356 41.4955 22.5301 42.4428 22.944C43.39 23.3579 44.1502 23.9111 44.7233 24.6037C45.2964 25.2882 45.583 26.128 45.583 27.123C45.583 28.1339 45.2964 29.0215 44.7233 29.7856C44.1502 30.5418 43.39 31.1309 42.4428 31.5528C41.4955 31.9746 40.4647 32.1856 39.3503 32.1856Z" fill="white"/>
<path fill-rule="evenodd" clip-rule="evenodd" d="M16.0273 19.5499C17.9264 14.3216 19.6377 7.89441 17.9092 0C26.8857 13.6282 25.2358 29.2385 17.7826 45.9302C20.6019 35.9885 21.6245 23.8982 16.0278 19.5499" fill="#FEF582"/>
<mask id="mask0_2155_474" style="mask-type:luminance" maskUnits="userSpaceOnUse" x="16" y="0" width="9" height="46">
<path d="M16.0273 19.5499C17.9264 14.3216 19.6377 7.89441 17.9092 0C26.8857 13.6282 25.2358 29.2385 17.7826 45.9302C20.6019 35.9885 21.6245 23.8982 16.0278 19.5499" fill="white"/>
</mask>
<g mask="url(#mask0_2155_474)">
<path d="M26.8857 0H16.0273V45.9302H26.8857V0Z" fill="#FF6B2C"/>
</g>
<path fill-rule="evenodd" clip-rule="evenodd" d="M17.7824 45.9301C17.8376 30.4074 12.2663 21.6787 0 21.0356C22.2086 9.95257 22.1522 30.5237 17.7824 45.9301Z" fill="#01C159"/>
<mask id="mask1_2155_474" style="mask-type:luminance" maskUnits="userSpaceOnUse" x="0" y="17" width="21" height="29">
<path d="M17.7824 45.9301C17.8376 30.4074 12.2663 21.6787 0 21.0356C22.2086 9.95257 22.1522 30.5237 17.7824 45.9301Z" fill="white"/>
</mask>
<g mask="url(#mask1_2155_474)">
<path d="M22.2086 9.95264H0V45.9302H22.2086V9.95264Z" fill="#07B14B"/>
</g>
<path fill-rule="evenodd" clip-rule="evenodd" d="M12.4645 9.8042C13.9811 9.8042 15.2102 11.0489 15.2102 12.5837C15.2102 14.1186 13.9807 15.3633 12.4645 15.3633C10.9483 15.3633 9.71875 14.1186 9.71875 12.5837C9.71875 11.0489 10.9483 9.8042 12.4645 9.8042Z" fill="#FF6B2C"/>
<mask id="mask2_2155_474" style="mask-type:luminance" maskUnits="userSpaceOnUse" x="9" y="9" width="7" height="7">
<path d="M12.4645 9.8042C13.9811 9.8042 15.2102 11.0489 15.2102 12.5837C15.2102 14.1186 13.9807 15.3633 12.4645 15.3633C10.9483 15.3633 9.71875 14.1186 9.71875 12.5837C9.71875 11.0489 10.9483 9.8042 12.4645 9.8042Z" fill="white"/>
</mask>
<g mask="url(#mask2_2155_474)">
<path d="M15.2106 9.8042H9.71875V15.3637H15.2106V9.8042Z" fill="#FF6B2C"/>
</g>
</svg>
