<svg width="120" height="28" viewBox="0 0 120 28" fill="none" xmlns="http://www.w3.org/2000/svg">
<path d="M36.8762 23H33.7082V5.3H39.3962C40.7562 5.3 41.9042 5.56 42.8402 6.08C43.7842 6.592 44.5002 7.292 44.9882 8.18C45.4842 9.06 45.7322 10.044 45.7322 11.132C45.7322 12.228 45.4842 13.232 44.9882 14.144C44.4922 15.056 43.7682 15.788 42.8162 16.34C41.8722 16.884 40.7322 17.156 39.3962 17.156H36.8762V23ZM36.8762 16.148L35.4482 14.648H39.0482C39.7842 14.648 40.4122 14.508 40.9322 14.228C41.4522 13.94 41.8482 13.536 42.1202 13.016C42.4002 12.488 42.5402 11.86 42.5402 11.132C42.5402 10.404 42.4042 9.796 42.1322 9.308C41.8682 8.812 41.4762 8.44 40.9562 8.192C40.4362 7.944 39.8002 7.82 39.0482 7.82H35.4482L36.8762 6.248V16.148ZM48.2285 23V10.256H51.3845V14.492L50.6525 14.084C50.7325 13.532 50.8805 13.012 51.0965 12.524C51.3125 12.028 51.6005 11.596 51.9605 11.228C52.3205 10.852 52.7565 10.56 53.2685 10.352C53.7805 10.144 54.3645 10.04 55.0205 10.04C55.5405 10.04 55.9485 10.08 56.2445 10.16C56.5485 10.232 56.7365 10.292 56.8085 10.34L56.2325 13.232C56.1525 13.176 55.9885 13.108 55.7405 13.028C55.5005 12.94 55.1765 12.896 54.7685 12.896C54.1205 12.896 53.5765 13.008 53.1365 13.232C52.7045 13.448 52.3605 13.744 52.1045 14.12C51.8485 14.488 51.6645 14.896 51.5525 15.344C51.4405 15.784 51.3845 16.224 51.3845 16.664V23H48.2285ZM64.8285 23.252C63.4845 23.252 62.3005 22.972 61.2765 22.412C60.2525 21.844 59.4485 21.06 58.8645 20.06C58.2885 19.06 58.0005 17.916 58.0005 16.628C58.0005 15.332 58.2885 14.192 58.8645 13.208C59.4485 12.216 60.2525 11.44 61.2765 10.88C62.3005 10.32 63.4845 10.04 64.8285 10.04C66.1725 10.04 67.3565 10.32 68.3805 10.88C69.4045 11.44 70.2045 12.216 70.7805 13.208C71.3645 14.192 71.6565 15.332 71.6565 16.628C71.6565 17.916 71.3645 19.06 70.7805 20.06C70.2045 21.06 69.4045 21.844 68.3805 22.412C67.3565 22.972 66.1725 23.252 64.8285 23.252ZM64.8285 20.672C65.5565 20.672 66.1925 20.504 66.7365 20.168C67.2805 19.832 67.7045 19.364 68.0085 18.764C68.3125 18.156 68.4645 17.444 68.4645 16.628C68.4645 15.812 68.3125 15.108 68.0085 14.516C67.7045 13.916 67.2805 13.452 66.7365 13.124C66.1925 12.796 65.5565 12.632 64.8285 12.632C64.1085 12.632 63.4725 12.796 62.9205 13.124C62.3765 13.452 61.9525 13.916 61.6485 14.516C61.3445 15.108 61.1925 15.812 61.1925 16.628C61.1925 17.444 61.3445 18.156 61.6485 18.764C61.9525 19.364 62.3765 19.832 62.9205 20.168C63.4725 20.504 64.1085 20.672 64.8285 20.672ZM80.0036 23.264C78.7476 23.264 77.6516 23.064 76.7156 22.664C75.7796 22.264 75.0516 21.664 74.5316 20.864C74.0116 20.056 73.7516 19.056 73.7516 17.864C73.7516 17.728 73.7516 17.608 73.7516 17.504C73.7516 17.392 73.7516 17.268 73.7516 17.132H76.9076C76.9076 17.252 76.9076 17.364 76.9076 17.468C76.9076 17.564 76.9076 17.676 76.9076 17.804C76.9076 18.764 77.1676 19.484 77.6876 19.964C78.2156 20.436 78.9916 20.672 80.0156 20.672C81.0476 20.672 81.8356 20.5 82.3796 20.156C82.9316 19.812 83.2076 19.26 83.2076 18.5C83.2076 17.948 83.0196 17.48 82.6436 17.096C82.2756 16.704 81.7676 16.36 81.1196 16.064C80.4716 15.768 79.7356 15.492 78.9116 15.236C77.9836 14.948 77.1396 14.576 76.3796 14.12C75.6196 13.664 75.0116 13.088 74.5556 12.392C74.0996 11.696 73.8716 10.84 73.8716 9.824C73.8716 8.808 74.1316 7.944 74.6516 7.232C75.1796 6.52 75.8996 5.98 76.8116 5.612C77.7316 5.236 78.7756 5.048 79.9436 5.048C81.1676 5.048 82.2436 5.24 83.1716 5.624C84.1076 6.008 84.8396 6.58 85.3676 7.34C85.8956 8.1 86.1596 9.048 86.1596 10.184C86.1596 10.336 86.1596 10.468 86.1596 10.58C86.1596 10.692 86.1596 10.82 86.1596 10.964H82.9916C82.9916 10.86 82.9916 10.756 82.9916 10.652C82.9916 10.54 82.9916 10.432 82.9916 10.328C82.9916 9.416 82.7436 8.744 82.2476 8.312C81.7516 7.872 80.9996 7.652 79.9916 7.652C79.0076 7.652 78.2516 7.824 77.7236 8.168C77.1956 8.512 76.9316 9.06 76.9316 9.812C76.9316 10.372 77.1116 10.84 77.4716 11.216C77.8316 11.592 78.3236 11.92 78.9476 12.2C79.5796 12.472 80.2956 12.748 81.0956 13.028C82.1596 13.38 83.0796 13.78 83.8556 14.228C84.6316 14.668 85.2316 15.22 85.6556 15.884C86.0796 16.54 86.2916 17.376 86.2916 18.392C86.2916 19.432 86.0276 20.316 85.4996 21.044C84.9796 21.764 84.2476 22.316 83.3036 22.7C82.3676 23.076 81.2676 23.264 80.0036 23.264ZM88.9395 23V4.244H91.9395V15.236L91.2555 14.9L96.5235 10.256H100.447L94.2075 15.812L94.9155 14.516L100.387 23H97.0515L92.8515 16.196L93.6195 16.328L91.5795 18.152L91.9395 16.748V23H88.9395ZM102.145 23V10.256H105.265V23H102.145ZM103.717 7.904C103.205 7.904 102.757 7.768 102.373 7.496C101.997 7.216 101.809 6.828 101.809 6.332C101.809 5.844 101.997 5.464 102.373 5.192C102.757 4.92 103.205 4.784 103.717 4.784C104.221 4.784 104.661 4.92 105.037 5.192C105.413 5.464 105.601 5.844 105.601 6.332C105.601 6.828 105.413 7.216 105.037 7.496C104.661 7.768 104.221 7.904 103.717 7.904ZM111.681 4.244V23H108.573V4.244H111.681ZM118.196 4.244V23H115.088V4.244H118.196Z" fill="#2A1911"/>
<circle cx="14" cy="14" r="14" fill="#FF6B2C"/>
<path d="M8.51281 12.728C9.38195 13.0901 10.1859 13.4233 10.9971 13.7637C11.9315 14.1548 12.8658 14.5532 13.8074 14.9226C13.9522 14.9805 14.1623 14.9805 14.3071 14.9226C15.1401 14.5966 15.9585 14.249 16.777 13.9013C18.0589 13.3653 19.2106 14.1186 19.2178 15.502C19.2178 16.1901 19.2106 16.8781 19.2251 17.5662C19.2323 17.7763 19.1744 17.8922 18.9716 17.9718C17.3854 18.6237 15.8137 19.29 14.2275 19.9419C14.1333 19.9781 14.0029 19.9926 13.916 19.9636C12.2357 19.2683 10.5625 18.5657 8.88219 17.8632C8.88219 17.1896 8.88219 16.5377 8.88219 15.8279C9.30228 16.009 9.70064 16.1683 10.0845 16.3494C10.1497 16.3784 10.2149 16.5305 10.2004 16.6102C10.1497 16.8854 10.2946 16.9868 10.5263 17.0809C11.6273 17.53 12.7282 18.0008 13.8291 18.4499C13.9522 18.5006 14.1405 18.4933 14.2709 18.4426C15.3791 17.9936 16.4728 17.53 17.5809 17.0809C17.7837 16.994 17.8851 16.8999 17.8706 16.6609C17.8489 16.277 17.8706 15.8859 17.8634 15.502C17.8561 15.1036 17.6823 14.9878 17.3057 15.1399C16.3062 15.5527 15.3066 15.98 14.2999 16.3856C14.1623 16.4436 13.9595 16.4581 13.8291 16.4001C10.9609 15.2195 8.1072 14.0244 5.24626 12.8294C5.18107 12.8004 5.12313 12.7642 5 12.7062C5.73153 12.402 6.41237 12.1123 7.0932 11.8298C9.31677 10.9028 11.5403 9.96842 13.7639 9.05582C13.9088 8.99787 14.1261 8.97614 14.2709 9.03409C17.1536 10.2292 20.0363 11.4315 22.9117 12.6411C22.9552 12.6555 22.9914 12.6773 23.0928 12.728C22.3902 13.0249 21.7456 13.3146 21.0792 13.5609C20.7968 13.6695 20.7026 13.8144 20.7099 14.1114C20.7316 15.2702 20.7099 16.4291 20.7243 17.588C20.7243 17.7328 20.804 17.9066 20.8982 18.0225C21.1589 18.3557 21.1662 18.783 20.8837 19.0727C20.6157 19.3407 20.1521 19.3552 19.8624 19.1017C19.5655 18.841 19.551 18.3774 19.7972 18.0515C19.8914 17.9211 19.9711 17.7401 19.9711 17.5807C19.9856 16.1176 19.9711 14.6618 19.9856 13.1988C19.9856 12.9525 19.9059 12.8439 19.6814 12.7497C17.9068 12.0182 16.1396 11.2794 14.3796 10.5334C14.1478 10.4392 13.9595 10.432 13.7277 10.5334C12.127 11.207 10.5263 11.8733 8.92565 12.5397C8.80252 12.5831 8.68664 12.6411 8.51281 12.728Z" fill="white"/>
</svg>
