<svg width="93" height="30" viewBox="0 0 93 30" fill="none" xmlns="http://www.w3.org/2000/svg">
<path d="M37.4174 21H35.3054V9.2H39.0974C40.0041 9.2 40.7694 9.37333 41.3934 9.72C42.0228 10.0613 42.5001 10.528 42.8254 11.12C43.1561 11.7067 43.3214 12.3627 43.3214 13.088C43.3214 13.8187 43.1561 14.488 42.8254 15.096C42.4948 15.704 42.0121 16.192 41.3774 16.56C40.7481 16.9227 39.9881 17.104 39.0974 17.104H37.4174V21ZM37.4174 16.432L36.4654 15.432H38.8654C39.3561 15.432 39.7748 15.3387 40.1214 15.152C40.4681 14.96 40.7321 14.6907 40.9134 14.344C41.1001 13.992 41.1934 13.5733 41.1934 13.088C41.1934 12.6027 41.1028 12.1973 40.9214 11.872C40.7454 11.5413 40.4841 11.2933 40.1374 11.128C39.7908 10.9627 39.3668 10.88 38.8654 10.88H36.4654L37.4174 9.832V16.432ZM44.9857 21V12.504H47.0897V15.328L46.6017 15.056C46.655 14.688 46.7537 14.3413 46.8977 14.016C47.0417 13.6853 47.2337 13.3973 47.4737 13.152C47.7137 12.9013 48.0044 12.7067 48.3457 12.568C48.687 12.4293 49.0764 12.36 49.5137 12.36C49.8604 12.36 50.1324 12.3867 50.3297 12.44C50.5324 12.488 50.6577 12.528 50.7057 12.56L50.3217 14.488C50.2684 14.4507 50.159 14.4053 49.9937 14.352C49.8337 14.2933 49.6177 14.264 49.3457 14.264C48.9137 14.264 48.551 14.3387 48.2577 14.488C47.9697 14.632 47.7404 14.8293 47.5697 15.08C47.399 15.3253 47.2764 15.5973 47.2017 15.896C47.127 16.1893 47.0897 16.4827 47.0897 16.776V21H44.9857ZM56.0523 21.168C55.1563 21.168 54.367 20.9813 53.6843 20.608C53.0016 20.2293 52.4656 19.7067 52.0763 19.04C51.6923 18.3733 51.5003 17.6107 51.5003 16.752C51.5003 15.888 51.6923 15.128 52.0763 14.472C52.4656 13.8107 53.0016 13.2933 53.6843 12.92C54.367 12.5467 55.1563 12.36 56.0523 12.36C56.9483 12.36 57.7376 12.5467 58.4203 12.92C59.103 13.2933 59.6363 13.8107 60.0203 14.472C60.4096 15.128 60.6043 15.888 60.6043 16.752C60.6043 17.6107 60.4096 18.3733 60.0203 19.04C59.6363 19.7067 59.103 20.2293 58.4203 20.608C57.7376 20.9813 56.9483 21.168 56.0523 21.168ZM56.0523 19.448C56.5376 19.448 56.9616 19.336 57.3243 19.112C57.687 18.888 57.9696 18.576 58.1723 18.176C58.375 17.7707 58.4763 17.296 58.4763 16.752C58.4763 16.208 58.375 15.7387 58.1723 15.344C57.9696 14.944 57.687 14.6347 57.3243 14.416C56.9616 14.1973 56.5376 14.088 56.0523 14.088C55.5723 14.088 55.1483 14.1973 54.7803 14.416C54.4176 14.6347 54.135 14.944 53.9323 15.344C53.7296 15.7387 53.6283 16.208 53.6283 16.752C53.6283 17.296 53.7296 17.7707 53.9323 18.176C54.135 18.576 54.4176 18.888 54.7803 19.112C55.1483 19.336 55.5723 19.448 56.0523 19.448ZM66.1691 21.176C65.3317 21.176 64.6011 21.0427 63.9771 20.776C63.3531 20.5093 62.8677 20.1093 62.5211 19.576C62.1744 19.0373 62.0011 18.3707 62.0011 17.576C62.0011 17.4853 62.0011 17.4053 62.0011 17.336C62.0011 17.2613 62.0011 17.1787 62.0011 17.088H64.1051C64.1051 17.168 64.1051 17.2427 64.1051 17.312C64.1051 17.376 64.1051 17.4507 64.1051 17.536C64.1051 18.176 64.2784 18.656 64.6251 18.976C64.9771 19.2907 65.4944 19.448 66.1771 19.448C66.8651 19.448 67.3904 19.3333 67.7531 19.104C68.1211 18.8747 68.3051 18.5067 68.3051 18C68.3051 17.632 68.1797 17.32 67.9291 17.064C67.6837 16.8027 67.3451 16.5733 66.9131 16.376C66.4811 16.1787 65.9904 15.9947 65.4411 15.824C64.8224 15.632 64.2597 15.384 63.7531 15.08C63.2464 14.776 62.8411 14.392 62.5371 13.928C62.2331 13.464 62.0811 12.8933 62.0811 12.216C62.0811 11.5387 62.2544 10.9627 62.6011 10.488C62.9531 10.0133 63.4331 9.65333 64.0411 9.408C64.6544 9.15733 65.3504 9.032 66.1291 9.032C66.9451 9.032 67.6624 9.16 68.2811 9.416C68.9051 9.672 69.3931 10.0533 69.7451 10.56C70.0971 11.0667 70.2731 11.6987 70.2731 12.456C70.2731 12.5573 70.2731 12.6453 70.2731 12.72C70.2731 12.7947 70.2731 12.88 70.2731 12.976H68.1611C68.1611 12.9067 68.1611 12.8373 68.1611 12.768C68.1611 12.6933 68.1611 12.6213 68.1611 12.552C68.1611 11.944 67.9957 11.496 67.6651 11.208C67.3344 10.9147 66.8331 10.768 66.1611 10.768C65.5051 10.768 65.0011 10.8827 64.6491 11.112C64.2971 11.3413 64.1211 11.7067 64.1211 12.208C64.1211 12.5813 64.2411 12.8933 64.4811 13.144C64.7211 13.3947 65.0491 13.6133 65.4651 13.8C65.8864 13.9813 66.3637 14.1653 66.8971 14.352C67.6064 14.5867 68.2197 14.8533 68.7371 15.152C69.2544 15.4453 69.6544 15.8133 69.9371 16.256C70.2197 16.6933 70.3611 17.2507 70.3611 17.928C70.3611 18.6213 70.1851 19.2107 69.8331 19.696C69.4864 20.176 68.9984 20.544 68.3691 20.8C67.7451 21.0507 67.0117 21.176 66.1691 21.176ZM72.1263 21V8.496H74.1263V15.824L73.6703 15.6L77.1823 12.504H79.7983L75.6383 16.208L76.1103 15.344L79.7583 21H77.5343L74.7343 16.464L75.2463 16.552L73.8863 17.768L74.1263 16.832V21H72.1263ZM80.9301 21V12.504H83.0101V21H80.9301ZM81.9781 10.936C81.6367 10.936 81.3381 10.8453 81.0821 10.664C80.8314 10.4773 80.7061 10.2187 80.7061 9.888C80.7061 9.56267 80.8314 9.30933 81.0821 9.128C81.3381 8.94667 81.6367 8.856 81.9781 8.856C82.3141 8.856 82.6074 8.94667 82.8581 9.128C83.1087 9.30933 83.2341 9.56267 83.2341 9.888C83.2341 10.2187 83.1087 10.4773 82.8581 10.664C82.6074 10.8453 82.3141 10.936 81.9781 10.936ZM87.2871 8.496V21H85.2151V8.496H87.2871ZM91.6308 8.496V21H89.5588V8.496H91.6308Z" fill="#2A1911"/>
<circle cx="15" cy="15" r="15" fill="#EA741E"/>
<path d="M9.08947 13.0746C10.0394 13.4705 10.9182 13.8346 11.8048 14.2067C12.826 14.6342 13.8472 15.0696 14.8764 15.4733C15.0347 15.5366 15.2643 15.5366 15.4226 15.4733C16.333 15.1171 17.2276 14.7371 18.1221 14.3571C19.5233 13.7713 20.782 14.5946 20.79 16.1066C20.79 16.8587 20.782 17.6108 20.7979 18.3628C20.8058 18.5924 20.7425 18.7191 20.5208 18.8061C18.7871 19.5186 17.0692 20.2469 15.3355 20.9594C15.2326 20.999 15.0901 21.0148 14.9951 20.9832C13.1585 20.2232 11.3298 19.4553 9.49321 18.6874C9.49321 17.9512 9.49321 17.2387 9.49321 16.4629C9.95236 16.6608 10.3878 16.8349 10.8073 17.0329C10.8786 17.0645 10.9498 17.2308 10.934 17.3178C10.8786 17.6187 11.0369 17.7295 11.2902 17.8324C12.4935 18.3232 13.6968 18.8378 14.9001 19.3286C15.0347 19.384 15.2405 19.3761 15.383 19.3207C16.5942 18.8299 17.7896 18.3232 19.0008 17.8324C19.2225 17.7374 19.3333 17.6345 19.3175 17.3733C19.2938 16.9537 19.3175 16.5262 19.3096 16.1066C19.3017 15.6712 19.1117 15.5446 18.7 15.7108C17.6076 16.162 16.5151 16.6291 15.4147 17.0724C15.2643 17.1358 15.0426 17.1516 14.9001 17.0883C11.7652 15.7979 8.64615 14.4917 5.51916 13.1855C5.44791 13.1538 5.38458 13.1142 5.25 13.0509C6.04956 12.7184 6.7937 12.4017 7.53785 12.093C9.96819 11.0797 12.3985 10.0585 14.8289 9.06101C14.9872 8.99767 15.2247 8.97393 15.383 9.03726C18.5338 10.3435 21.6845 11.6576 24.8273 12.9796C24.8748 12.9955 24.9144 13.0192 25.0252 13.0746C24.2574 13.3992 23.5528 13.7159 22.8245 13.985C22.5157 14.1038 22.4128 14.2621 22.4207 14.5867C22.4445 15.8533 22.4207 17.1199 22.4366 18.3866C22.4366 18.5449 22.5237 18.7349 22.6266 18.8616C22.9116 19.2257 22.9195 19.6928 22.6107 20.0094C22.3178 20.3023 21.8112 20.3182 21.4945 20.0411C21.1699 19.7561 21.1541 19.2495 21.4233 18.8932C21.5262 18.7507 21.6133 18.5528 21.6133 18.3786C21.6291 16.7795 21.6133 15.1883 21.6291 13.5892C21.6291 13.32 21.542 13.2013 21.2966 13.0984C19.3571 12.2988 17.4255 11.4914 15.5018 10.676C15.2485 10.573 15.0426 10.5651 14.7893 10.676C13.0398 11.4122 11.2902 12.1405 9.54071 12.8688C9.40613 12.9163 9.27946 12.9796 9.08947 13.0746Z" fill="white"/>
</svg>
