<svg width="136" height="54" viewBox="0 0 136 54" fill="none" xmlns="http://www.w3.org/2000/svg">
<path d="M128.672 22.6798C130.023 22.6798 131.253 23.0083 132.364 23.6652C133.474 24.3221 134.358 25.2058 135.015 26.3161C135.672 27.4172 136 28.6385 136 29.9801C136 30.9887 135.81 31.9371 135.431 32.8253C135.052 33.7136 134.524 34.4954 133.849 35.1709C133.183 35.8371 132.405 36.3598 131.517 36.7392C130.638 37.1186 129.69 37.3082 128.672 37.3082C127.802 37.3082 127.03 37.1139 126.354 36.7253C125.688 36.3275 125.128 35.8139 124.675 35.1848V36.9474H121.288V16.1289H124.675V24.8033C125.128 24.1741 125.688 23.6652 126.354 23.2766C127.03 22.8787 127.802 22.6798 128.672 22.6798ZM128.63 34.0328C129.352 34.0328 130.004 33.8524 130.587 33.4915C131.179 33.1214 131.651 32.631 132.003 32.0203C132.354 31.4097 132.53 30.7296 132.53 29.9801C132.53 29.2399 132.354 28.5645 132.003 27.9538C131.651 27.3339 131.179 26.8435 130.587 26.4826C129.995 26.1218 129.343 25.9414 128.63 25.9414C127.927 25.9414 127.298 26.1264 126.743 26.4965C126.188 26.8574 125.753 27.3478 125.438 27.9677C125.123 28.5784 124.966 29.2492 124.966 29.9801C124.966 30.7296 125.123 31.4143 125.438 32.0342C125.753 32.6449 126.188 33.1307 126.743 33.4915C127.298 33.8524 127.927 34.0328 128.63 34.0328Z" fill="white"/>
<path d="M105.716 31.8121V23.0684H109.102V30.9239C109.102 31.4698 109.236 31.9694 109.505 32.4228C109.773 32.8669 110.129 33.2232 110.573 33.4915C111.027 33.7506 111.522 33.8801 112.058 33.8801C112.613 33.8801 113.113 33.7506 113.557 33.4915C114.001 33.2232 114.358 32.8669 114.626 32.4228C114.894 31.9694 115.028 31.4698 115.028 30.9239V23.0684H118.415L118.429 36.9473H115.042L115.028 35.6844C114.547 36.184 113.978 36.5819 113.321 36.878C112.664 37.1648 111.961 37.3082 111.212 37.3082C110.203 37.3082 109.283 37.063 108.45 36.5726C107.617 36.073 106.951 35.4114 106.451 34.5879C105.961 33.7552 105.716 32.8299 105.716 31.8121Z" fill="white"/>
<path d="M103.506 28.1759V36.9474H100.119V29.0641C100.119 28.5182 99.985 28.0232 99.7166 27.5791C99.4483 27.1257 99.0875 26.7695 98.6341 26.5104C98.1899 26.2421 97.6949 26.1079 97.149 26.1079C96.6031 26.1079 96.1035 26.2421 95.6501 26.5104C95.206 26.7695 94.8497 27.1257 94.5814 27.5791C94.3223 28.0232 94.1928 28.5182 94.1928 29.0641V36.9474H90.8063L90.7924 16.1289H94.1789L94.1928 24.3036C94.6647 23.804 95.2291 23.4107 95.886 23.1239C96.543 22.8278 97.2508 22.6798 98.0095 22.6798C99.0181 22.6798 99.9387 22.9296 100.771 23.4293C101.604 23.9196 102.266 24.5812 102.756 25.414C103.256 26.2374 103.506 27.1581 103.506 28.1759Z" fill="white"/>
<path d="M84.0698 36.9474V16.1289H87.4563V36.9474H84.0698Z" fill="white"/>
<path d="M77.3472 36.9474V16.1289H80.7336V36.9474H77.3472Z" fill="white"/>
<path d="M70.5703 23.0687H73.9568V36.9477H70.5703V23.0687ZM72.2913 21.2783C71.7917 21.2783 71.3707 21.1164 71.0283 20.7926C70.686 20.4595 70.5148 20.0431 70.5148 19.5435C70.5148 19.0531 70.686 18.6413 71.0283 18.3082C71.3707 17.9751 71.787 17.8086 72.2774 17.8086C72.7678 17.8086 73.1796 17.9751 73.5127 18.3082C73.855 18.6413 74.0262 19.0531 74.0262 19.5435C74.0262 20.0431 73.8596 20.4595 73.5265 20.7926C73.1935 21.1164 72.7817 21.2783 72.2913 21.2783Z" fill="white"/>
<path d="M68.5431 36.9474H64.6431L61.4787 31.4929L59.5357 33.8107V36.9474H56.1492V16.1289H59.5357V28.5506L64.1296 23.0684H68.557L63.7965 28.7449L68.5431 36.9474Z" fill="white"/>
<path d="M45.7412 37.3081C44.6679 37.3081 43.6363 37.1416 42.6462 36.8085C41.6654 36.4661 40.8049 35.9804 40.0647 35.3512C39.3245 34.7128 38.7925 33.9494 38.4686 33.0612L41.6469 31.8953C41.7765 32.2654 42.0402 32.6031 42.438 32.9085C42.8359 33.2138 43.3217 33.459 43.8953 33.6441C44.469 33.8291 45.0843 33.9217 45.7412 33.9217C46.4167 33.9217 47.0459 33.8199 47.6288 33.6163C48.221 33.4035 48.6975 33.112 49.0583 32.7419C49.4192 32.3626 49.5996 31.9231 49.5996 31.4234C49.5996 30.9145 49.4099 30.4982 49.0306 30.1743C48.6512 29.8412 48.1654 29.5775 47.5733 29.3832C46.9811 29.1889 46.3704 29.0409 45.7412 28.9391C44.3626 28.7263 43.1274 28.3978 42.0356 27.9537C40.9437 27.5096 40.0786 26.8943 39.4402 26.1078C38.811 25.3213 38.4964 24.3035 38.4964 23.0544C38.4964 21.8793 38.8341 20.8523 39.5096 19.9733C40.185 19.0943 41.0733 18.4096 42.1743 17.9192C43.2754 17.4288 44.4644 17.1836 45.7412 17.1836C46.8053 17.1836 47.8323 17.3501 48.8224 17.6832C49.8124 18.0163 50.6775 18.5021 51.4177 19.1405C52.1672 19.779 52.7039 20.5469 53.0277 21.4444L49.8355 22.5964C49.706 22.2263 49.4423 21.8886 49.0444 21.5832C48.6466 21.2779 48.1608 21.0373 47.5871 20.8615C47.0135 20.6765 46.3982 20.5839 45.7412 20.5839C45.0843 20.5747 44.4597 20.6811 43.8676 20.9032C43.2847 21.116 42.8081 21.4074 42.438 21.7775C42.0679 22.1476 41.8829 22.5733 41.8829 23.0544C41.8829 23.6743 42.0541 24.1416 42.3964 24.4562C42.748 24.7708 43.2153 25.0021 43.7982 25.1501C44.3811 25.2889 45.0288 25.4185 45.7412 25.5387C47.0366 25.7423 48.2348 26.0847 49.3359 26.5658C50.437 27.0469 51.3206 27.69 51.9868 28.495C52.653 29.2907 52.9861 30.2669 52.9861 31.4234C52.9861 32.5985 52.653 33.6302 51.9868 34.5184C51.3206 35.3975 50.437 36.0821 49.3359 36.5725C48.2348 37.0629 47.0366 37.3081 45.7412 37.3081Z" fill="white"/>
<path fill-rule="evenodd" clip-rule="evenodd" d="M18.4725 22.7806C20.6612 16.7548 22.6336 9.34718 20.6414 0.248535C30.9872 15.9556 29.0856 33.9472 20.4955 53.185C23.7448 41.7269 24.9235 27.7922 18.473 22.7806" fill="#FEF582"/>
<mask id="mask0_107_443" style="mask-type:luminance" maskUnits="userSpaceOnUse" x="18" y="0" width="10" height="54">
<path d="M18.4725 22.7806C20.6612 16.7548 22.6336 9.34718 20.6414 0.248535C30.9872 15.9556 29.0856 33.9472 20.4955 53.185C23.7448 41.7269 24.9235 27.7922 18.473 22.7806" fill="white"/>
</mask>
<g mask="url(#mask0_107_443)">
<path d="M30.9872 0.248535H18.4725V53.185H30.9872V0.248535Z" fill="#FF6B2C"/>
</g>
<path fill-rule="evenodd" clip-rule="evenodd" d="M20.495 53.1848C20.5586 35.2942 14.1375 25.234 0 24.4929C25.5964 11.7192 25.5313 35.4283 20.495 53.1848Z" fill="#01C159"/>
<mask id="mask1_107_443" style="mask-type:luminance" maskUnits="userSpaceOnUse" x="0" y="20" width="24" height="34">
<path d="M20.495 53.1848C20.5586 35.2942 14.1375 25.234 0 24.4929C25.5964 11.7192 25.5313 35.4283 20.495 53.1848Z" fill="white"/>
</mask>
<g mask="url(#mask1_107_443)">
<path d="M25.5964 11.7188H0V53.1844H25.5964V11.7188Z" fill="#07B14B"/>
</g>
<path fill-rule="evenodd" clip-rule="evenodd" d="M14.3653 11.5479C16.1133 11.5479 17.5298 12.9824 17.5298 14.7514C17.5298 16.5204 16.1128 17.9549 14.3653 17.9549C12.6178 17.9549 11.2007 16.5204 11.2007 14.7514C11.2007 12.9824 12.6178 11.5479 14.3653 11.5479Z" fill="#FF6B2C"/>
<mask id="mask2_107_443" style="mask-type:luminance" maskUnits="userSpaceOnUse" x="11" y="11" width="7" height="7">
<path d="M14.3653 11.5479C16.1133 11.5479 17.5298 12.9824 17.5298 14.7514C17.5298 16.5204 16.1128 17.9549 14.3653 17.9549C12.6178 17.9549 11.2007 16.5204 11.2007 14.7514C11.2007 12.9824 12.6178 11.5479 14.3653 11.5479Z" fill="white"/>
</mask>
<g mask="url(#mask2_107_443)">
<path d="M17.5297 11.5479H11.2V17.9554H17.5297V11.5479Z" fill="#FF6B2C"/>
</g>
</svg>
