<svg width="118" height="46" viewBox="0 0 118 46" fill="none" xmlns="http://www.w3.org/2000/svg">
<path d="M111.642 19.4978C112.814 19.4978 113.882 19.7828 114.845 20.3528C115.808 20.9228 116.575 21.6895 117.145 22.6528C117.715 23.6082 118 24.6679 118 25.8319C118 26.707 117.835 27.5299 117.506 28.3006C117.177 29.0713 116.72 29.7496 116.133 30.3357C115.555 30.9137 114.881 31.3673 114.11 31.6964C113.348 32.0256 112.525 32.1902 111.642 32.1902C110.887 32.1902 110.217 32.0216 109.631 31.6844C109.053 31.3392 108.567 30.8936 108.174 30.3477V31.8771H105.235V13.814H108.174V21.3403C108.567 20.7943 109.053 20.3528 109.631 20.0156C110.217 19.6704 110.887 19.4978 111.642 19.4978ZM111.606 29.3482C112.232 29.3482 112.798 29.1917 113.304 28.8786C113.817 28.5575 114.227 28.132 114.532 27.6021C114.837 27.0723 114.989 26.4822 114.989 25.8319C114.989 25.1897 114.837 24.6037 114.532 24.0738C114.227 23.5359 113.817 23.1104 113.304 22.7973C112.79 22.4843 112.224 22.3277 111.606 22.3277C110.996 22.3277 110.45 22.4883 109.968 22.8094C109.486 23.1225 109.109 23.548 108.836 24.0858C108.563 24.6157 108.427 25.1977 108.427 25.8319C108.427 26.4822 108.563 27.0763 108.836 27.6142C109.109 28.144 109.486 28.5655 109.968 28.8786C110.45 29.1917 110.996 29.3482 111.606 29.3482Z" fill="#2B1911"/>
<path d="M91.7238 27.4215V19.835H94.6621V26.6508C94.6621 27.1245 94.7785 27.558 95.0113 27.9514C95.2441 28.3367 95.5532 28.6458 95.9386 28.8786C96.3319 29.1034 96.7614 29.2158 97.2271 29.2158C97.7087 29.2158 98.1423 29.1034 98.5276 28.8786C98.9129 28.6458 99.222 28.3367 99.4548 27.9514C99.6877 27.558 99.8041 27.1245 99.8041 26.6508V19.835H102.742L102.754 31.8771H99.8161L99.8041 30.7812C99.3866 31.2148 98.8929 31.56 98.3229 31.8169C97.7529 32.0657 97.1428 32.1902 96.4925 32.1902C95.6174 32.1902 94.8186 31.9774 94.0961 31.5519C93.3736 31.1184 92.7956 30.5444 92.3621 29.8299C91.9366 29.1074 91.7238 28.3046 91.7238 27.4215Z" fill="#2B1911"/>
<path d="M89.8063 24.2665V31.8771H86.8681V25.0372C86.8681 24.5635 86.7517 24.134 86.5188 23.7487C86.286 23.3553 85.9729 23.0462 85.5796 22.8214C85.1942 22.5886 84.7647 22.4722 84.2911 22.4722C83.8174 22.4722 83.3839 22.5886 82.9905 22.8214C82.6052 23.0462 82.2961 23.3553 82.0633 23.7487C81.8385 24.134 81.7261 24.5635 81.7261 25.0372V31.8771H78.7878L78.7758 13.814H81.7141L81.7261 20.9067C82.1355 20.4732 82.6252 20.132 83.1952 19.8832C83.7652 19.6263 84.3794 19.4978 85.0377 19.4978C85.9127 19.4978 86.7115 19.7146 87.434 20.1481C88.1566 20.5736 88.7306 21.1476 89.1561 21.8701C89.5896 22.5846 89.8063 23.3834 89.8063 24.2665Z" fill="#2B1911"/>
<path d="M72.9429 31.8771V13.814H75.8812V31.8771H72.9429Z" fill="#2B1911"/>
<path d="M67.11 31.8771V13.814H70.0483V31.8771H67.11Z" fill="#2B1911"/>
<path d="M61.2301 19.835H64.1684V31.8771H61.2301V19.835ZM62.7233 18.2816C62.2898 18.2816 61.9246 18.1411 61.6275 17.8601C61.3305 17.5711 61.182 17.2098 61.182 16.7763C61.182 16.3508 61.3305 15.9936 61.6275 15.7046C61.9246 15.4156 62.2858 15.2711 62.7113 15.2711C63.1368 15.2711 63.494 15.4156 63.783 15.7046C64.0801 15.9936 64.2286 16.3508 64.2286 16.7763C64.2286 17.2098 64.0841 17.5711 63.7951 17.8601C63.5061 18.1411 63.1488 18.2816 62.7233 18.2816Z" fill="#2B1911"/>
<path d="M59.4712 31.8771H56.0874L53.3418 27.1445L51.6559 29.1556V31.8771H48.7177V13.814H51.6559V24.5916L55.6419 19.835H59.4833L55.3528 24.7602L59.4712 31.8771Z" fill="#2B1911"/>
<path d="M39.6873 32.1902C38.756 32.1902 37.8609 32.0457 37.0019 31.7567C36.1509 31.4596 35.4043 31.0381 34.7621 30.4922C34.1198 29.9383 33.6582 29.276 33.3772 28.5053L36.1348 27.4938C36.2472 27.8149 36.476 28.1079 36.8212 28.3728C37.1664 28.6378 37.5879 28.8505 38.0857 29.0111C38.5834 29.1716 39.1173 29.2519 39.6873 29.2519C40.2733 29.2519 40.8192 29.1636 41.325 28.987C41.8388 28.8023 42.2522 28.5494 42.5653 28.2283C42.8784 27.8992 43.0349 27.5178 43.0349 27.0843C43.0349 26.6428 42.8704 26.2815 42.5412 26.0005C42.2121 25.7115 41.7906 25.4827 41.2768 25.3141C40.763 25.1456 40.2332 25.0171 39.6873 24.9288C38.4911 24.7442 37.4193 24.4592 36.472 24.0738C35.5247 23.6885 34.7741 23.1546 34.2202 22.4722C33.6743 21.7898 33.4013 20.9068 33.4013 19.823C33.4013 18.8034 33.6943 17.9123 34.2804 17.1496C34.8664 16.387 35.6371 15.7929 36.5924 15.3674C37.5478 14.9419 38.5794 14.7292 39.6873 14.7292C40.6105 14.7292 41.5016 14.8737 42.3606 15.1627C43.2196 15.4517 43.9702 15.8732 44.6125 16.4271C45.2627 16.981 45.7284 17.6474 46.0093 18.4261L43.2397 19.4256C43.1273 19.1045 42.8985 18.8114 42.5533 18.5465C42.2081 18.2816 41.7866 18.0729 41.2888 17.9203C40.7911 17.7598 40.2572 17.6795 39.6873 17.6795C39.1173 17.6714 38.5754 17.7638 38.0616 17.9564C37.5558 18.1411 37.1424 18.394 36.8212 18.7151C36.5001 19.0362 36.3396 19.4055 36.3396 19.823C36.3396 20.3608 36.4881 20.7663 36.7851 21.0392C37.0902 21.3122 37.4956 21.5129 38.0014 21.6413C38.5071 21.7617 39.0691 21.8741 39.6873 21.9785C40.8112 22.1551 41.8508 22.4521 42.8061 22.8696C43.7615 23.2871 44.5282 23.845 45.1062 24.5435C45.6842 25.2339 45.9732 26.0808 45.9732 27.0843C45.9732 28.1039 45.6842 28.999 45.1062 29.7697C44.5282 30.5324 43.7615 31.1264 42.8061 31.5519C41.8508 31.9774 40.8112 32.1902 39.6873 32.1902Z" fill="#2B1911"/>
<path fill-rule="evenodd" clip-rule="evenodd" d="M16.0276 19.5848C17.9266 14.3565 19.638 7.92933 17.9095 0.0349121C26.886 13.6631 25.236 29.2734 17.7829 45.9651C20.6021 36.0234 21.6248 23.9331 16.028 19.5848" fill="#FEF582"/>
<mask id="mask0_11_4" style="mask-type:luminance" maskUnits="userSpaceOnUse" x="16" y="0" width="9" height="46">
<path d="M16.0276 19.5848C17.9266 14.3565 19.638 7.92933 17.9095 0.0349121C26.886 13.6631 25.236 29.2734 17.7829 45.9651C20.6021 36.0234 21.6248 23.9331 16.028 19.5848" fill="white"/>
</mask>
<g mask="url(#mask0_11_4)">
<path d="M26.886 0.0349121H16.0276V45.9651H26.886V0.0349121Z" fill="#FF6B2C"/>
</g>
<path fill-rule="evenodd" clip-rule="evenodd" d="M17.7824 45.9651C17.8376 30.4424 12.2663 21.7137 0 21.0706C22.2086 9.98754 22.1522 30.5587 17.7824 45.9651Z" fill="#01C159"/>
<mask id="mask1_11_4" style="mask-type:luminance" maskUnits="userSpaceOnUse" x="0" y="17" width="21" height="29">
<path d="M17.7824 45.9651C17.8376 30.4424 12.2663 21.7137 0 21.0706C22.2086 9.98754 22.1522 30.5587 17.7824 45.9651Z" fill="white"/>
</mask>
<g mask="url(#mask1_11_4)">
<path d="M22.2086 9.98755H0V45.9651H22.2086V9.98755Z" fill="#07B14B"/>
</g>
<path fill-rule="evenodd" clip-rule="evenodd" d="M12.464 9.83904C13.9806 9.83904 15.2097 11.0837 15.2097 12.6186C15.2097 14.1535 13.9802 15.3981 12.464 15.3981C10.9478 15.3981 9.71826 14.1535 9.71826 12.6186C9.71826 11.0837 10.9478 9.83904 12.464 9.83904Z" fill="#FF6B2C"/>
<mask id="mask2_11_4" style="mask-type:luminance" maskUnits="userSpaceOnUse" x="9" y="9" width="7" height="7">
<path d="M12.464 9.83904C13.9806 9.83904 15.2097 11.0837 15.2097 12.6186C15.2097 14.1535 13.9802 15.3981 12.464 15.3981C10.9478 15.3981 9.71826 14.1535 9.71826 12.6186C9.71826 11.0837 10.9478 9.83904 12.464 9.83904Z" fill="white"/>
</mask>
<g mask="url(#mask2_11_4)">
<path d="M15.2097 9.83904H9.71783V15.3985H15.2097V9.83904Z" fill="#FF6B2C"/>
</g>
</svg>
