<svg width="50" height="50" viewBox="0 0 50 50" fill="none" xmlns="http://www.w3.org/2000/svg">
<circle cx="25" cy="25" r="25" fill="#BA3E28"/>
<path d="M19.8402 19.4814C19.4787 19.4814 19.1855 19.7745 19.1855 20.136C19.1855 20.4975 19.4787 20.7906 19.8402 20.7906H30.3612C30.7227 20.7906 31.0158 20.4975 31.0158 20.136C31.0158 19.7745 30.7227 19.4814 30.3612 19.4814H19.8402Z" fill="white"/>
<path d="M28.5443 24.1829H19.8372C19.4757 24.1829 19.1826 24.476 19.1826 24.8375C19.1826 25.199 19.4757 25.4921 19.8372 25.4921H28.5436C28.905 25.4921 29.1982 25.199 29.1982 24.8375C29.1982 24.476 28.9058 24.1829 28.5443 24.1829Z" fill="white"/>
<path d="M26.8707 30.1908C27.2321 30.1908 27.5253 29.8977 27.5253 29.5362C27.5253 29.1747 27.2321 28.8816 26.8707 28.8816H19.8372C19.4757 28.8816 19.1826 29.1747 19.1826 29.5362C19.1826 29.8977 19.4757 30.1908 19.8372 30.1908H26.8707Z" fill="white"/>
<path d="M27.8602 34.3657H18.4549C17.2722 34.3657 16.3092 33.4027 16.3092 32.22V17.4549C16.3092 16.2722 17.2722 15.3092 18.4549 15.3092H31.7435C32.9262 15.3092 33.8892 16.2722 33.8892 17.4549V23.5646C33.8892 23.9261 34.1823 24.2192 34.5438 24.2192C34.9053 24.2192 35.1984 23.9261 35.1984 23.5646V17.4549C35.1984 15.55 33.6484 14 31.7435 14H18.4549C16.55 14 15 15.55 15 17.4549V32.22C15 34.1249 16.55 35.6749 18.4549 35.6749H27.8595C28.221 35.6749 28.5141 35.3818 28.5141 35.0203C28.5141 34.6588 28.2217 34.3657 27.8602 34.3657Z" fill="white"/>
<path d="M35.9996 28.9127C35.9996 27.0063 34.4489 25.4563 32.5433 25.4563C30.6376 25.4563 29.0869 27.007 29.0869 28.9127C29.0869 29.8728 29.4819 30.7412 30.1161 31.3682V35.0202C30.1161 35.261 30.2478 35.4821 30.4594 35.5963C30.5569 35.6486 30.6638 35.6748 30.7707 35.6748C30.8958 35.6748 31.0209 35.6392 31.13 35.5679L32.544 34.6398L33.9587 35.5679C34.1594 35.6995 34.4176 35.7112 34.6286 35.597C34.8402 35.4828 34.9719 35.2617 34.9719 35.0209V31.3682C35.6047 30.7405 35.9996 29.8721 35.9996 28.9127ZM32.5425 26.7648C33.7267 26.7648 34.6904 27.7286 34.6904 28.9127C34.6904 30.0968 33.7267 31.0598 32.5425 31.0598C31.3584 31.0598 30.3947 30.0968 30.3947 28.9127C30.3947 27.7286 31.3584 26.7648 32.5425 26.7648ZM33.6619 33.8077L32.9018 33.3095C32.6836 33.1662 32.4014 33.1669 32.184 33.3095L31.4246 33.8077V32.1668C31.7774 32.2883 32.1498 32.369 32.5433 32.369C32.9368 32.369 33.3092 32.289 33.6626 32.1668L33.6619 33.8077Z" fill="white"/>
</svg>
