<svg width="50" height="50" viewBox="0 0 50 50" fill="none" xmlns="http://www.w3.org/2000/svg">
<circle cx="25" cy="25" r="25" fill="#BA3E28"/>
<path d="M18.5936 31.3504H32.4071C33.9997 31.3504 35.2957 30.0545 35.2957 28.4612V18.8893C35.2957 17.2959 33.9997 16 32.4071 16H18.5936C17.001 16 15.7051 17.2959 15.7051 18.8893V28.4612C15.7051 30.0545 17.001 31.3504 18.5936 31.3504ZM16.9735 18.8893C16.9735 17.9957 17.7008 17.2692 18.5936 17.2692H32.4071C33.3007 17.2692 34.0272 17.9957 34.0272 18.8893V28.4612C34.0272 29.3547 33.3 30.0813 32.4071 30.0813H18.5936C17.7001 30.0813 16.9735 29.3547 16.9735 28.4612V18.8893Z" fill="white"/>
<path d="M23.6446 27.223C23.9364 27.3738 24.2521 27.4485 24.5671 27.4485C24.973 27.4485 25.3761 27.3245 25.7221 27.0806L28.2259 25.3104C28.7565 24.9355 29.0729 24.3239 29.0729 23.6741C29.0729 23.0251 28.7558 22.4134 28.2259 22.0392L25.7214 20.2697C25.1069 19.8356 24.3113 19.7807 23.6439 20.1274C22.9766 20.4727 22.5615 21.1548 22.5615 21.906V25.4443C22.5622 26.1955 22.9766 26.8777 23.6446 27.223ZM23.8307 21.906C23.8307 21.6263 23.9787 21.3824 24.2274 21.2535C24.336 21.1971 24.4522 21.1689 24.5671 21.1689C24.7144 21.1689 24.861 21.2147 24.9892 21.3056L27.493 23.0751C27.6903 23.214 27.8031 23.4331 27.8031 23.6748C27.8031 23.9165 27.6896 24.135 27.4923 24.2752L24.9885 26.0447C24.7602 26.2061 24.4762 26.2258 24.2267 26.0969C23.978 25.9679 23.83 25.7248 23.83 25.4443L23.8307 21.906Z" fill="white"/>
<path d="M35.3658 33.5588H15.6342C15.284 33.5588 15 33.8428 15 34.193C15 34.5432 15.284 34.8272 15.6342 34.8272H35.3658C35.716 34.8272 36 34.5432 36 34.193C36 33.8428 35.716 33.5588 35.3658 33.5588Z" fill="white"/>
</svg>
