<svg width="13" height="15" viewBox="0 0 13 15" fill="none" xmlns="http://www.w3.org/2000/svg">
<path id="Icon" d="M12.5848 5.11401C12.4922 5.18152 10.857 6.0471 10.857 7.9718C10.857 10.198 12.9377 10.9856 13 11.0051C12.9904 11.0531 12.6695 12.0837 11.903 13.1338C11.2195 14.0579 10.5057 14.9805 9.41985 14.9805C8.33399 14.9805 8.05454 14.3879 6.80101 14.3879C5.57941 14.3879 5.14507 15 4.15182 15C3.15858 15 2.46554 14.1449 1.66871 13.0948C0.745732 11.8617 0 9.94599 0 8.12781C0 5.21152 2.01843 3.66487 4.00491 3.66487C5.06044 3.66487 5.9403 4.31593 6.603 4.31593C7.23376 4.31593 8.21742 3.62586 9.41825 3.62586C9.87336 3.62586 11.5085 3.66487 12.5848 5.11401ZM8.84818 2.39124C9.3448 1.83768 9.69611 1.06961 9.69611 0.30153C9.69611 0.19502 9.68653 0.0870087 9.66577 0C8.85776 0.0285028 7.89645 0.505551 7.31679 1.13711C6.86169 1.62316 6.43692 2.39124 6.43692 3.16982C6.43692 3.28683 6.45768 3.40384 6.46727 3.44134C6.51836 3.45034 6.6014 3.46085 6.68444 3.46085C7.40941 3.46085 8.32121 3.0048 8.84818 2.39124Z" fill="#141414"/>
</svg>
