<svg width="80" height="59" viewBox="0 0 80 59" fill="none" xmlns="http://www.w3.org/2000/svg">
<path id="Subtract" fill-rule="evenodd" clip-rule="evenodd" d="M71.4444 0.0252858C70.7011 1.49604 69.5358 2.28431 68.3314 2.67372C66.9576 3.11787 65.5335 3.04056 64.6538 2.83385L64.4757 3.59478C65.4668 3.82764 67.0385 3.91325 68.5717 3.41751C69.7727 3.02921 70.9502 2.28279 71.7944 0.982688C71.4353 8.64154 70.9681 16.3115 68.786 23.6007L68.786 23.6008C66.47 31.3462 61.9877 38.7125 55.1218 42.8529C52.5114 44.4257 49.6013 45.4607 46.598 45.9544C49.478 39.2948 48.153 30.7494 42.792 25.7193L42.7916 25.719C39.7497 22.8731 35.5183 21.1197 31.3381 21.6121C27.1598 22.1043 23.209 25.0701 22.0878 29.1789L22.0876 29.1795C21.2806 32.1571 22.0187 35.1434 23.5965 37.73C25.1732 40.3148 27.6018 42.5262 30.2359 43.9841C34.7792 46.5005 40.104 47.4748 45.2591 46.9242C44.644 48.0582 43.8893 49.1164 42.9941 50.0652C37.4964 55.8898 28.4717 57.8077 20.3451 57.6894C14.6637 57.6044 12.628 57.5471 10.5926 57.4899L10.5919 57.4898C8.55304 57.4325 6.51409 57.3751 0.828361 57.2901L0.817155 58.0716C6.49857 58.1566 8.53427 58.2139 10.5697 58.2711L10.5704 58.2711C12.6092 58.3285 14.6482 58.3859 20.3339 58.4709L20.334 58.4709C28.5428 58.5904 37.8406 56.6635 43.5618 50.6021L43.5618 50.6021C44.6329 49.467 45.5122 48.1845 46.2013 46.8063C49.4857 46.3347 52.6767 45.2386 55.5249 43.5226L55.525 43.5225C62.6107 39.2495 67.1833 31.6867 69.534 23.8254C71.7347 16.4739 72.2109 8.75425 72.5688 1.13788C72.9549 1.75054 73.4696 2.38255 74.1179 2.91607C75.3144 3.90075 76.9679 4.54874 79.0711 4.11169L78.912 3.34639C77.0729 3.72855 75.6549 3.16944 74.6136 2.31243C73.7845 1.63014 73.1957 0.758436 72.8436 0.025382L71.4444 0.0252858ZM42.2586 26.2898C47.4918 31.2004 48.6908 39.6648 45.6812 46.0879C40.5271 46.7428 35.1624 45.8197 30.6135 43.3002L30.6134 43.3001C28.0851 41.9008 25.7616 39.78 24.2629 37.323C22.7653 34.8679 22.1046 32.103 22.841 29.3852C23.8664 25.6277 27.5195 22.849 31.4298 22.3884C35.3383 21.928 39.3498 23.5685 42.2586 26.2898Z" fill="white"/>
</svg>
