<svg width="16" height="11" viewBox="0 0 16 11" fill="none" xmlns="http://www.w3.org/2000/svg">
<path id="Subtract" fill-rule="evenodd" clip-rule="evenodd" d="M13.0659 3.30696C12.3255 2.25458 12.1164 0.934691 12.1591 0.0432445L11.2371 0C11.1876 1.03221 11.421 2.56742 12.3082 3.82849C12.6309 4.28726 13.036 4.70336 13.5351 5.04347L0 5.04347V5.95653L13.5351 5.95653C13.036 6.29664 12.6309 6.71274 12.3082 7.17151C11.421 8.43258 11.1876 9.96779 11.2371 11L12.1591 10.9568C12.1164 10.0653 12.3255 8.74542 13.0659 7.69304C13.6393 6.87797 14.5515 6.19236 16 6.0063V4.9937C14.5515 4.80764 13.6393 4.12202 13.0659 3.30696Z" fill="#FF6B2C"/>
</svg>
