<svg width="18" height="13" viewBox="0 0 18 13" fill="none" xmlns="http://www.w3.org/2000/svg">
<path fill-rule="evenodd" clip-rule="evenodd" d="M14.6991 4.00576C13.8662 2.80885 13.6309 1.30769 13.679 0.293813L12.6417 0.244629C12.586 1.4186 12.8487 3.16466 13.8467 4.59892C14.2098 5.12069 14.6655 5.59394 15.227 5.98076L0 5.98076V7.01922L15.227 7.01922C14.6655 7.40604 14.2098 7.87929 13.8467 8.40106C12.8487 9.83532 12.586 11.5814 12.6417 12.7554L13.679 12.7062C13.6309 11.6923 13.8662 10.1911 14.6991 8.99422C15.3442 8.06721 16.3704 7.28744 18 7.07583V5.92415C16.3704 5.71254 15.3442 4.93277 14.6991 4.00576Z" fill="white"/>
</svg>
