<svg width="18" height="15" viewBox="0 0 18 15" fill="none" xmlns="http://www.w3.org/2000/svg">
<path id="Union" fill-rule="evenodd" clip-rule="evenodd" d="M12.4808 0.274722C12.169 1.366 12.0895 2.97078 12.7905 4.27578C13.4655 5.53243 14.9345 6.63739 18 6.63739V7.63739L17.9999 7.63739H17.994C14.9326 7.63884 13.4651 8.74317 12.7905 9.999C12.0895 11.304 12.169 12.9088 12.4808 14.0001L11.5193 14.2748C11.1644 13.0327 11.0439 11.1375 11.9096 9.5258C12.3061 8.78763 12.8949 8.13481 13.7198 7.63739L0 7.63739V6.63739L13.7198 6.63739C12.8949 6.13997 12.3061 5.48715 11.9096 4.74898C11.0439 3.1373 11.1644 1.24207 11.5193 0L12.4808 0.274722Z" fill="#141414"/>
</svg>
