<svg width="17" height="12" viewBox="0 0 17 12" fill="none" xmlns="http://www.w3.org/2000/svg">
<path id="Union" fill-rule="evenodd" clip-rule="evenodd" d="M11.9662 0.316228C11.6682 1.21 11.5502 2.47447 12.0431 3.4466C12.4277 4.2052 13.2468 4.89983 14.957 5.02038C15.3174 4.99773 15.7039 4.99753 16.1179 5.02188L16.0886 5.52054V5.52144L16.1179 6.02011C15.7039 6.04446 15.3174 6.04425 14.957 6.0216C13.2468 6.14215 12.4277 6.83679 12.0431 7.59539C11.5502 8.56752 11.6682 9.83199 11.9662 10.7258L11.0175 11.042C10.677 10.0204 10.4885 8.45027 11.1512 7.14318C11.3664 6.71873 11.6621 6.33862 12.0486 6.02076H0V5.02076H12.0481C11.6618 4.70299 11.3663 4.32306 11.1512 3.8988C10.4885 2.59172 10.677 1.02153 11.0175 0L11.9662 0.316228Z" fill="#555555"/>
</svg>
