<svg width="15" height="12" viewBox="0 0 15 12" fill="none" xmlns="http://www.w3.org/2000/svg">
<path id="Union" fill-rule="evenodd" clip-rule="evenodd" d="M11.2672 0.422242L10.0134 0L9.92994 0.220226C9.54862 1.22696 9.28744 2.80343 9.88996 4.17474C10.0771 4.60063 10.3457 5.00108 10.7112 5.35059H0V6.64942L10.7112 6.64941C10.3457 6.99892 10.0771 7.39937 9.88996 7.82526C9.28744 9.19658 9.54862 10.773 9.92994 11.7798L10.0134 12L11.2672 11.5778L11.1722 11.327C10.8525 10.4827 10.6928 9.28246 11.107 8.33977C11.3064 7.88592 11.6436 7.4771 12.1962 7.17411C12.7573 6.86646 13.5756 6.64941 14.758 6.64941H15L14.9999 5.35059H14.7579C13.5756 5.35059 12.7573 5.13354 12.1962 4.82589C11.6436 4.5229 11.3064 4.11408 11.107 3.66023C10.6928 2.71754 10.8525 1.51726 11.1722 0.673042L11.2672 0.422242Z" fill="#160B30"/>
</svg>
