<svg width="26" height="27" viewBox="0 0 26 27" fill="none" xmlns="http://www.w3.org/2000/svg">
<path id="Union" fill-rule="evenodd" clip-rule="evenodd" d="M8.03487 0.440019C8.13469 0.392734 8.25379 0.435388 8.30283 0.534358C9.24028 2.42597 10.9956 4.65739 13.2819 5.60427C14.4367 6.08252 15.7385 6.24 17.1879 5.85642C18.6117 5.47963 20.2349 4.56507 22.0248 2.81103C22.1037 2.73373 22.2304 2.73342 22.3085 2.81151L23.3104 3.81311C23.3885 3.89121 23.3882 4.01801 23.3109 4.0969C21.5568 5.88675 20.6421 7.51012 20.2654 8.93387C19.8818 10.3833 20.0393 11.685 20.5175 12.8398C21.4644 15.1262 23.6958 16.8815 25.5874 17.8189C25.6864 17.868 25.729 17.9871 25.6818 18.0869L25.0753 19.3672C25.028 19.467 24.909 19.5099 24.8099 19.461C22.6958 18.4192 20.0227 16.3928 18.8391 13.5349C18.3559 12.368 18.1257 11.0705 18.2825 9.67127C18.3045 9.47518 18.0586 9.34775 17.9191 9.48728L1.43108 25.9753C1.35297 26.0534 1.22634 26.0534 1.14824 25.9753L0.146521 24.9735C0.068416 24.8954 0.0684159 24.7688 0.146521 24.6907L16.6345 8.20273C16.774 8.0632 16.6466 7.81729 16.4505 7.83927C15.0513 7.99612 13.7538 7.76592 12.5868 7.28266C9.72902 6.09911 7.70262 3.42595 6.66076 1.31189C6.61193 1.21281 6.65478 1.09374 6.75461 1.04646L8.03487 0.440019Z" fill="#0A2213"/>
</svg>
