<svg width="22" height="11" viewBox="0 0 22 11" fill="none" xmlns="http://www.w3.org/2000/svg">
<path id="Union" fill-rule="evenodd" clip-rule="evenodd" d="M15.4321 10.6669C15.5775 10.8839 15.8039 11 16.0339 11C16.1853 11 16.3375 10.95 16.4681 10.8468L21.197 7.12279C21.7061 6.72192 21.9993 6.13877 22 5.52335C22.0015 4.90793 21.7113 4.32316 21.2037 3.91988L16.4703 0.155586C16.1378 -0.107358 15.6747 -0.0291206 15.4335 0.330612C15.1916 0.689539 15.2636 1.19445 15.5938 1.4574L19.6628 4.69334H0.74214C0.332268 4.69334 0 5.05446 0 5.49992C0 5.94538 0.332267 6.3065 0.74214 6.3065H19.7048L15.5976 9.5409C15.2651 9.80143 15.1916 10.3063 15.4321 10.6669Z" fill="#3A1811"/>
</svg>
