<svg width="20" height="20" viewBox="0 0 20 20" fill="none" xmlns="http://www.w3.org/2000/svg">
<g id="Group 8">
<g id="Iconly/Two-tone/Buy">
<g id="Buy">
<path id="Stroke-1" fill-rule="evenodd" clip-rule="evenodd" d="M5.48529 17.1224C5.89588 17.1224 6.22961 17.4561 6.22961 17.8667C6.22961 18.2773 5.89588 18.61 5.48529 18.61C5.0747 18.61 4.74194 18.2773 4.74194 17.8667C4.74194 17.4561 5.0747 17.1224 5.48529 17.1224Z" stroke="#2B1911" stroke-width="1.5" stroke-linecap="round" stroke-linejoin="round"/>
<path id="Stroke-3" fill-rule="evenodd" clip-rule="evenodd" d="M16.4334 17.1224C16.844 17.1224 17.1777 17.4561 17.1777 17.8667C17.1777 18.2773 16.844 18.61 16.4334 18.61C16.0228 18.61 15.6891 18.2773 15.6891 17.8667C15.6891 17.4561 16.0228 17.1224 16.4334 17.1224Z" stroke="#2B1911" stroke-width="1.5" stroke-linecap="round" stroke-linejoin="round"/>
<path id="Stroke-5" d="M0.939209 1L2.96298 1.35027L3.89995 12.5131C3.97584 13.4229 4.73573 14.1215 5.64838 14.1215H16.2654C17.1372 14.1215 17.8766 13.4812 18.0022 12.6172L18.9255 6.23652C19.0393 5.44939 18.4293 4.74496 17.6344 4.74496H3.28796" stroke="#2B1911" stroke-width="1.5" stroke-linecap="round" stroke-linejoin="round"/>
<path id="Stroke-7" d="M12.0073 8.34105H14.7054" stroke="#2B1911" stroke-width="1.5" stroke-linecap="round" stroke-linejoin="round"/>
</g>
</g>
</g>
</svg>
