<svg width="14" height="14" viewBox="0 0 14 14" fill="none" xmlns="http://www.w3.org/2000/svg">
<g id="Group 1045">
<path id="Vector" fill-rule="evenodd" clip-rule="evenodd" d="M13.0514 3.41167C13.0514 4.77559 11.9452 5.88174 10.5813 5.88174C9.21736 5.88174 8.11182 4.77559 8.11182 3.41167C8.11182 2.04774 9.21736 0.941589 10.5813 0.941589C11.9452 0.941589 13.0514 2.04774 13.0514 3.41167Z" stroke="#141414" stroke-linecap="round" stroke-linejoin="round"/>
<path id="Vector_2" fill-rule="evenodd" clip-rule="evenodd" d="M5.88828 3.41167C5.88828 4.77559 4.78273 5.88174 3.4182 5.88174C2.05488 5.88174 0.94873 4.77559 0.94873 3.41167C0.94873 2.04774 2.05488 0.941589 3.4182 0.941589C4.78273 0.941589 5.88828 2.04774 5.88828 3.41167Z" stroke="#141414" stroke-linecap="round" stroke-linejoin="round"/>
<path id="Vector_3" fill-rule="evenodd" clip-rule="evenodd" d="M13.0514 10.5305C13.0514 11.8945 11.9452 13 10.5813 13C9.21736 13 8.11182 11.8945 8.11182 10.5305C8.11182 9.1666 9.21736 8.06046 10.5813 8.06046C11.9452 8.06046 13.0514 9.1666 13.0514 10.5305Z" stroke="#141414" stroke-linecap="round" stroke-linejoin="round"/>
<path id="Vector_4" fill-rule="evenodd" clip-rule="evenodd" d="M5.88828 10.5305C5.88828 11.8945 4.78273 13 3.4182 13C2.05488 13 0.94873 11.8945 0.94873 10.5305C0.94873 9.1666 2.05488 8.06046 3.4182 8.06046C4.78273 8.06046 5.88828 9.1666 5.88828 10.5305Z" stroke="#141414" stroke-linecap="round" stroke-linejoin="round"/>
</g>
</svg>
