<svg width="13" height="12" viewBox="0 0 13 12" fill="none" xmlns="http://www.w3.org/2000/svg">
<path fill-rule="evenodd" clip-rule="evenodd" d="M9.73037 0.938977C8.71981 0.938977 7.9005 1.7585 7.9005 2.76923C7.9005 3.77996 8.71981 4.59948 9.73037 4.59948C10.7411 4.59948 11.5608 3.77981 11.5608 2.76923C11.5608 1.75865 10.7411 0.938977 9.73037 0.938977ZM6.96143 2.76923C6.96143 1.24022 8.20088 0 9.73037 0C11.2597 0 12.4999 1.24007 12.4999 2.76923C12.4999 4.29839 11.2597 5.53846 9.73037 5.53846C8.20088 5.53846 6.96143 4.29824 6.96143 2.76923Z" fill="#555555"/>
<path fill-rule="evenodd" clip-rule="evenodd" d="M3.26895 0.938977C2.2589 0.938977 1.43907 1.75857 1.43907 2.76923C1.43907 3.77989 2.2589 4.59948 3.26895 4.59948C4.28012 4.59948 5.09939 3.77989 5.09939 2.76923C5.09939 1.75857 4.28012 0.938977 3.26895 0.938977ZM0.5 2.76923C0.5 1.24014 1.74012 0 3.26895 0C4.7989 0 6.03846 1.24014 6.03846 2.76923C6.03846 4.29832 4.7989 5.53846 3.26895 5.53846C1.74012 5.53846 0.5 4.29832 0.5 2.76923Z" fill="#555555"/>
<path fill-rule="evenodd" clip-rule="evenodd" d="M9.73037 7.40062C8.71981 7.40062 7.9005 8.22024 7.9005 9.23106C7.9005 10.2418 8.71968 11.0609 9.73037 11.0609C10.7412 11.0609 11.5608 10.2416 11.5608 9.23106C11.5608 8.22037 10.7411 7.40062 9.73037 7.40062ZM6.96143 9.23106C6.96143 7.70194 8.20088 6.46155 9.73037 6.46155C11.2597 6.46155 12.4999 7.70175 12.4999 9.23106C12.4999 10.7606 11.2596 12 9.73037 12C8.20106 12 6.96143 10.7604 6.96143 9.23106Z" fill="#555555"/>
<path fill-rule="evenodd" clip-rule="evenodd" d="M3.26895 7.40062C2.2589 7.40062 1.43907 8.22031 1.43907 9.23106C1.43907 10.2417 2.25875 11.0609 3.26895 11.0609C4.28027 11.0609 5.09939 10.2417 5.09939 9.23106C5.09939 8.22031 4.28012 7.40062 3.26895 7.40062ZM0.5 9.23106C0.5 7.70181 1.74012 6.46155 3.26895 6.46155C4.7989 6.46155 6.03846 7.70181 6.03846 9.23106C6.03846 10.7605 4.79875 12 3.26895 12C1.74027 12 0.5 10.7605 0.5 9.23106Z" fill="#555555"/>
</svg>
