<svg width="9" height="9" viewBox="0 0 9 9" fill="none" xmlns="http://www.w3.org/2000/svg">
<g id="Icon">
<path id="Fill-1" d="M6.604 0H2.4C0.868 0 0 0.868 0 2.4V6.6C0 8.132 0.868 9 2.4 9H6.604C8.136 9 9 8.132 9 6.6V2.4C9 0.868 8.136 0 6.604 0Z" fill="#141414"/>
<path id="Fill-4" d="M2.41595 3.31592C2.21195 3.31592 2.04395 3.48392 2.04395 3.69192V6.78392C2.04395 6.98792 2.21195 7.15592 2.41595 7.15592C2.62395 7.15592 2.79195 6.98792 2.79195 6.78392V3.69192C2.79195 3.48392 2.62395 3.31592 2.41595 3.31592Z" fill="#48D378"/>
<path id="Fill-6" d="M4.5158 1.84009C4.3118 1.84009 4.1438 2.00809 4.1438 2.21609V6.78409C4.1438 6.98809 4.3118 7.15609 4.5158 7.15609C4.7238 7.15609 4.8918 6.98809 4.8918 6.78409V2.21609C4.8918 2.00809 4.7238 1.84009 4.5158 1.84009Z" fill="#48D378"/>
<path id="Fill-8" d="M6.58791 4.948C6.37991 4.948 6.21191 5.116 6.21191 5.324V6.784C6.21191 6.988 6.37991 7.156 6.58391 7.156C6.79191 7.156 6.95991 6.988 6.95991 6.784V5.324C6.95991 5.116 6.79191 4.948 6.58791 4.948Z" fill="#48D378"/>
</g>
</svg>
