<svg width="20" height="9" viewBox="0 0 20 9" fill="none" xmlns="http://www.w3.org/2000/svg">
<path d="M16.2421 4.10529C15.9441 4.27519 15.6514 4.45356 15.3473 4.61354C13.8585 5.39697 12.3675 6.17695 10.8745 6.95349C10.5685 7.11226 10.2402 7.23418 9.92995 7.38658C9.79755 7.4358 9.68681 7.52422 9.61527 7.63783C9.54373 7.75144 9.5155 7.88374 9.53503 8.01378C9.54983 8.10475 9.58833 8.19109 9.64727 8.26543C9.70621 8.33978 9.78382 8.39992 9.87351 8.44074C9.9632 8.48156 10.0623 8.50185 10.1623 8.49987C10.2624 8.49789 10.3605 8.4737 10.4482 8.42938C10.8625 8.27269 11.2662 8.09023 11.6662 7.90354C13.847 6.88657 16.0315 5.87607 18.1995 4.8364C18.6986 4.57973 19.1711 4.28165 19.6112 3.94586C20.0846 3.60463 20.1094 3.29275 19.7741 2.82973C19.7406 2.79233 19.7145 2.7498 19.6971 2.70409C19.646 2.49633 19.5208 2.31021 19.3416 2.17522C19.1623 2.04024 18.9391 1.96412 18.7074 1.95893C17.6376 1.81081 16.5604 1.70173 15.4971 1.52211C14.2604 1.31322 13.0347 1.04923 11.8061 0.801943C11.4195 0.724137 11.0392 0.620178 10.6547 0.533391C10.5778 0.507644 10.496 0.496593 10.4142 0.500912C10.3325 0.505232 10.2526 0.524833 10.1794 0.558515C10.1062 0.592196 10.0413 0.639251 9.98859 0.696798C9.93587 0.754345 9.89649 0.821175 9.87284 0.893197C9.85406 0.966464 9.85215 1.04253 9.86723 1.11652C9.88231 1.1905 9.91405 1.26078 9.96042 1.32282C10.0068 1.38487 10.0668 1.43733 10.1365 1.47682C10.2062 1.51632 10.2841 1.54199 10.3653 1.55217C11.4765 1.80197 12.588 2.05274 13.7058 2.27532C14.6254 2.45843 15.5544 2.60153 16.4791 2.76351C16.5414 2.77466 16.5975 2.80553 16.6375 2.85077C16.5529 2.86691 16.4689 2.88678 16.3837 2.89874C13.7137 3.27204 11.0404 3.61849 8.34096 3.76149C6.05877 3.90629 3.76786 3.89033 1.48832 3.71375C1.24312 3.69216 0.997862 3.66284 0.752253 3.65828C0.661998 3.64415 0.569504 3.64787 0.480937 3.66919C0.39237 3.69051 0.309765 3.72894 0.238629 3.78191C0.167494 3.83488 0.109462 3.90119 0.0684041 3.9764C0.0273457 4.05161 0.00420387 4.134 0.000521304 4.21808C-0.00316126 4.30216 0.0127 4.38599 0.0470479 4.46399C0.0813958 4.542 0.133441 4.61237 0.199713 4.67043C0.265986 4.72848 0.344963 4.77289 0.431379 4.80068C0.517795 4.82847 0.609665 4.83902 0.700863 4.8316C2.05361 4.8834 3.40686 4.95757 4.76007 4.96046C8.3493 4.92025 11.9305 4.63887 15.4751 4.11855C15.7236 4.08551 15.9735 4.06164 16.2227 4.03349L16.2421 4.10529Z" fill="white"/>
</svg>
