<svg width="16" height="16" viewBox="0 0 16 16" fill="none" xmlns="http://www.w3.org/2000/svg">
<path d="M8.00001 5.6C6.67409 5.6 5.6 6.67448 5.6 8C5.6 9.32584 6.67449 10.4 8.00001 10.4C9.32585 10.4 10.4 9.32552 10.4 8C10.4 6.67416 9.32553 5.6 8.00001 5.6ZM8.00001 4C10.2083 4 12 5.78968 12 8C12 10.2084 10.2103 12 8.00001 12C5.79162 12 4 10.2103 4 8C4 5.79162 5.78968 4 8.00001 4ZM13.2 3.79932C13.2 4.35141 12.7514 4.79934 12.2 4.79934C11.6479 4.79934 11.2 4.35072 11.2 3.79932C11.2 3.24792 11.6486 2.8 12.2 2.8C12.7506 2.7993 13.2 3.24792 13.2 3.79932ZM8.00001 1.6C6.02041 1.6 5.69775 1.60524 4.77703 1.64624C4.14973 1.67569 3.72924 1.76006 3.33854 1.91174C2.99134 2.04639 2.74089 2.20718 2.47403 2.47404C2.20615 2.74192 2.04565 2.9917 1.91153 3.33906C1.7595 3.73066 1.67516 4.15049 1.64624 4.77692C1.60484 5.66016 1.6 5.96884 1.6 8C1.6 9.9796 1.60524 10.3022 1.64623 11.2229C1.67569 11.8499 1.76017 12.271 1.91149 12.6608C2.04649 13.0085 2.20761 13.2595 2.47318 13.5251C2.74212 13.7937 2.99265 13.9547 3.33671 14.0875C3.73216 14.2404 4.1524 14.3249 4.77691 14.3538C5.66015 14.3951 5.96883 14.4 8.00001 14.4C9.97961 14.4 10.3022 14.3947 11.2229 14.3538C11.8486 14.3244 12.27 14.2397 12.6608 14.0885C13.0075 13.9538 13.2594 13.7922 13.5251 13.5268C13.7941 13.2574 13.9548 13.0075 14.0878 12.6626C14.2402 12.2686 14.3249 11.8478 14.3538 11.2231C14.3951 10.3398 14.4 10.0311 14.4 8C14.4 6.02042 14.3947 5.69777 14.3538 4.7771C14.3243 4.15125 14.2396 3.72919 14.0882 3.33854C13.9539 2.9923 13.7926 2.74108 13.5259 2.47404C13.2576 2.20572 13.0085 2.04554 12.6609 1.91154C12.2696 1.75963 11.8491 1.67517 11.223 1.64625C10.3398 1.60484 10.0311 1.6 8.00001 1.6ZM8.00001 0C10.1733 0 10.4446 0.00799995 11.298 0.048C12.1493 0.087336 12.73 0.222 13.24 0.42C13.7673 0.623336 14.2126 0.898 14.6573 1.34266C15.1013 1.78734 15.376 2.234 15.58 2.76C15.7773 3.26934 15.912 3.85066 15.952 4.702C15.99 5.55534 16 5.82666 16 8C16 10.1734 15.992 10.4446 15.952 11.298C15.9126 12.1494 15.7773 12.73 15.58 13.24C15.3766 13.7674 15.1013 14.2126 14.6573 14.6574C14.2126 15.1014 13.7653 15.376 13.24 15.58C12.73 15.7774 12.1493 15.912 11.298 15.952C10.4446 15.99 10.1733 16 8.00001 16C5.82666 16 5.55532 15.992 4.702 15.952C3.85066 15.9126 3.27066 15.7774 2.76 15.58C2.23333 15.3766 1.78733 15.1014 1.34266 14.6574C0.897999 14.2126 0.623999 13.7654 0.42 13.24C0.222 12.73 0.0880001 12.1494 0.0480001 11.298C0.0100001 10.4446 0 10.1734 0 8C0 5.82666 0.00800014 5.55534 0.0480001 4.702C0.0873281 3.85 0.222 3.27 0.42 2.76C0.623327 2.23334 0.897999 1.78734 1.34266 1.34266C1.78733 0.898 2.234 0.624 2.76 0.42C3.27 0.222 3.85 0.088 4.702 0.048C5.55532 0.00999996 5.82666 0 8.00001 0Z" fill="#999999"/>
</svg>
