<svg width="12" height="13" viewBox="0 0 12 13" fill="none" xmlns="http://www.w3.org/2000/svg">
<path d="M2.51839 1.93397C2.51815 2.47682 2.20712 2.96531 1.73194 3.16911C1.25677 3.37291 0.712341 3.25132 0.355384 2.86167C-0.00157401 2.47202 -0.0997772 1.89212 0.107074 1.39542C0.313932 0.898727 0.784536 0.584416 1.29698 0.600702C1.97761 0.622334 2.51869 1.21297 2.51839 1.93397ZM2.55616 4.25386H0.0378067V12.6001H2.55616V4.25386ZM6.53517 4.25386H4.0294V12.6001H6.50999V8.22031C6.50999 5.78043 9.51313 5.55377 9.51313 8.22031V12.6001H12V7.31369C12 3.20057 7.55511 3.3539 6.50999 5.37378L6.53517 4.25386Z" fill="#999999"/>
</svg>
