<svg width="12" height="9" viewBox="0 0 12 9" fill="none" xmlns="http://www.w3.org/2000/svg">
<path d="M3.81818 1.74295C2.31195 1.74295 1.09091 3.02214 1.09091 4.6001C1.09091 6.17804 2.31195 7.45724 3.81818 7.45724C5.3244 7.45724 6.54545 6.17804 6.54545 4.6001C6.54545 3.02214 5.3244 1.74295 3.81818 1.74295ZM3.81818 0.600098C5.136 0.600098 6.29787 1.29951 6.98405 2.36334C6.99016 2.35022 6.99627 2.33719 7.00244 2.32424C7.27822 1.74646 7.76007 1.17153 8.45455 1.17153C9.09878 1.17153 9.56007 1.66631 9.8436 2.19915C9.86482 2.1701 9.88686 2.14197 9.90976 2.11491C10.0671 1.92899 10.3114 1.74295 10.6364 1.74295C10.9613 1.74295 11.2057 1.92899 11.363 2.11491C11.5209 2.30151 11.6382 2.53891 11.7256 2.78321C11.902 3.27604 12 3.91855 12 4.6001C12 5.28164 11.902 5.92416 11.7256 6.41701C11.6382 6.6613 11.5209 6.89867 11.363 7.0853C11.2057 7.27118 10.9613 7.45724 10.6364 7.45724C10.3114 7.45724 10.0671 7.27118 9.90976 7.0853C9.88686 7.05821 9.86482 7.0301 9.8436 7.00101C9.56007 7.53387 9.09878 8.02867 8.45455 8.02867C7.76007 8.02867 7.27822 7.45376 7.00244 6.87593C6.99627 6.86301 6.99016 6.84998 6.98405 6.83684C6.29787 7.90067 5.136 8.6001 3.81818 8.6001C1.70946 8.6001 0 6.80924 0 4.6001C0 2.39096 1.70946 0.600098 3.81818 0.600098ZM10.3636 4.6001C10.3636 5.12187 10.4071 5.7049 10.6364 6.17964C10.8656 5.7049 10.9091 5.12187 10.9091 4.6001C10.9091 4.07833 10.8656 3.4953 10.6364 3.02058C10.4071 3.4953 10.3636 4.07833 10.3636 4.6001ZM9.27273 4.6001C9.27273 4.16587 9.15644 2.31438 8.45455 2.31438C7.75266 2.31438 7.63636 4.16587 7.63636 4.6001C7.63636 5.03433 7.75266 6.88581 8.45455 6.88581C9.15644 6.88581 9.27273 5.03433 9.27273 4.6001Z" fill="#999999"/>
</svg>
