<svg width="17" height="16" viewBox="0 0 17 16" fill="" xmlns="http://www.w3.org/2000/svg">
<path d="M3.56771 1.7785C3.56738 2.50229 3.12675 3.15362 2.45358 3.42535C1.78042 3.69709 1.00915 3.53496 0.50346 3.01543C-0.00222984 2.49589 -0.141351 1.72269 0.151688 1.06043C0.444737 0.398173 1.11143 -0.0209092 1.83739 0.000805252C2.80162 0.0296483 3.56815 0.817157 3.56771 1.7785ZM3.62123 4.87168H0.0535595V16H3.62123V4.87168ZM9.25816 4.87168H5.70831V16H9.22248V10.1603C9.22248 6.90711 13.4769 6.6049 13.4769 10.1603V16H17V8.95145C17 3.4673 10.7031 3.67174 9.22248 6.36491L9.25816 4.87168Z" fill=""/>
</svg>
