<svg width="14" height="16" viewBox="0 0 14 16" fill="" xmlns="http://www.w3.org/2000/svg">
<path d="M7.107 0H7.10601C4.73627 0.0161813 2.90477 0.803096 1.67344 2.346C0.579123 3.71724 0.0188226 5.63111 0 8.005V8.00606C0.0188226 10.3801 0.579161 12.2828 1.67344 13.654C2.90483 15.1969 4.74581 15.9838 7.11551 16H7.11643C9.22262 15.9856 10.7162 15.4411 11.9468 14.2294C13.5599 12.6408 13.512 10.6475 12.9792 9.42249C12.5735 8.49036 11.7723 7.74438 10.6988 7.28047C10.5601 5.02608 9.27298 3.71038 7.15766 3.69706C5.90806 3.68946 4.78056 4.24069 4.08999 5.27355L5.35877 6.13146C5.7672 5.52068 6.41373 5.22605 7.14808 5.23274C8.2113 5.23942 8.91009 5.81764 9.10621 6.83205C8.51448 6.74079 7.87853 6.71428 7.20211 6.7525C5.17948 6.86733 3.85475 8.04594 3.94308 9.68024C4.03547 11.3889 5.71485 12.3199 7.30941 12.234C9.21948 12.1308 10.3545 10.7415 10.6237 8.96953C11.066 9.25199 11.3924 9.61225 11.5772 10.0372C11.9141 10.8117 11.9355 12.0891 10.8754 13.1331C9.94288 14.0514 8.82188 14.4517 7.11129 14.4642C5.21462 14.4503 3.7912 13.8514 2.86736 12.6938C1.99995 11.6069 1.54678 10.0306 1.5298 8.00002C1.54678 5.96936 1.99995 4.39306 2.86736 3.30618C3.7912 2.14857 5.21458 1.54969 7.11122 1.53569C9.02175 1.54979 10.4709 2.15162 11.4309 3.31573C11.9603 3.95782 12.292 4.72538 12.5134 5.51758L14 5.12664C13.722 4.11634 13.2825 3.15282 12.6093 2.33646C11.3423 0.800013 9.48136 0.0162417 7.107 0ZM7.28856 8.28557C7.96605 8.24704 8.59411 8.28949 9.15219 8.40364C9.04436 9.59503 8.54429 10.6292 7.22702 10.7005C6.37487 10.7478 5.5126 10.3729 5.47068 9.59684C5.43949 9.01992 5.87242 8.36602 7.28856 8.28557Z" fill=""/>
</svg>
