<svg width="27" height="32" viewBox="0 0 27 32" fill="none" xmlns="http://www.w3.org/2000/svg">
<path d="M6.64776 1.76333C10.7604 -0.626307 15.8156 -0.58454 19.8897 1.87274C23.9237 4.38007 26.3755 8.85492 26.3528 13.6686C26.2587 18.4507 23.6297 22.9459 20.3435 26.4209C18.4467 28.4356 16.3249 30.2171 14.0214 31.729C13.7841 31.8662 13.5242 31.958 13.2546 32C12.995 31.9889 12.7422 31.9123 12.5191 31.7768C9.00221 29.5051 5.91686 26.6052 3.41145 23.2169C1.31499 20.3885 0.123924 16.9713 0 13.4295L0.00938583 12.9142C0.180559 8.2911 2.68197 4.06763 6.64776 1.76333ZM14.8843 9.47722C13.2124 8.76656 11.2848 9.15266 10.0015 10.4552C8.71829 11.7578 8.3325 13.72 9.02431 15.4255C9.71611 17.131 11.349 18.2435 13.1607 18.2435C14.3475 18.252 15.4884 17.7766 16.3291 16.9232C17.1698 16.0699 17.6404 14.9094 17.6363 13.7005C17.6426 11.8551 16.5562 10.1879 14.8843 9.47722Z" fill="#FF6B2C"/>
</svg>
