<svg width="17" height="13" viewBox="0 0 17 13" fill="none" xmlns="http://www.w3.org/2000/svg">
<path d="M16.3462 0H0.653846C0.480435 0 0.314127 0.0684821 0.191507 0.190381C0.0688871 0.312279 0 0.477609 0 0.65V11.7C0 12.0448 0.137774 12.3754 0.383014 12.6192C0.628254 12.863 0.960871 13 1.30769 13H15.6923C16.0391 13 16.3717 12.863 16.617 12.6192C16.8622 12.3754 17 12.0448 17 11.7V0.65C17 0.477609 16.9311 0.312279 16.8085 0.190381C16.6859 0.0684821 16.5196 0 16.3462 0ZM14.665 1.3L8.5 6.91844L2.33505 1.3H14.665ZM15.6923 11.7H1.30769V2.12794L8.05784 8.27937C8.17846 8.38946 8.33625 8.45054 8.5 8.45054C8.66375 8.45054 8.82154 8.38946 8.94216 8.27937L15.6923 2.12794V11.7Z" fill="#999999"/>
</svg>
