<svg width="30" height="27" viewBox="0 0 30 27" fill="none" xmlns="http://www.w3.org/2000/svg">
<path d="M29.999 19.4101C29.999 23.595 26.6391 26.9849 22.4543 26.9999H22.4393H7.57475C3.40489 26.9999 0 23.625 0 19.4401V19.4251C0 19.4251 0.0089997 12.7864 0.0209993 9.44746C0.0224993 8.82048 0.742475 8.4695 1.23296 8.85948C4.79684 11.6869 11.1701 16.8422 11.2496 16.9097C12.3146 17.7632 13.6645 18.2447 15.0445 18.2447C16.4245 18.2447 17.7744 17.7632 18.8394 16.8932C18.9189 16.8407 25.1497 11.8399 28.7675 8.96598C29.2595 8.57449 29.9825 8.92548 29.984 9.55096C29.999 12.8643 29.999 19.4101 29.999 19.4101Z" fill="#FF6B2C"/>
<path d="M29.2143 4.01087C27.9154 1.56295 25.3595 0 22.5456 0H7.57606C4.76216 0 2.20624 1.56295 0.907285 4.01087C0.616295 4.55835 0.75429 5.24083 1.23877 5.62781L12.3759 14.536C13.1559 15.166 14.1008 15.4795 15.0458 15.4795C15.0518 15.4795 15.0563 15.4795 15.0608 15.4795C15.0653 15.4795 15.0713 15.4795 15.0758 15.4795C16.0208 15.4795 16.9657 15.166 17.7457 14.536L28.8829 5.62781C29.3673 5.24083 29.5053 4.55835 29.2143 4.01087Z" fill="#FF6B2C"/>
</svg>
