<svg width="104" height="63" viewBox="0 0 104 63" fill="none" xmlns="http://www.w3.org/2000/svg">
<g clip-path="url(#clip0_536_451)">
<path d="M104 53.5558C104.011 53.7356 103.837 53.8866 103.664 53.8866C96.9537 53.9477 90.2288 54.0232 83.5183 53.865C83.4786 53.865 83.4461 53.8542 83.4136 53.8435C83.0165 58.3193 78.9123 62.4968 74.3676 62.7197C69.5522 62.9534 65.8306 58.5602 66.0003 53.9513C56.7016 54.5229 47.1935 54.1778 37.8768 54.052C37.7505 58.5566 34.1588 62.6226 29.5744 62.9713C23.9433 63.3956 21.3984 59.0779 21.4959 54.6559C21.5897 50.3059 24.2465 45.8588 29.0222 45.7402C29.0655 45.6611 29.1413 45.5964 29.2604 45.5856C33.9278 45.2225 37.7866 49.0548 37.884 53.6277C47.2044 53.4013 56.716 52.9519 66.0255 53.4228C66.3937 49.9823 70.4258 43.256 74.6095 45.7474C74.6528 45.7725 74.6708 45.8085 74.6744 45.848C78.9556 45.8013 83.4714 48.6953 83.4389 53.2467C83.4641 53.2395 83.4894 53.2323 83.5183 53.2323C89.1747 53.2107 94.8276 53.2862 100.484 53.2503C101.192 53.2467 101.899 53.2395 102.607 53.2359C103.303 52.844 103.495 52.2796 103.184 51.5318C103.354 50.0686 102.848 47.9907 102.639 46.5778C102.249 43.9103 101.682 41.2607 100.82 38.7046C100.033 36.3858 98.8957 34.1137 97.4771 32.0465C95.8816 34.9873 91.7124 35.5769 89.2 33.2976C87.2616 31.5396 85.3412 25.5862 88.7019 24.2956C84.8322 22.498 80.4031 22.1781 75.7971 24.2417C75.7971 24.2848 75.7971 24.3243 75.7898 24.3675C75.761 24.7773 75.1257 24.7845 75.1473 24.3675C75.9234 9.69241 62.1775 -0.12573 48.3523 0.708326C34.249 1.56036 22.8098 12.9819 23.7483 27.3226C23.7664 27.6066 23.3693 27.6102 23.3007 27.3658L23.2646 27.0566C21.8388 12.4858 34.3068 0.906055 48.3523 0.0504287C62.1234 -0.790817 76.4757 9.07405 75.8151 23.7419C82.7602 20.2979 90.8677 23.0948 95.8491 28.6348C101.971 35.4403 103.393 44.7659 104 53.5558ZM97.0945 31.4965C94.9142 28.4802 92.1203 25.9493 88.9401 24.4142C85.731 25.899 87.9077 31.4929 89.8064 33.0208C92.1022 34.8723 95.8491 34.2899 97.0945 31.4965ZM76.1472 61.7778C79.8725 60.6597 83.114 56.7231 82.836 52.729C82.5184 48.1093 77.7571 46.5814 73.8695 46.3693C73.5554 46.3513 73.5662 45.9199 73.8695 45.8912C73.9633 45.8804 74.0572 45.8768 74.151 45.8696C71.4834 44.8306 68.7473 48.0554 67.6499 50.0866C66.6681 51.9057 66.2782 54.1886 66.8088 56.2054C67.8881 60.3146 71.9563 63.0324 76.1472 61.7778ZM29.9462 62.2631C34.1263 61.767 37.2668 57.8627 37.2379 53.732C37.209 49.2669 33.574 46.1967 29.2604 46.1716C29.1629 46.1716 29.0943 46.1356 29.0474 46.0817C19.9292 47.2681 19.3589 63.525 29.9462 62.2631Z" fill="#1D1D1B"/>
<path d="M103.184 51.5315C103.495 52.2793 103.303 52.8437 102.607 53.2356C101.899 53.2392 101.192 53.2464 100.484 53.25C94.8276 53.2859 89.1748 53.2104 83.5183 53.232C83.4895 53.232 83.4642 53.2392 83.4389 53.2464C83.4714 48.695 78.9556 45.801 74.6745 45.8477C74.6745 45.8082 74.6528 45.7722 74.6095 45.7471C70.4258 43.2557 66.3938 49.9821 66.0256 53.4225C56.7161 52.9516 47.2044 53.401 37.8841 53.6274C37.7866 49.0545 33.9278 45.2222 29.2605 45.5853C29.1413 45.5961 29.0655 45.6608 29.0222 45.7399C24.2465 45.8585 21.5898 50.3056 21.4959 54.6556H21.3515C21.3515 54.5334 21.2757 54.4076 21.135 54.4256C15.8936 55.1014 10.6306 55.6299 5.34598 55.8204C4.66013 55.8456 2.81195 56.144 2.17302 55.8995C0.3465 55.2129 0.711083 52.5993 0.667766 51.0426C0.595571 48.4398 0.862692 45.8297 1.47274 43.3024C2.02142 41.0303 2.89497 38.7978 4.04648 36.745C4.74676 36.9895 6.021 37.3669 6.0571 37.3741C6.83319 37.5107 7.62011 37.5503 8.39981 37.4604C9.97366 37.2879 11.5583 36.5976 12.5149 35.2962C13.9696 33.3117 13.7891 30.2164 11.7677 28.7532C14.9876 26.9916 18.7778 26.366 22.9543 27.5308C23.1275 27.5812 23.2466 27.4877 23.3008 27.3655C23.3694 27.6099 23.7664 27.6063 23.7484 27.3223C22.8099 12.9816 34.2491 1.56006 48.3523 0.708024C62.1776 -0.126032 75.9235 9.6921 75.1474 24.3672C75.1257 24.7842 75.761 24.777 75.7899 24.3672C75.7899 24.324 75.7899 24.2845 75.7971 24.2414C80.4032 22.1778 84.8323 22.4977 88.7019 24.2953C85.3413 25.5859 87.2616 31.5393 89.2001 33.2973C91.7124 35.5766 95.8817 34.987 97.4772 32.0462C98.8958 34.1134 100.033 36.3855 100.82 38.7043C101.683 41.2604 102.249 43.91 102.639 46.5775C102.848 47.9904 103.354 50.0683 103.184 51.5315ZM72.1477 25.5392C73.2631 20.1322 69.8122 15.2573 66.0797 11.7125C62.5639 8.37271 58.2286 4.41814 53.0017 5.29174C52.9259 5.30252 52.8753 5.33847 52.8392 5.38161C52.8212 5.38161 52.7995 5.38521 52.7815 5.38521C52.6551 5.3924 52.5324 5.39599 52.4061 5.40318C52.3988 5.32409 52.3988 5.24141 52.3916 5.16232C52.3772 4.89268 51.9585 4.88549 51.9657 5.16232C51.9657 5.2486 51.9657 5.33488 51.9729 5.41757C51.9657 5.41757 51.9621 5.42116 51.9548 5.42116C51.8177 5.42116 51.8177 5.63327 51.9548 5.63686H51.9765C52.0704 9.8395 52.24 14.0385 52.3952 18.2412C52.471 20.3299 52.2039 22.735 52.6407 24.777C52.7418 25.2552 52.684 25.5284 53.0594 25.9131C53.6983 26.5566 55.5646 26.1647 56.2252 26.1647C58.4018 26.1647 60.5749 26.1683 62.7516 26.1683C64.7441 26.1719 66.7403 26.1719 68.7329 26.1755C69.8411 26.1755 70.6533 26.3445 71.4871 25.629C71.5413 25.5823 71.5774 25.496 71.5774 25.4205L71.7362 25.4277C71.7362 25.4277 71.7362 25.4673 71.7362 25.4852C71.7253 25.7189 72.1044 25.7729 72.1513 25.5392H72.1477ZM60.1489 31.809C60.4016 31.7802 60.4594 31.4531 60.2067 31.3632C59.6472 31.1583 59.0083 31.1583 58.4163 31.0971C57.7521 31.0252 57.0662 30.8922 56.3984 30.9426C56.1963 30.9605 56.1494 31.2374 56.3515 31.3057C56.9832 31.5106 57.6871 31.5465 58.3441 31.6364C58.9361 31.7191 59.5533 31.8701 60.1489 31.809ZM48.5834 25.9562C48.7566 25.9598 48.9191 25.8052 48.9118 25.6255C48.7241 18.5575 48.4101 11.4681 47.7206 4.42533C47.6809 4.03346 47.0673 4.02268 47.0961 4.42533C47.0961 4.48285 47.1034 4.54396 47.107 4.60148L46.9879 4.60867C46.9879 4.49723 46.9157 4.38938 46.7857 4.40376C35.9024 5.79505 27.3545 16.4616 29.1991 27.4374C29.1991 27.4446 29.2063 27.4482 29.2063 27.4553C29.1377 27.4769 29.0655 27.4949 28.9969 27.5165C28.8056 27.574 28.8309 27.9047 29.0475 27.8796L30.0546 27.7609C30.1015 27.7537 30.1268 27.671 30.0654 27.6639C31.1195 27.8256 32.5958 27.2253 33.6932 27.0419C35.5414 26.7291 37.4004 26.4811 39.263 26.3013C42.3638 26.0029 45.4682 25.9059 48.5834 25.9562ZM45.6811 32.2727C45.8869 32.1936 45.8869 31.8269 45.6234 31.8521C44.8148 31.9276 44.0387 32.1505 43.2229 32.2116C42.4107 32.2763 41.6021 32.2476 40.7899 32.2188C40.6167 32.2152 40.5698 32.4992 40.7502 32.5316C42.2772 32.8048 44.2156 32.8515 45.6811 32.2727Z" fill="#E94B59"/>
<path d="M88.9397 24.4141C92.1199 25.9492 94.9139 28.4801 97.0941 31.4963C95.8488 34.2897 92.1019 34.8721 89.8061 33.0207C87.9074 31.4928 85.7307 25.8988 88.9397 24.4141Z" fill="#33B3E2"/>
<path d="M82.8365 52.729C83.1144 56.7231 79.8729 60.6597 76.1476 61.7778C71.9567 63.0324 67.8886 60.3146 66.8093 56.2054C66.2786 54.1886 66.6685 51.9057 67.6503 50.0866C68.7477 48.0554 71.4839 44.8306 74.1514 45.8696C74.0576 45.8768 73.9637 45.8804 73.8699 45.8912C73.5667 45.9199 73.5558 46.3513 73.8699 46.3693C77.7576 46.5814 82.5188 48.1093 82.8365 52.729Z" fill="#33B3E2"/>
<path d="M66.0802 11.7127C69.8126 15.2574 73.2635 20.1323 72.1481 25.5393C72.1012 25.773 71.7222 25.7191 71.733 25.4854C71.733 25.4674 71.733 25.4458 71.733 25.4279C71.9857 20.1611 69.6466 16.113 65.9538 12.5C62.6185 9.24285 58.229 5.07976 53.1682 5.90303C52.9769 5.93539 52.8433 5.81316 52.7928 5.67295L52.7783 5.38534C52.7783 5.38534 52.818 5.38175 52.8361 5.38175C52.8722 5.33861 52.9227 5.30266 52.9985 5.29187C58.2254 4.41827 62.5607 8.37285 66.0766 11.7127H66.0802Z" fill="#1D1D1B"/>
<path d="M65.9571 12.5C69.6499 16.113 71.989 20.1611 71.7363 25.4278L71.5774 25.4207C71.5774 25.3919 71.5775 25.3631 71.563 25.338L71.4403 25C71.3536 24.752 70.9313 24.7663 70.9494 25.0647C70.9999 25.8197 61.8853 25.5645 61.1201 25.5645H56.7703C54.738 25.5645 53.5685 25.9491 53.2003 23.6878C52.7419 20.8909 52.9657 17.8063 52.8429 14.9698C52.713 11.8636 52.5903 8.75751 52.417 5.65137L52.796 5.67294C52.8465 5.81315 52.9801 5.93538 53.1714 5.90302C58.2323 5.07975 62.6217 9.24284 65.9571 12.5Z" fill="#33B3E2"/>
<path d="M71.5625 25.338C71.5733 25.3631 71.5769 25.3919 71.5769 25.4207C71.5769 25.4962 71.5408 25.5824 71.4867 25.6292C70.6529 26.3446 69.8407 26.1756 68.7325 26.1756C66.7399 26.172 64.7437 26.172 62.7512 26.1684C60.5745 26.1684 58.4014 26.1648 56.2248 26.1648C55.5642 26.1648 53.6979 26.5567 53.059 25.9132C52.6836 25.5285 52.7414 25.2553 52.6403 24.7771C52.2035 22.7351 52.4706 20.33 52.3948 18.2413C52.2396 14.0387 52.07 9.83963 51.9761 5.637H51.9544C51.8173 5.6334 51.8173 5.42129 51.9544 5.42129C51.9617 5.42129 51.9653 5.4177 51.9725 5.4177C51.9725 5.33501 51.9653 5.24873 51.9653 5.16245C51.9581 4.88563 52.3768 4.89282 52.3912 5.16245C52.3984 5.24154 52.3984 5.32423 52.4057 5.40332C52.532 5.39613 52.6547 5.39253 52.7811 5.38534L52.7955 5.67295L52.4165 5.65138C52.5898 8.75752 52.7125 11.8637 52.8424 14.9698C52.9652 17.8063 52.7414 20.8909 53.1998 23.6878C53.568 25.9491 54.7375 25.5645 56.7698 25.5645H61.1196C61.8848 25.5645 70.9994 25.8197 70.9489 25.0648C70.9308 24.7664 71.3531 24.752 71.4398 25L71.5625 25.338Z" fill="#1D1D1B"/>
<path d="M60.207 31.3634C60.4597 31.4532 60.402 31.7804 60.1493 31.8092C59.5537 31.8703 58.9364 31.7193 58.3444 31.6366C57.6875 31.5467 56.9836 31.5108 56.3518 31.3058C56.1497 31.2375 56.1966 30.9607 56.3988 30.9427C57.0666 30.8924 57.7524 31.0254 58.4166 31.0973C59.0086 31.1584 59.6475 31.1584 60.207 31.3634Z" fill="#1D1D1B"/>
<path d="M48.9121 25.6255C48.9193 25.8053 48.7569 25.9599 48.5836 25.9563C45.4684 25.9059 42.364 26.003 39.2633 26.3014C37.4006 26.4811 35.5416 26.7292 33.6934 27.042C32.5961 27.2253 31.1197 27.8257 30.0657 27.6639C30.127 27.6711 30.1018 27.7538 30.0548 27.761L29.0477 27.8796C28.8311 27.9048 28.8059 27.5741 28.9972 27.5165C29.0658 27.495 29.138 27.477 29.2065 27.4554C29.2065 27.4482 29.1993 27.4446 29.1993 27.4374C27.3547 16.4617 35.9026 5.79512 46.7859 4.40383C46.9159 4.38945 46.9881 4.4973 46.9881 4.60874C46.9881 4.69862 46.9412 4.7849 46.8401 4.80647C35.6319 7.1181 29.2065 16.1166 29.683 27.3188C32.4661 26.5387 35.3684 26.1109 38.2345 25.7801C39.9491 25.5788 41.6746 25.4422 43.4 25.3631C44.6237 25.3056 47.0603 25.7693 47.8833 24.9245C48.6738 24.1084 48.0999 20.9196 48.053 19.7907C47.988 18.1981 47.9122 16.6091 47.8219 15.0165C47.6306 11.54 47.3527 8.07439 47.1072 4.60155C47.1072 4.54403 47.1 4.48292 47.0964 4.4254C47.0675 4.02275 47.6812 4.03353 47.7209 4.4254C48.4103 11.4681 48.7244 18.5576 48.9121 25.6255Z" fill="#1D1D1B"/>
<path d="M48.0529 19.7907C48.0998 20.9196 48.6738 24.1084 47.8832 24.9245C47.0602 25.7693 44.6236 25.3056 43.3999 25.3631C41.6745 25.4422 39.949 25.5788 38.2344 25.7801C35.3683 26.1109 32.4661 26.5387 29.683 27.3188C29.2065 16.1166 35.6318 7.11811 46.84 4.80648C46.9411 4.78491 46.988 4.69863 46.988 4.60875L47.1071 4.60156C47.3526 8.0744 47.6306 11.54 47.8219 15.0165C47.9121 16.6091 47.9879 18.1981 48.0529 19.7907ZM46.4105 8.49862C46.4213 8.46986 46.3816 8.44469 46.3671 8.47345C46.23 8.71073 46.1145 8.96238 45.9917 9.21044C45.9737 9.2428 46.0242 9.27515 46.0423 9.2392C46.165 8.99474 46.2986 8.75027 46.4105 8.49862Z" fill="#33B3E2"/>
<path d="M46.3665 8.47364C46.381 8.44488 46.4207 8.47004 46.4099 8.4988C46.298 8.75046 46.1644 8.99492 46.0417 9.23939C46.0236 9.27534 45.9731 9.24298 45.9911 9.21063C46.1139 8.96257 46.2294 8.71091 46.3665 8.47364Z" fill="#1D1D1B"/>
<path d="M45.6237 31.8523C45.8872 31.8271 45.8872 32.1938 45.6814 32.2729C44.2159 32.8517 42.2774 32.805 40.7505 32.5318C40.57 32.4994 40.617 32.2154 40.7902 32.219C41.6024 32.2478 42.411 32.2765 43.2232 32.2118C44.039 32.1507 44.8151 31.9278 45.6237 31.8523Z" fill="#1D1D1B"/>
<path d="M37.2376 53.7319C37.2665 57.8626 34.126 61.7668 29.9459 62.263C19.3586 63.5248 19.9289 47.2679 29.0471 46.0815C29.094 46.1355 29.1626 46.1714 29.2601 46.1714C33.5737 46.1966 37.2087 49.2668 37.2376 53.7319Z" fill="#33B3E2"/>
<path d="M23.2647 27.0566L23.3008 27.3657C23.2466 27.488 23.1275 27.5814 22.9542 27.5311C18.7778 26.3663 14.9875 26.9919 11.7677 28.7534C13.7891 30.2166 13.9696 33.312 12.5149 35.2965C11.5583 36.5979 9.97363 37.2881 8.39978 37.4607C7.62008 37.5506 6.83316 37.511 6.05707 37.3744C6.02097 37.3672 4.74673 36.9897 4.04645 36.7453C2.89494 38.7981 2.02139 41.0306 1.47271 43.3027C0.862662 45.83 0.595542 48.44 0.667736 51.0429C0.711053 52.5995 0.34647 55.2132 2.17299 55.8998C2.81192 56.1443 4.6601 55.8459 5.34595 55.8207C10.6306 55.6302 15.8936 55.1017 21.1349 54.4258C21.2757 54.4079 21.3515 54.5337 21.3515 54.6523C21.3515 54.7494 21.3046 54.8429 21.1963 54.8608C17.6912 55.4648 14.1717 55.8998 10.627 56.1766C8.86905 56.3132 7.1075 56.4139 5.34595 56.4786C4.23776 56.5218 2.64948 56.8669 1.57739 56.5253C0.0215941 56.0292 0.194861 53.8542 0.090179 52.5204C-0.144454 49.5365 0.0757401 46.5275 0.729102 43.6083C1.2489 41.2823 2.15495 38.9095 3.37865 36.6878C3.35338 36.6518 3.34255 36.6015 3.32811 36.5044C3.32089 36.4469 3.33533 36.3966 3.38586 36.3642C3.45806 36.3175 3.53386 36.2887 3.60967 36.2671C7.59481 29.3215 14.7313 24.0475 23.1167 26.9451C23.1852 26.9703 23.2322 27.0098 23.2647 27.0566ZM10.4465 36.2671C13.0852 34.883 13.8938 30.7954 11.1721 29.0914C8.38173 30.7739 6.04985 33.3192 4.30996 36.2743C4.70342 36.3786 5.10049 36.5907 5.48673 36.6842C7.11111 37.0868 8.93763 37.058 10.4465 36.2671Z" fill="#1D1D1B"/>
<path d="M11.1717 29.0913C13.8934 30.7954 13.0848 34.883 10.4461 36.2671C8.93725 37.058 7.11072 37.0867 5.48634 36.6841C5.1001 36.5906 4.70303 36.3785 4.30957 36.2743C6.04946 33.3191 8.38135 30.7738 11.1717 29.0913Z" fill="#33B3E2"/>
</g>
<defs>
<clipPath id="clip0_536_451">
<rect width="104" height="63" fill="white"/>
</clipPath>
</defs>
</svg>
