<svg width="31" height="30" viewBox="0 0 31 30" fill="none" xmlns="http://www.w3.org/2000/svg">
<path fill-rule="evenodd" clip-rule="evenodd" d="M20.2586 17.7044C18.7981 18.4156 17.5337 19.0332 14.2454 15.7449C10.9585 12.4565 11.5732 11.1936 12.2859 9.73165C13.3176 7.61261 13.7347 5.68527 9.04876 1.82621C7.92923 0.91157 6.71459 0.560347 5.4458 0.806203C2.76333 1.30816 0.868193 4.29355 0.87112 4.29355C-0.317184 5.95601 -1.94452 10.9551 8.54387 21.4449C15.4425 28.345 19.9674 30.0001 22.7128 30.0001C24.1411 30.0001 25.088 29.5523 25.6353 29.1586C25.6645 29.1411 28.6763 27.2752 29.1856 24.5401C29.4226 23.2683 29.0773 22.0581 28.1612 20.9386C24.3036 16.2571 22.3762 16.6727 20.2586 17.7044Z" fill="#FF6B2C"/>
<path fill-rule="evenodd" clip-rule="evenodd" d="M18.9198 0.00850781C18.3154 -0.0675905 17.7739 0.375829 17.708 0.977298C17.6407 1.58023 18.0754 2.1217 18.6768 2.18902C23.6188 2.7378 27.4559 6.57198 28.0106 11.5125C28.0735 12.073 28.5477 12.4872 29.0994 12.4872C29.1403 12.4872 29.1828 12.4842 29.2238 12.4798C29.8252 12.414 30.2584 11.8696 30.1911 11.2667C29.5223 5.30173 24.8876 0.671441 18.9198 0.00850781Z" fill="#FF6B2C"/>
<path fill-rule="evenodd" clip-rule="evenodd" d="M22.8415 11.6159C22.944 12.1398 23.4035 12.5028 23.9172 12.5028C23.9874 12.5028 24.0577 12.4969 24.1294 12.4837C24.7235 12.3681 25.1128 11.7901 24.9972 11.1959C24.4016 8.14907 22.0498 5.79734 19.0059 5.20612C18.4249 5.09051 17.8352 5.47978 17.7195 6.07539C17.6039 6.66955 17.9932 7.24614 18.5888 7.36175C20.7488 7.78175 22.4201 9.45152 22.8415 11.6159Z" fill="#FF6B2C"/>
</svg>
