<svg width="16" height="16" viewBox="0 0 16 16" fill="none" xmlns="http://www.w3.org/2000/svg">
<path d="M5.65828 6.82853C6.49067 8.29227 7.70773 9.50933 9.17147 10.3417L9.95769 9.24098C10.2191 8.87511 10.7125 8.76204 11.1072 8.9776C12.3577 9.66071 13.7396 10.0758 15.1812 10.19C15.6436 10.2266 16 10.6124 16 11.0761V15.043C16 15.4988 15.6553 15.8806 15.202 15.9272C14.7309 15.9756 14.2557 16 13.7778 16C6.16852 16 0 9.83147 0 2.22222C0 1.74424 0.0243734 1.26908 0.0727912 0.798009C0.119378 0.344667 0.50128 0 0.957022 0H4.92393C5.38764 0 5.77345 0.35648 5.81004 0.818747C5.92415 2.26034 6.33929 3.64235 7.0224 4.89284C7.23796 5.28747 7.12489 5.78092 6.75902 6.04228L5.65828 6.82853ZM3.41711 6.24462L5.10596 5.0383C4.62708 4.00457 4.29892 2.90829 4.13091 1.77778H1.78584C1.78047 1.92562 1.77778 2.07378 1.77778 2.22222C1.77778 8.8496 7.1504 14.2222 13.7778 14.2222C13.9262 14.2222 14.0744 14.2196 14.2222 14.2141V11.8691C13.0917 11.7011 11.9955 11.3729 10.9617 10.894L9.75538 12.5829C9.26738 12.3933 8.79609 12.1702 8.34436 11.9165L8.29271 11.8871C6.55084 10.8966 5.10341 9.44916 4.11289 7.70729L4.0835 7.65564C3.82977 7.20391 3.6067 6.73262 3.41711 6.24462Z" fill="#999999"/>
</svg>
