<svg width="13" height="15" viewBox="0 0 13 15" fill="none" xmlns="http://www.w3.org/2000/svg">
<path id="Icon" d="M0.439756 0L7.79283 7.5L0.440478 15C0.309736 14.944 0.198164 14.8497 0.11979 14.7292C0.0414158 14.6087 -0.000260508 14.4672 1.22526e-06 14.3226V0.6774C5.6573e-05 0.532953 0.0417778 0.391713 0.119971 0.271264C0.198163 0.150815 0.309374 0.0564789 0.439756 0ZM8.30334 8.02057L9.9656 9.71554L2.06807 14.3786L8.30334 8.02057ZM10.6133 5.66586L12.6402 6.8631C12.7497 6.92782 12.8405 7.02072 12.9036 7.1325C12.9668 7.24428 13 7.37101 13 7.5C13 7.62899 12.9668 7.75572 12.9036 7.8675C12.8405 7.97928 12.7497 8.07218 12.6402 8.1369L10.6126 9.33414L8.81386 7.5L10.6133 5.66586ZM2.06807 0.621441L9.96632 5.28372L8.30334 6.97943L2.06807 0.621441Z" fill="#141414"/>
</svg>
