<svg width="28" height="58" viewBox="0 0 28 58" fill="none" xmlns="http://www.w3.org/2000/svg">
<g id="Group 1214">
<path id="Union" fill-rule="evenodd" clip-rule="evenodd" d="M18.8075 35.0577C18.0431 34.835 16.9189 34.7782 16.0047 35.2789C15.1243 35.7611 14.3503 36.8104 14.3503 39L13.6497 39L13.6497 38.9957C13.6487 36.809 12.8751 35.7608 11.9953 35.2789C11.0811 34.7782 9.95693 34.835 9.19245 35.0577L9 34.3709C9.87011 34.1174 11.1978 34.0313 12.3268 34.6497C12.8439 34.9329 13.3013 35.3535 13.6497 35.9427L13.6497 19L14.3503 19L14.3503 35.9427C14.6987 35.3535 15.1561 34.9329 15.6732 34.6497C16.8022 34.0313 18.1299 34.1174 19 34.3709L18.8075 35.0577Z" fill="#E2E2E2"/>
<path id="Ellipse 1350" d="M27.5 29C27.5 36.9497 25.9434 44.1222 23.4492 49.2887C20.9381 54.4903 17.5653 57.5 14 57.5C10.4347 57.5 7.0619 54.4903 4.55078 49.2887C2.05662 44.1222 0.5 36.9497 0.5 29C0.5 21.0503 2.05662 13.8777 4.55078 8.71128C7.0619 3.50968 10.4347 0.5 14 0.5C17.5653 0.5 20.9381 3.50968 23.4492 8.71128C25.9434 13.8777 27.5 21.0503 27.5 29Z" stroke="#E2E2E2"/>
</g>
</svg>
