<svg width="14" height="14" viewBox="0 0 14 14" fill="none" xmlns="http://www.w3.org/2000/svg">
<path id="Combined-Shape" fill-rule="evenodd" clip-rule="evenodd" d="M6.63988 1C9.74967 1 12.2792 3.52952 12.2792 6.63931C12.2792 8.10649 11.7161 9.44464 10.7947 10.4489L12.6078 12.2582C12.7775 12.4278 12.778 12.7023 12.6084 12.872C12.5238 12.9577 12.412 13 12.3008 13C12.1902 13 12.0791 12.9577 11.9939 12.8732L10.159 11.0434C9.19377 11.8164 7.9699 12.2792 6.63988 12.2792C3.5301 12.2792 1 9.74909 1 6.63931C1 3.52952 3.5301 1 6.63988 1ZM6.63988 1.86865C4.00902 1.86865 1.86865 4.00844 1.86865 6.63931C1.86865 9.27017 4.00902 11.4105 6.63988 11.4105C9.27017 11.4105 11.4105 9.27017 11.4105 6.63931C11.4105 4.00844 9.27017 1.86865 6.63988 1.86865Z" stroke="#141414"/>
</svg>
