<svg width="12" height="9" viewBox="0 0 12 9" fill="none" xmlns="http://www.w3.org/2000/svg">
<path d="M11.4958 2.73642L9.00581 0.30264C8.80035 0.101825 8.59195 0 8.38644 0C8.10426 0 7.77473 0.209781 7.77473 0.801012V1.6296C5.96566 1.70666 4.27624 2.43183 2.98769 3.69121C1.62292 5.02505 0.871244 6.79855 0.871094 8.68497C0.871072 8.8205 0.959781 8.94087 1.09131 8.98377C1.12487 8.99471 1.15926 9 1.19332 9C1.29272 9 1.38895 8.95492 1.45102 8.8742C2.97248 6.89471 5.26317 5.72489 7.77473 5.63252V6.44831C7.77473 7.03952 8.10424 7.24932 8.38641 7.24934H8.38644C8.59195 7.24934 8.80037 7.14752 9.00581 6.9467L11.4958 4.5129C11.7378 4.27641 11.8711 3.96096 11.8711 3.62468C11.8711 3.28838 11.7378 2.97293 11.4958 2.73642ZM11.0401 4.06745L8.55006 6.50127C8.5023 6.54795 8.46275 6.57744 8.43357 6.59535C8.4259 6.56253 8.41926 6.51433 8.41926 6.44833V5.31163C8.41926 5.13767 8.27497 4.99664 8.097 4.99664C6.66513 4.99664 5.2969 5.3173 4.03037 5.94966C3.12115 6.40365 2.29001 7.01476 1.58616 7.74255C2.05439 4.64104 4.79584 2.25272 8.097 2.25272C8.27497 2.25272 8.41926 2.11169 8.41926 1.93774V0.801012C8.41926 0.735012 8.4259 0.686819 8.43355 0.654018C8.46273 0.67193 8.5023 0.701413 8.55006 0.748094L11.0401 3.18189C11.1603 3.29943 11.2266 3.45667 11.2266 3.62468C11.2266 3.79268 11.1603 3.94992 11.0401 4.06745Z" fill="#555555"/>
</svg>
