<svg width="7" height="11" viewBox="0 0 7 11" fill="none" xmlns="http://www.w3.org/2000/svg">
<path d="M4.30391 11H2.33244C2.16757 11 2.03388 10.8731 2.03388 10.7165V6.67773H0.298559C0.133683 6.67773 0 6.55081 0 6.39422V4.52213C0 4.36557 0.133683 4.23863 0.298559 4.23863H2.03388V3.49616C2.03388 1.56837 3.68554 0 5.71569 0H6.70144C6.86632 0 7 0.126942 7 0.283505V2.15557C7 2.31213 6.86632 2.43907 6.70144 2.43907H5.71569C5.10186 2.43907 4.60247 2.91328 4.60247 3.49616V4.23863H6.33784C6.50272 4.23863 6.6364 4.36557 6.6364 4.52213V6.39422C6.6364 6.55081 6.50272 6.67773 6.33784 6.67773H4.60247V10.7165C4.60247 10.8731 4.46881 11 4.30391 11ZM2.631 10.433H4.00535V6.39422C4.00535 6.23766 4.13904 6.11072 4.30391 6.11072H6.03928V4.80564H4.30391C4.13904 4.80564 4.00535 4.6787 4.00535 4.52213V3.49616C4.00535 2.60063 4.7726 1.87206 5.71569 1.87206H6.40288V0.56701H5.71569C4.01479 0.56701 2.631 1.88102 2.631 3.49616V4.52213C2.631 4.6787 2.49732 4.80564 2.33244 4.80564H0.597119V6.11072H2.33244C2.49732 6.11072 2.631 6.23766 2.631 6.39422V10.433Z" fill="#555555"/>
</svg>
