<svg width="11" height="11" viewBox="0 0 11 11" fill="none" xmlns="http://www.w3.org/2000/svg">
<g clip-path="url(#clip0_1244_4630)">
<path d="M2.58669 3.45178H0.515625C0.337624 3.45178 0.193359 3.59613 0.193359 3.77405V10.6777C0.193359 10.8558 0.337624 11 0.515625 11H2.58669C2.76469 11 2.90895 10.8558 2.90895 10.6777V3.77405C2.90895 3.59613 2.76469 3.45178 2.58669 3.45178ZM2.26442 10.3555H0.837891V4.09631H2.26442V10.3555Z" fill="#555555"/>
<path d="M1.55124 0C0.802475 0 0.193359 0.609116 0.193359 1.35771C0.193359 2.10648 0.802475 2.71551 1.55124 2.71551C2.29992 2.71551 2.90895 2.10639 2.90895 1.35771C2.90895 0.609116 2.29992 0 1.55124 0ZM1.55124 2.07098C1.15789 2.07098 0.837891 1.75106 0.837891 1.35771C0.837891 0.964447 1.15789 0.644531 1.55124 0.644531C1.9445 0.644531 2.26442 0.964447 2.26442 1.35771C2.26442 1.75106 1.9445 2.07098 1.55124 2.07098Z" fill="#555555"/>
<path d="M7.76408 3.40625C7.27422 3.40625 6.7914 3.52433 6.35903 3.74522C6.34435 3.58081 6.20629 3.45182 6.03803 3.45182H3.9668C3.78888 3.45182 3.64453 3.59617 3.64453 3.77409V10.6778C3.64453 10.8558 3.78888 11.0001 3.9668 11.0001H6.03803C6.21603 11.0001 6.36029 10.8558 6.36029 10.6778V6.88076C6.36029 6.39233 6.75775 5.99495 7.24619 5.99495C7.73462 5.99495 8.13191 6.39233 8.13191 6.88076V10.6778C8.13191 10.8558 8.27626 11.0001 8.45418 11.0001H10.5253C10.7033 11.0001 10.8476 10.8558 10.8476 10.6778V6.48976C10.8476 4.78947 9.46436 3.40625 7.76408 3.40625ZM10.2031 10.3555H8.77653V6.88076C8.77653 6.03691 8.09003 5.35042 7.24627 5.35042C6.40234 5.35042 5.71576 6.03691 5.71576 6.88076V10.3555H4.28915V4.09635H5.71576V4.33444C5.71576 4.4584 5.78684 4.57136 5.89863 4.62498C6.01033 4.67861 6.14293 4.66334 6.23969 4.58588C6.67609 4.23583 7.2033 4.05078 7.76408 4.05078C9.10895 4.05078 10.2031 5.14489 10.2031 6.48976V10.3555Z" fill="#555555"/>
</g>
<defs>
<clipPath id="clip0_1244_4630">
<rect width="11" height="11" fill="white"/>
</clipPath>
</defs>
</svg>
