<svg width="10" height="10" viewBox="0 0 10 10" fill="none" xmlns="http://www.w3.org/2000/svg">
<path d="M9.59658 3.35524C8.56815 3.35524 7.53972 3.36642 6.51129 3.3776C6.12003 2.32681 5.72878 1.26484 5.35989 0.202875C5.29282 0.00166016 4.95746 -0.0989472 4.85685 0.135803C4.38735 1.22013 3.91785 2.30445 3.48188 3.41113C2.52052 3.43349 1.55917 3.45585 0.608984 3.4782C0.329519 3.48938 0.128304 3.86946 0.363055 4.07067C0.698413 4.35014 1.02259 4.64078 1.34677 4.9426C1.62624 5.19971 1.89452 5.468 2.16281 5.74746C2.26342 5.85925 2.40874 5.98221 2.48699 6.11635C2.5876 6.29521 2.47581 6.45171 2.40874 6.61939C2.02867 7.58075 1.68213 8.56447 1.34677 9.54819C1.24616 9.82765 1.61506 10.1183 1.86099 9.95061C2.59878 9.45876 3.34774 8.9669 4.09671 8.4974C4.32028 8.36325 4.54385 8.21793 4.76742 8.08379C4.97982 7.96082 5.01335 7.99436 5.21457 8.11732C5.38225 8.21793 5.54993 8.32972 5.70643 8.4415C6.41068 8.93336 7.05904 9.48111 7.79682 9.92826C8.0204 10.0624 8.28868 9.83883 8.22161 9.60408C8.03158 8.85511 7.85272 8.11732 7.69622 7.35718C7.61797 6.97711 7.495 6.5635 7.47265 6.18343C7.46147 5.83689 7.77447 5.68039 8.00922 5.47917C8.61286 4.95378 9.20533 4.41721 9.79779 3.86946C9.99901 3.67942 9.84251 3.35524 9.59658 3.35524ZM7.40557 5.24442C7.14847 5.45682 6.95843 5.66921 6.92489 6.00457C6.89136 6.38464 7.01432 6.80943 7.09257 7.1895C7.21554 7.79314 7.34968 8.39679 7.495 9.00043C6.96961 8.60918 6.48893 8.18439 5.96353 7.79314C5.65053 7.56957 5.28164 7.24539 4.87921 7.29011C4.56621 7.32364 4.26439 7.56957 4.00728 7.72607C3.45953 8.06143 2.91178 8.40797 2.36402 8.76568C2.39756 8.67625 2.41992 8.598 2.45345 8.50857C2.6882 7.83786 3.0012 7.17832 3.20242 6.49643C3.42599 5.73628 2.49817 5.06557 2.01749 4.60724C1.84981 4.45074 1.68213 4.29424 1.50327 4.13774C2.17399 4.11539 2.83353 4.13774 3.50424 4.07067C4.21967 4.0036 4.66682 1.90202 5.06925 1.00773C5.38225 1.92438 5.70643 2.84102 6.03061 3.74649C6.07532 3.86946 6.17593 3.97006 6.32125 3.97006C7.17082 3.97006 8.0204 3.95888 8.85879 3.94771C8.37811 4.39485 7.89743 4.83082 7.40557 5.24442Z" fill="#555555"/>
</svg>
