<svg width="12" height="12" viewBox="0 0 12 12" fill="none" xmlns="http://www.w3.org/2000/svg">
<path id="Icon" fill-rule="evenodd" clip-rule="evenodd" d="M11.9558 4.56592C11.7114 3.52629 10.6265 3.4726 9.75446 3.42902C9.2057 3.40123 8.638 3.37344 8.40057 3.12774C8.15871 2.87762 7.96989 2.39823 7.78613 1.93463C7.42808 1.02763 7.02204 0 5.99968 0C4.97794 0 4.57255 1.02763 4.21387 1.93463C4.03074 2.39823 3.84129 2.87762 3.60007 3.12774C3.362 3.37344 2.7943 3.40123 2.24554 3.42902C1.37347 3.4726 0.288583 3.52629 0.0441998 4.56592C-0.187554 5.55251 0.536755 6.14938 1.17581 6.67614C1.6128 7.03616 2.02579 7.37723 2.11735 7.7941C2.20639 8.19896 2.07252 8.72193 1.94306 9.22849C1.72078 10.0995 1.46819 11.0861 2.31122 11.7221C2.57454 11.921 2.84166 12 3.10562 12C3.67711 12 4.23407 11.6311 4.71082 11.3153C5.15223 11.0235 5.60879 10.721 5.99968 10.721C6.39056 10.721 6.84775 11.0235 7.28853 11.3153C7.98631 11.777 8.85397 12.3505 9.68942 11.7221C10.5324 11.0861 10.2799 10.0988 10.0569 9.22722C9.92748 8.7213 9.79424 8.19833 9.88265 7.7941C9.97422 7.37723 10.3872 7.03679 10.8242 6.67614C11.4632 6.14938 12.1876 5.55251 11.9558 4.56592Z" fill="#FF6B2C"/>
</svg>
