<svg width="9" height="9" viewBox="0 0 9 9" fill="none" xmlns="http://www.w3.org/2000/svg">
<path id="Icon" fill-rule="evenodd" clip-rule="evenodd" d="M8.96685 3.42444C8.78356 2.64472 7.9699 2.60445 7.31584 2.57177C6.90428 2.55092 6.4785 2.53008 6.30042 2.34581C6.11903 2.15822 5.97742 1.79867 5.8396 1.45097C5.57106 0.770724 5.26653 0 4.49976 0C3.73345 0 3.42941 0.770724 3.1604 1.45097C3.02305 1.79867 2.88097 2.15822 2.70005 2.34581C2.5215 2.53008 2.09572 2.55092 1.68416 2.57177C1.0301 2.60445 0.216437 2.64472 0.0331499 3.42444C-0.140665 4.16438 0.402566 4.61203 0.88186 5.00711C1.2096 5.27712 1.51934 5.53292 1.58801 5.84557C1.65479 6.14922 1.55439 6.54145 1.4573 6.92137C1.29059 7.57461 1.10114 8.31454 1.73341 8.79157C1.93091 8.94079 2.13124 9 2.32921 9C2.75783 9 3.17556 8.72335 3.53312 8.4865C3.86417 8.26765 4.20659 8.04074 4.49976 8.04074C4.79292 8.04074 5.13582 8.26765 5.4664 8.4865C5.98974 8.83278 6.64048 9.26291 7.26706 8.79157C7.89933 8.31454 7.70989 7.57414 7.5427 6.92042C7.44561 6.54098 7.34568 6.14875 7.41199 5.84557C7.48066 5.53292 7.7904 5.2776 8.11814 5.00711C8.59743 4.61203 9.14067 4.16438 8.96685 3.42444Z" fill="#141414"/>
</svg>
