<svg width="12" height="12" viewBox="0 0 12 12" fill="none" xmlns="http://www.w3.org/2000/svg">
<g id="Icon">
<path id="Fill-1" d="M8.80533 0H3.2C1.15733 0 0 1.15733 0 3.2V8.8C0 10.8427 1.15733 12 3.2 12H8.80533C10.848 12 12 10.8427 12 8.8V3.2C12 1.15733 10.848 0 8.80533 0Z" fill="#FF6B2C"/>
<path id="Fill-4" d="M3.22123 4.42139C2.94923 4.42139 2.72523 4.64539 2.72523 4.92272V9.04539C2.72523 9.31739 2.94923 9.54139 3.22123 9.54139C3.49856 9.54139 3.72256 9.31739 3.72256 9.04539V4.92272C3.72256 4.64539 3.49856 4.42139 3.22123 4.42139Z" fill="white"/>
<path id="Fill-6" d="M6.02122 2.45337C5.74922 2.45337 5.52522 2.67737 5.52522 2.9547V9.04537C5.52522 9.31737 5.74922 9.54137 6.02122 9.54137C6.29856 9.54137 6.52256 9.31737 6.52256 9.04537V2.9547C6.52256 2.67737 6.29856 2.45337 6.02122 2.45337Z" fill="white"/>
<path id="Fill-8" d="M8.78394 6.59741C8.50661 6.59741 8.28261 6.82141 8.28261 7.09875V9.04541C8.28261 9.31741 8.50661 9.54141 8.77861 9.54141C9.05594 9.54141 9.27994 9.31741 9.27994 9.04541V7.09875C9.27994 6.82141 9.05594 6.59741 8.78394 6.59741Z" fill="white"/>
</g>
</svg>
