<svg width="52" height="25" viewBox="0 0 52 25" fill="none" xmlns="http://www.w3.org/2000/svg">
<path d="M51.7603 13.0419C52.0851 12.5898 52.0328 12.2383 51.6041 11.9908C51.2975 11.7493 50.976 11.7569 50.6393 12.0096L50.5262 12.0409C47.6218 12.9969 44.8794 13.5641 42.2973 13.742C41.7763 13.7626 41.5239 14.033 41.5419 14.5554C41.5566 15.0791 41.8244 15.3303 42.3459 15.3088C44.1338 15.1849 46.0317 14.8715 48.042 14.3621C45.1776 17.0094 42.2553 18.6596 39.2733 19.3101C35.3164 20.1067 31.6391 19.0431 28.2412 16.1185C27.3513 15.349 26.6286 14.6735 26.0716 14.0956C26.3893 13.7663 26.6821 13.4227 26.9543 13.064C29.4977 9.97823 30.788 7.19187 30.8238 4.70971C30.8393 3.69266 30.7632 2.94156 30.5959 2.46108C30.3373 1.47776 29.7385 0.808735 28.7958 0.45895C27.5404 -0.00889567 26.3923 0.162928 25.3528 0.972049C24.5256 1.52298 23.8373 2.44206 23.2865 3.72651C22.769 4.84073 22.4351 6.02566 22.2804 7.28496C22.1264 8.54283 22.1567 9.58886 22.377 10.4207C22.7622 11.736 23.3169 12.9225 24.0412 13.9809C22.1064 16.0094 19.9429 17.7752 17.548 19.281C14.1483 21.4254 11.0813 22.6089 8.34979 22.8257C5.46499 23.0858 3.43627 22.1406 2.26406 19.987C2.02258 19.5256 1.67086 19.4198 1.20989 19.6657C0.749977 19.9141 0.640094 20.268 0.882671 20.7275C2.36621 23.4447 4.88365 24.6431 8.43897 24.3211C11.419 24.1159 14.7116 22.8732 18.3173 20.5908C20.7866 19.0635 23.0274 17.2774 25.0365 15.2298C25.5928 15.8067 26.3151 16.482 27.2059 17.252C31.0525 20.4989 35.1662 21.6875 39.5479 20.816C42.7016 20.1984 45.7622 18.532 48.7283 15.8159C48.1001 17.8929 48.0718 20.0902 48.6414 22.4079C48.8065 22.889 49.1355 23.0645 49.6276 22.9293C50.1172 22.7953 50.3176 22.4785 50.2257 21.9758C49.3909 18.7979 49.9016 15.8203 51.7603 13.0419ZM25.792 12.1044C25.5766 12.3658 25.3752 12.6031 25.1915 12.8152C24.6009 11.9629 24.1914 11.0212 23.962 9.98838C23.7552 9.35632 23.7114 8.49507 23.829 7.41067C23.9483 6.32221 24.2234 5.29532 24.6571 4.32526C25.1167 3.30825 25.6324 2.5787 26.2056 2.13938C26.8254 1.72566 27.5345 1.65455 28.3322 1.92382C28.741 2.09544 29.0066 2.40789 29.1253 2.86216C29.2244 3.24078 29.2689 3.87764 29.2625 4.77053C29.2783 6.83415 28.1228 9.27852 25.792 12.1044Z" fill="white"/>
</svg>
