<svg width="9" height="9" viewBox="0 0 9 9" fill="none" xmlns="http://www.w3.org/2000/svg">
<g id="Iconly/Bold/Time-Circle">
<g id="Time-Circle">
<path id="Vector" d="M4.5 0C6.9885 0 9 2.016 9 4.5C9 6.9885 6.9885 9 4.5 9C2.016 9 0 6.9885 0 4.5C0 2.016 2.016 0 4.5 0ZM4.3425 2.2185C4.158 2.2185 4.005 2.367 4.005 2.556V4.8285C4.005 4.9455 4.068 5.0535 4.1715 5.1165L5.9355 6.1695C5.9895 6.201 6.048 6.219 6.111 6.219C6.2235 6.219 6.336 6.1605 6.399 6.0525C6.4935 5.895 6.444 5.688 6.282 5.589L4.68 4.635V2.556C4.68 2.367 4.527 2.2185 4.3425 2.2185Z" fill="#141414"/>
</g>
</g>
</svg>
