<svg width="31" height="26" viewBox="0 0 31 26" fill="none" xmlns="http://www.w3.org/2000/svg">
<path fill-rule="evenodd" clip-rule="evenodd" d="M22.1477 1.59247L19.1871 0.746582L18.9844 1.45589C18.3836 3.55874 18.1599 6.81244 19.6698 9.62344C20.0444 10.3209 20.5171 10.9747 21.0979 11.5651L0.48291 11.5651V14.6441L21.0979 14.6441C20.517 15.2345 20.0444 15.8883 19.6698 16.5858C18.1599 19.3968 18.3836 22.6505 18.9844 24.7533L19.1871 25.4626L22.1477 24.6167L21.945 23.9074C21.4769 22.2689 21.3796 19.9095 22.3823 18.0428C23.3046 16.3256 25.3676 14.6464 30.0774 14.6441L30.0866 14.6442L30.098 14.644L30.8244 14.6329V11.5651H30.0867C25.37 11.5651 23.3052 9.88473 22.3823 8.16643C21.3796 6.29966 21.4769 3.94029 21.945 2.30177L22.1477 1.59247Z" fill="#555555"/>
</svg>
