<svg width="32" height="25" viewBox="0 0 32 25" fill="none" xmlns="http://www.w3.org/2000/svg">
<path fill-rule="evenodd" clip-rule="evenodd" d="M9.44851 0.927185L12.4091 0.0812988L12.6117 0.790609C13.2125 2.89345 13.4363 6.14715 11.9264 8.95815C11.5518 9.65557 11.0791 10.3094 10.4983 10.8998L31.1133 10.8998V13.9788L10.4983 13.9788C11.0791 14.5693 11.5518 15.2231 11.9264 15.9205C13.4363 18.7315 13.2125 21.9852 12.6117 24.088L12.4091 24.7973L9.44851 23.9514L9.65117 23.2421C10.1193 21.6036 10.2166 19.2442 9.21392 17.3775C8.29155 15.6603 6.22862 13.9812 1.5188 13.9788L1.50961 13.9789L1.49817 13.9788L0.77177 13.9676V10.8998H1.50946C6.2262 10.8998 8.29095 9.21945 9.21392 7.50115C10.2166 5.63438 10.1193 3.275 9.65117 1.63649L9.44851 0.927185Z" fill="#555555"/>
</svg>
