<svg width="27" height="21" viewBox="0 0 27 21" fill="none" xmlns="http://www.w3.org/2000/svg">
<path fill-rule="evenodd" clip-rule="evenodd" d="M8.13411 0.894344L10.5944 0.191406L10.7628 0.780849C11.2621 2.52833 11.448 5.23218 10.1933 7.56814C9.88197 8.1477 9.48918 8.69101 9.00651 9.18165L26.1377 9.18165V11.7404L9.00652 11.7404C9.48918 12.231 9.88197 12.7743 10.1933 13.3539C11.448 15.6898 11.2621 18.3937 10.7628 20.1412L10.5944 20.7306L8.13411 20.0277L8.30252 19.4382C8.69155 18.0766 8.77243 16.116 7.93917 14.5647C7.17267 13.1377 5.45836 11.7423 1.54446 11.7404L1.53683 11.7404L1.52732 11.7403L0.923677 11.7311V9.18165H1.5367C5.45635 9.18165 7.17217 7.78528 7.93917 6.35736C8.77243 4.80606 8.69155 2.8454 8.30252 1.48378L8.13411 0.894344Z" fill="#141414"/>
</svg>
