<svg width="26" height="22" viewBox="0 0 26 22" fill="none" xmlns="http://www.w3.org/2000/svg">
<path fill-rule="evenodd" clip-rule="evenodd" d="M18.3505 1.61602L15.8902 0.913086L15.7218 1.50253C15.2226 3.25001 15.0366 5.95386 16.2913 8.28982C16.6026 8.86938 16.9954 9.41269 17.4781 9.90333L0.346924 9.90333V12.462L17.4781 12.462C16.9954 12.9527 16.6026 13.496 16.2913 14.0756C15.0366 16.4115 15.2226 19.1154 15.7218 20.8628L15.8902 21.4523L18.3505 20.7493L18.1821 20.1599C17.7931 18.7983 17.7122 16.8376 18.5455 15.2863C19.312 13.8593 21.0263 12.464 24.9402 12.462L24.9478 12.4621L24.9573 12.462L25.5609 12.4527V9.90333H24.9479C21.0283 9.90333 19.3124 8.50696 18.5455 7.07904C17.7122 5.52773 17.7931 3.56708 18.1821 2.20546L18.3505 1.61602Z" fill="#141414"/>
</svg>
