<svg width="17" height="12" viewBox="0 0 17 12" fill="none" xmlns="http://www.w3.org/2000/svg">
<path d="M8.21187 7.90491C5.62438 7.90491 3.44116 8.32772 3.44116 9.95953C3.44116 11.592 5.63848 12 8.21187 12C10.7994 12 12.9826 11.5771 12.9826 9.94534C12.9826 8.31286 10.7853 7.90491 8.21187 7.90491Z" fill="#FF6B2C"/>
<path d="M8.21165 6.35027C9.96373 6.35027 11.3686 4.9373 11.3686 3.17514C11.3686 1.4123 9.96373 0 8.21165 0C6.45957 0 5.05469 1.4123 5.05469 3.17514C5.05469 4.9373 6.45957 6.35027 8.21165 6.35027Z" fill="#FF6B2C"/>
<path d="M15.0659 3.91442C15.5192 2.13132 14.1902 0.529907 12.4979 0.529907C12.3139 0.529907 12.138 0.55017 11.966 0.584616C11.9432 0.590019 11.9177 0.601501 11.9043 0.621764C11.8888 0.64743 11.9002 0.681876 11.917 0.704165C12.4254 1.42146 12.7175 2.29477 12.7175 3.23225C12.7175 4.13056 12.4496 4.96807 11.9795 5.66308C11.9311 5.73467 11.9741 5.83126 12.0594 5.84611C12.1776 5.86705 12.2985 5.87786 12.422 5.88124C13.6543 5.91366 14.7604 5.11599 15.0659 3.91442Z" fill="#FF6B2C"/>
<path d="M16.3568 8.11272C16.1312 7.62912 15.5865 7.29749 14.7585 7.13471C14.3677 7.03881 13.31 6.90372 12.3262 6.92196C12.3114 6.92398 12.3033 6.93412 12.302 6.94087C12.3 6.95033 12.304 6.96654 12.3235 6.97667C12.7781 7.20293 14.5356 8.18701 14.3146 10.2626C14.3052 10.3524 14.3771 10.4301 14.4664 10.4166C14.8989 10.3544 16.0116 10.114 16.3568 9.36494C16.5475 8.96915 16.5475 8.50919 16.3568 8.11272Z" fill="#FF6B2C"/>
<path d="M4.53356 0.584738C4.36232 0.549616 4.1857 0.530029 4.00169 0.530029C2.30938 0.530029 0.980381 2.13144 1.43435 3.91454C1.73923 5.11611 2.84528 5.91378 4.07758 5.88136C4.20114 5.87798 4.3227 5.8665 4.44022 5.84624C4.5255 5.83138 4.56848 5.73479 4.52013 5.6632C4.05005 4.96752 3.7821 4.13068 3.7821 3.23237C3.7821 2.29422 4.07489 1.4209 4.58326 0.704287C4.59937 0.681998 4.61146 0.647552 4.59535 0.621886C4.58191 0.600948 4.55707 0.590141 4.53356 0.584738Z" fill="#FF6B2C"/>
<path d="M1.74117 7.13452C0.913143 7.2973 0.369186 7.62893 0.143544 8.11253C-0.0478481 8.509 -0.0478481 8.96896 0.143544 9.36543C0.488722 10.1138 1.60148 10.3549 2.03396 10.4164C2.12328 10.4299 2.19446 10.3529 2.18506 10.2624C1.96412 8.1875 3.72157 7.20342 4.17689 6.97715C4.19569 6.96635 4.19972 6.95081 4.1977 6.94068C4.19636 6.93393 4.18897 6.92379 4.1742 6.92244C3.1897 6.90353 2.13268 7.03861 1.74117 7.13452Z" fill="#FF6B2C"/>
</svg>
