<svg width="20" height="16" viewBox="0 0 20 16" fill="" xmlns="http://www.w3.org/2000/svg">
<path d="M17.6059 2.99482C17.5297 2.69695 17.3142 2.47221 17.0674 2.40288C16.6289 2.28062 14.5 2 10 2C5.5 2 3.37154 2.28073 2.93127 2.40323C2.68678 2.47123 2.47132 2.69593 2.39412 2.99482C2.28532 3.41923 2 5.19595 2 8C2 10.804 2.28532 12.5808 2.39442 13.0064C2.47028 13.3031 2.68578 13.5278 2.93153 13.5968C3.37154 13.7193 5.5 14 10 14C14.5 14 16.6289 13.7194 17.0687 13.5968C17.3132 13.5288 17.5287 13.3041 17.6059 13.0052C17.7147 12.5808 18 10.8 18 8C18 5.2 17.7147 3.41923 17.6059 2.99482ZM19.5432 2.49818C20 4.28 20 8 20 8C20 8 20 11.72 19.5432 13.5018C19.2887 14.4873 18.546 15.2618 17.6046 15.5236C15.8961 16 10 16 10 16C10 16 4.10739 16 2.39539 15.5236C1.45048 15.2582 0.70781 14.4836 0.45676 13.5018C1.78814e-07 11.72 0 8 0 8C0 8 1.78814e-07 4.28 0.45676 2.49818C0.71129 1.51273 1.45397 0.73818 2.39539 0.47636C4.10739 -1.49012e-07 10 0 10 0C10 0 15.8961 -1.49012e-07 17.6046 0.47636C18.5495 0.74182 19.2922 1.51636 19.5432 2.49818ZM8.00002 11.5V4.5L14 8L8.00002 11.5Z" fill=""/>
</svg>
