<svg width="12" height="10" viewBox="0 0 12 10" fill="none" xmlns="http://www.w3.org/2000/svg">
<path d="M10.5635 1.79689C10.5178 1.61817 10.3885 1.48332 10.2404 1.44173C9.97734 1.36837 8.7 1.2 6.00001 1.2C3.3 1.2 2.02292 1.36844 1.75876 1.44194C1.61207 1.48274 1.48279 1.61756 1.43647 1.79689C1.37119 2.05154 1.2 3.11757 1.2 4.8C1.2 6.48239 1.37119 7.54847 1.43665 7.80383C1.48217 7.98185 1.61147 8.11667 1.75892 8.15807C2.02292 8.23157 3.3 8.39999 6.00001 8.39999C8.7 8.39999 9.97734 8.23163 10.2412 8.15807C10.3879 8.11727 10.5172 7.98245 10.5635 7.80311C10.6288 7.54847 10.8 6.47999 10.8 4.8C10.8 3.12 10.6288 2.05154 10.5635 1.79689ZM11.7259 1.49891C12 2.568 12 4.8 12 4.8C12 4.8 12 7.03199 11.7259 8.10107C11.5732 8.69237 11.1276 9.15707 10.5628 9.31415C9.53766 9.59999 6.00001 9.59999 6.00001 9.59999C6.00001 9.59999 2.46443 9.59999 1.43723 9.31415C0.870287 9.15491 0.424686 8.69015 0.274056 8.10107C1.07288e-07 7.03199 0 4.8 0 4.8C0 4.8 1.07288e-07 2.568 0.274056 1.49891C0.426774 0.907637 0.872381 0.442907 1.43723 0.285816C2.46443 -8.94069e-08 6.00001 0 6.00001 0C6.00001 0 9.53766 -8.94069e-08 10.5628 0.285816C11.1297 0.445091 11.5753 0.909815 11.7259 1.49891ZM4.80001 6.89999V2.7L8.4 4.8L4.80001 6.89999Z" fill="#999999"/>
</svg>
