<svg width="226" height="507" viewBox="0 0 226 507" fill="none" xmlns="http://www.w3.org/2000/svg">
<path d="M142 504.5C101.556 484.242 59.5544 464.495 30.9948 429.407C2.43513 394.319 -9.33732 341.277 15.6803 303.577C29.7551 282.359 54.4465 268.601 79.8836 267.78C105.321 266.96 130.832 279.122 146.24 299.39C157.099 313.669 162.72 334.104 153.604 349.559C141.934 369.351 112.694 370.517 91.8611 360.835C61.2042 346.593 40.6047 314.984 35.0028 281.64C29.4009 248.287 37.4915 213.666 52.7221 183.474C78.1685 133.053 122.565 94.1968 171.584 66.1787C220.594 38.1699 274.497 20.001 328 2" stroke="#680D44" stroke-width="4" stroke-miterlimit="10"/>
</svg>
