<svg width="281" height="311" viewBox="0 0 281 311" fill="none" xmlns="http://www.w3.org/2000/svg">
<path d="M205.207 229.203C209.035 201.877 183.607 178.149 158.362 173.946C140.929 171.047 122.098 174.459 101.171 184.343C103.288 166.075 110.663 146.613 123.217 126.269C163.293 61.2933 229.392 23.5779 277.792 3.37874C278.543 3.06547 279.303 2.75561 280.051 2.45175L274.465 0.432384C225.704 21.0431 159.967 59.0808 119.809 124.165C106.372 145.955 98.7108 166.823 96.9436 186.42C92.7237 188.563 88.4248 190.954 84.0436 193.602C39.2479 220.686 2.34899 261.695 -19.8744 309.082L-16.2573 310.783C5.63855 264.096 41.9875 223.697 86.1116 197.029C89.677 194.873 93.1813 192.886 96.6303 191.081C96.4811 194.376 96.5163 197.632 96.7138 200.851C98.533 230.293 116.774 256.548 141.074 264.716C154.757 269.311 171.422 267.126 184.558 258.998C196.183 251.812 203.516 241.235 205.207 229.203ZM182.458 255.601C170.312 263.11 154.931 265.152 142.34 260.92C119.567 253.262 102.435 228.471 100.706 200.603C100.466 196.795 100.484 192.92 100.748 188.986C121.777 178.67 140.519 175.035 157.709 177.9C181.121 181.791 204.756 203.594 201.238 228.651C199.726 239.482 193.055 249.054 182.458 255.601Z" fill="#530D37"/>
</svg>
