<svg width="308" height="290" viewBox="0 0 308 290" fill="none" xmlns="http://www.w3.org/2000/svg">
<path fill-rule="evenodd" clip-rule="evenodd" d="M0.755371 25.6229C4.23609 38.5963 9.20767 51.1527 15.7926 62.9918C30.7654 89.9114 54.8062 112.13 82.683 125.031C86.6805 139.968 93.266 154.317 101.649 167.229L102.901 166.416L101.65 167.229C120.116 195.654 146.665 217.851 174.686 236.56L175.49 235.356L174.687 236.56C183.369 242.355 193.492 247.815 203.842 251.269C232.453 275.189 269.816 288.393 307.3 289.401V286.4C272.887 285.458 238.572 274.056 211.314 253.385C211.786 253.494 212.258 253.597 212.729 253.696C226.086 256.491 239.45 255.205 249.915 245.975C258.612 238.305 262.245 227.571 262.823 216.228C263.401 204.895 260.943 192.826 257.323 182.238C252.568 168.329 244.315 153.872 233.588 143.622C222.853 133.364 209.48 127.191 194.635 130.332L194.945 131.8L194.634 130.333C174.838 134.524 161.881 155.122 161.332 174.949C160.784 194.795 170.289 213.531 182.255 228.943C186.904 234.93 192.004 240.5 197.486 245.641C190.027 242.46 182.811 238.375 176.352 234.065C148.486 215.459 122.315 193.532 104.166 165.595C96.3726 153.593 90.1868 140.364 86.2356 126.616C106.285 135.226 128.163 139.024 149.987 136.351C170.892 133.791 191.631 123.319 206.292 108.293C220.959 93.2603 229.657 73.537 226.122 52.5214C223.25 35.4599 212.31 21.209 197.943 11.9568C183.579 2.70647 165.679 -1.62367 148.714 1.2566C114.888 6.99934 88.2572 36.8357 80.854 70.1146C77.0943 87.0149 77.7548 104.46 81.732 121.26C55.4066 108.51 32.7099 87.2357 18.4144 61.5336C12.0873 50.1582 7.27359 38.0954 3.86451 25.6229H0.755371ZM213.344 250.76C210.68 250.202 208.001 249.473 205.33 248.601C197.733 242.199 190.774 235.023 184.625 227.103L183.761 227.773L184.625 227.103C172.853 211.942 163.81 193.883 164.331 175.032C164.853 156.178 177.182 137.094 195.256 133.267C208.809 130.4 221.22 135.953 231.516 145.791C241.821 155.638 249.848 169.647 254.484 183.209C258.026 193.569 260.379 205.242 259.827 216.075C259.275 226.898 255.836 236.753 247.931 243.725L248.673 244.566L247.931 243.725C238.427 252.108 226.161 253.442 213.344 250.76ZM149.623 133.373C127.578 136.073 105.418 131.984 85.2235 122.892C80.8374 105.768 79.9607 87.9454 83.7824 70.7661C90.9717 38.4488 116.808 9.71631 149.216 4.21427C165.367 1.47216 182.517 5.59075 196.319 14.4791C210.118 23.3656 220.458 36.9433 223.164 53.0193C226.499 72.8489 218.335 91.6539 204.145 106.197C189.948 120.747 169.833 130.898 149.623 133.373Z" fill="#EBE2FF"/>
</svg>
