<svg width="241" height="346" viewBox="0 0 241 346" fill="none" xmlns="http://www.w3.org/2000/svg">
<path fill-rule="evenodd" clip-rule="evenodd" d="M224 0V3.97481C201.337 23.8122 181.944 46.0862 169.114 73.6485L169.114 73.6487C152.015 110.372 150.657 153.36 162.838 191.93C193.055 196.78 220.643 216.663 235.749 243.455L235.749 243.455C238.213 247.828 240.258 253.201 240.69 258.355C241.123 263.522 239.938 268.682 235.657 272.206C231.165 275.905 225.639 275.909 220.468 274.244C215.31 272.584 210.268 269.205 206.351 265.715C184.96 246.669 169.445 221.766 160.552 194.622C155.83 193.963 151.05 193.686 146.253 193.823C117.675 194.638 89.8876 211.218 75.6861 235.583C97.8029 232.623 120.884 236.581 140.242 247.754L140.243 247.755C154.361 255.909 166.175 270.003 171.879 285.212C177.586 300.432 177.243 317.008 166.601 329.808L165.448 328.85L166.601 329.809C153.503 345.56 129.706 348.566 110.745 341.938C76.0965 329.832 56.0176 288.388 65.2327 253.016C66.4519 248.337 68.1268 243.825 70.1999 239.517C55.5984 242.334 41.6387 248.302 29.8048 257.327C16.7447 267.287 6.59298 280.726 0 295.753V288.766C6.73669 275.625 16.2134 263.92 27.9856 254.942C40.8131 245.159 56.0455 238.86 71.9197 236.156C86.2708 209.713 115.812 191.69 146.168 190.824C150.657 190.696 155.128 190.917 159.55 191.463C147.611 152.549 149.172 109.369 166.395 72.3825C179.824 43.5324 200.29 20.4438 224 0ZM68.1358 253.773C69.4889 248.579 71.4303 243.596 73.8745 238.876C96.0132 235.428 119.326 239.146 138.743 250.353C152.249 258.154 163.606 271.697 169.07 286.266C174.53 300.825 174.039 316.169 164.294 327.891C152.238 342.389 129.915 345.461 111.735 339.106L111.734 339.105C78.6809 327.557 59.2818 287.759 68.1358 253.773ZM208.346 263.474C187.746 245.133 172.696 221.235 163.89 195.152C192.548 200.265 218.698 219.321 233.136 244.928C235.46 249.054 237.315 254.007 237.701 258.606C238.085 263.191 237.007 267.21 233.75 269.889L233.75 269.89C230.336 272.701 226.007 272.876 221.387 271.389C216.756 269.898 212.073 266.795 208.346 263.475L208.346 263.474Z" fill="#EBDFE6"/>
</svg>
