<svg width="123" height="123" viewBox="0 0 123 123" fill="none" xmlns="http://www.w3.org/2000/svg">
<path d="M60.5738 8.63644L56.0355 8.90694L55.5396 0.521482L60.2132 0.243469L60.1981 2.31729L57.974 2.45254L58.0492 3.70735L59.9802 3.59465L60.0854 5.37543L58.1544 5.48814L58.237 6.8782L60.5964 6.73544L60.5738 8.63644Z" fill="white"/>
<path d="M63.8125 2.73058C64.331 2.33235 64.887 2.1445 65.4806 2.17456C66.0742 2.20461 66.4875 2.3624 66.7129 2.64793C66.9383 2.93346 67.036 3.35423 67.0059 3.90274L66.758 8.88443L64.4587 8.77172L64.6691 4.55645C64.6766 4.33103 64.5864 4.21081 64.3911 4.2033C64.1356 4.18827 63.9252 4.24087 63.7449 4.36109L63.527 8.72663L61.2578 8.61393L61.5809 2.1445L63.6472 2.24969L63.7599 2.73058H63.8125Z" fill="white"/>
<path d="M70.3196 5.75862L69.7786 9.35776L67.562 9.01964L68.5313 2.61032L70.4849 2.90336L70.56 3.30911H70.6126C70.8531 3.11375 71.086 3.00104 71.3039 2.96347C71.5218 2.9259 71.8674 2.94844 72.3408 3.01607L71.9276 5.14249L71.3114 5.05232C70.9658 4.99973 70.7253 5.02227 70.5976 5.11243C70.4699 5.2026 70.3797 5.4205 70.3271 5.75862H70.3196Z" fill="white"/>
<path d="M72.4157 6.44244C72.7087 5.29282 73.137 4.51889 73.7156 4.11315C74.2941 3.7074 75.0455 3.62475 75.9847 3.86519C76.924 4.10563 77.5401 4.53392 77.8407 5.15006C78.1412 5.76619 78.1412 6.65283 77.8482 7.80996C77.5551 8.96709 77.1268 9.75605 76.5783 10.1768C76.0298 10.5976 75.2709 10.6803 74.3242 10.4398C73.3699 10.1994 72.7463 9.75605 72.4382 9.12488C72.1376 8.48621 72.1301 7.59957 72.4232 6.44995L72.4157 6.44244ZM75.8795 6.00664C75.8645 5.81879 75.7443 5.69105 75.5189 5.63846C75.2935 5.58586 75.1282 5.63846 75.023 5.78873C74.9178 5.94653 74.79 6.30719 74.6548 6.86322L74.5721 7.1788C74.4143 7.80245 74.3392 8.20819 74.3542 8.41107C74.3693 8.61394 74.4895 8.74168 74.7074 8.79427C74.9328 8.85439 75.0981 8.79427 75.2033 8.62897C75.3085 8.46367 75.4362 8.09549 75.579 7.52443L75.6767 7.14123C75.8194 6.57017 75.8871 6.19448 75.872 6.00664H75.8795Z" fill="white"/>
<path d="M78.1936 9.86123L80.5755 3.08374L82.6794 3.82761L80.5304 9.92886C80.4778 10.0716 80.4778 10.1843 80.5154 10.267C80.5529 10.3496 80.6581 10.4173 80.8234 10.4774L80.0195 12.2281L79.3207 11.9801C78.7571 11.7848 78.3814 11.5218 78.1861 11.1837C77.9907 10.8531 77.9907 10.4097 78.1861 9.86123H78.1936Z" fill="white"/>
<path d="M81.2975 10.9808L84.0926 4.36856L86.1514 5.24017L83.6343 11.1987C83.5742 11.3414 83.5667 11.4541 83.6042 11.5368C83.6418 11.6194 83.7395 11.6946 83.8973 11.7622L82.9881 13.4603L82.3043 13.1673C81.7558 12.9344 81.3951 12.6488 81.2223 12.3032C81.0495 11.9576 81.0796 11.5217 81.305 10.9808H81.2975Z" fill="white"/>
<path d="M95.6187 10.7253L90.9 14.6475L89.5551 16.8641L87.5864 15.6694L88.9314 13.4528L90.2538 7.46426L92.4253 8.77919L91.5312 11.4316L91.6214 11.4842L93.5374 9.44792L95.6187 10.7102V10.7253Z" fill="white"/>
<path d="M93.4624 15.4816C94.1913 14.5498 94.8976 14.0088 95.5889 13.8661C96.2726 13.7233 97.0015 13.9562 97.7679 14.5498C98.5343 15.1434 98.925 15.7896 98.9551 16.4734C98.9851 17.1571 98.6244 17.9686 97.8956 18.9154C97.1592 19.8546 96.4529 20.4106 95.7842 20.5684C95.108 20.7262 94.3866 20.5083 93.6127 19.8997C92.8388 19.2986 92.4405 18.6449 92.418 17.9386C92.3955 17.2323 92.7486 16.4133 93.4775 15.4816H93.4624ZM96.8136 16.4734C96.8812 16.2931 96.8136 16.1353 96.6333 15.9925C96.4529 15.8497 96.2726 15.8272 96.1148 15.9324C95.957 16.0376 95.694 16.3156 95.3409 16.7739L95.138 17.0294C94.7473 17.5328 94.5144 17.8785 94.4467 18.0663C94.3791 18.2542 94.4392 18.4195 94.6196 18.5622C94.7999 18.705 94.9727 18.72 95.138 18.6073C95.3033 18.4946 95.5663 18.2091 95.927 17.7507L96.1674 17.4427C96.5281 16.9768 96.7385 16.6612 96.8061 16.4809L96.8136 16.4734Z" fill="white"/>
<path d="M97.4 23.1607C96.6336 22.4093 96.6712 21.6053 97.5127 20.7563L100.909 17.3224L102.547 18.9379L99.5414 21.981C99.3837 22.1388 99.3761 22.2891 99.5189 22.4319C99.6992 22.6122 99.8946 22.7099 100.105 22.7475L103.216 19.5991L104.831 21.1996L100.3 25.7906L98.7675 24.2803L99.0981 23.9422L99.0606 23.9046C98.4069 23.8595 97.8583 23.6115 97.415 23.1682L97.4 23.1607Z" fill="white"/>
<path d="M105.011 25.8356L102.208 28.1574L100.773 26.4292L105.762 22.2966L107.024 23.8144L106.807 24.1675L106.844 24.2126C107.16 24.2201 107.408 24.2878 107.596 24.408C107.783 24.5282 108.031 24.7687 108.332 25.1368L106.604 26.4442L106.205 25.9634C105.98 25.6929 105.792 25.5501 105.634 25.5276C105.477 25.5125 105.266 25.6102 105.003 25.8281L105.011 25.8356Z" fill="white"/>
<path d="M109.858 31.8993C109.174 32.3126 108.731 32.6732 108.52 32.9813C108.31 33.2894 108.302 33.5974 108.49 33.9055C108.678 34.2136 109.016 34.6043 109.497 35.0777L108.047 36.3625C107.453 35.8892 106.972 35.3407 106.597 34.7245C106.041 33.8003 105.936 32.9362 106.296 32.1473C106.657 31.3583 107.446 30.5919 108.656 29.8555C109.873 29.1192 110.932 28.7811 111.841 28.8261C112.751 28.8712 113.51 29.3972 114.111 30.3965C114.464 30.9826 114.682 31.6138 114.757 32.2975L112.773 33.0715C112.608 32.3501 112.458 31.8693 112.315 31.6288C112.112 31.2907 111.819 31.1404 111.443 31.193C111.068 31.2381 110.534 31.471 109.858 31.8843V31.8993Z" fill="white"/>
<path d="M114.404 36.3776C114.997 36.6481 115.411 37.0463 115.659 37.5723C115.907 38.0982 115.944 38.5265 115.794 38.8571C115.644 39.1877 115.321 39.4733 114.817 39.6987L110.286 41.7875L109.324 39.6987L113.157 37.9329C113.359 37.8352 113.42 37.7 113.337 37.5197C113.232 37.2867 113.089 37.1214 112.901 37.0237L108.934 38.8496L107.979 36.7833L115.854 33.1541L116.801 35.2054L114.381 36.3174L114.404 36.37V36.3776Z" fill="white"/>
<path d="M111.293 44.7255L110.549 42.6216L116.59 40.4726L117.334 42.5765L111.293 44.7255ZM117.131 40.4726C117.221 40.2397 117.439 40.0669 117.777 39.9392C118.115 39.8114 118.401 39.8189 118.626 39.9392C118.852 40.0594 119.032 40.3224 119.182 40.7356C119.325 41.1414 119.348 41.4645 119.25 41.6974C119.152 41.9303 118.934 42.1107 118.596 42.2309C118.258 42.3511 117.98 42.3511 117.762 42.2309C117.544 42.1107 117.356 41.8402 117.214 41.4344C117.071 41.0287 117.041 40.7056 117.131 40.4726Z" fill="white"/>
<path d="M113.006 45.1913L119.911 43.2076L120.527 45.3491L114.313 47.1374C114.163 47.1825 114.073 47.2426 114.028 47.3252C113.983 47.4079 113.99 47.5281 114.035 47.6934L112.142 48.0541L111.939 47.3403C111.774 46.7692 111.774 46.3033 111.931 45.9577C112.089 45.6121 112.45 45.3491 113.013 45.1913H113.006Z" fill="white"/>
<path d="M113.472 54.2681L113.246 53.389C113.119 52.7052 113.261 52.2469 113.69 52.0139L113.675 51.9463C113.164 51.7434 112.856 51.3377 112.743 50.7366C112.593 49.9401 112.765 49.324 113.261 48.8957C113.757 48.4674 114.561 48.1443 115.658 47.9339C116.755 47.7235 117.627 47.7461 118.251 48.0015C118.874 48.257 119.257 48.7304 119.385 49.4066C119.475 49.8725 119.43 50.2632 119.257 50.5562L121.579 50.1129L122 52.3295L115.44 53.5768C115.275 53.6069 115.162 53.667 115.125 53.7496C115.087 53.8323 115.08 53.9675 115.11 54.1479L113.464 54.253L113.472 54.2681ZM117.627 50.3609C117.589 50.173 117.454 50.0678 117.214 50.0453C116.973 50.0228 116.65 50.0603 116.229 50.1355C115.809 50.2106 115.523 50.2782 115.373 50.3083C115.222 50.3458 115.072 50.3984 114.922 50.4586C114.772 50.5187 114.674 50.5863 114.629 50.6689C114.584 50.7441 114.576 50.8643 114.606 51.0146C114.636 51.1724 114.704 51.3226 114.817 51.4729L117.567 50.947C117.634 50.7441 117.657 50.5412 117.619 50.3534L117.627 50.3609Z" fill="white"/>
<path d="M108.34 85.0523L110.203 80.9046L117.86 84.3535L115.936 88.6214L114.103 87.6521L115.019 85.6158L113.87 85.0974L113.073 86.8631L111.443 86.1268L112.239 84.361L110.969 83.79L110 85.9464L108.332 85.0448L108.34 85.0523Z" fill="white"/>
<path d="M112.06 90.6651C112.173 91.3038 112.075 91.8824 111.774 92.3933C111.474 92.9043 111.143 93.1973 110.783 93.2574C110.422 93.325 110.009 93.2123 109.535 92.9343L105.237 90.3946L106.409 88.4185L110.039 90.5675C110.234 90.6802 110.377 90.6576 110.482 90.4848C110.61 90.2669 110.662 90.049 110.64 89.8386L106.883 87.6145L108.04 85.6609L113.615 88.9595L112.563 90.7403L112.09 90.6125L112.06 90.6576V90.6651Z" fill="white"/>
<path d="M106.364 94.9856L103.433 92.8292L104.763 91.0183L109.985 94.8579L108.813 96.4508L108.415 96.3306L108.385 96.3757C108.452 96.6838 108.445 96.9392 108.377 97.1496C108.31 97.36 108.129 97.6606 107.844 98.0438L106.153 96.6838L106.521 96.1803C106.732 95.8948 106.822 95.6769 106.807 95.5191C106.784 95.3613 106.642 95.1885 106.364 94.9856Z" fill="white"/>
<path d="M104.763 96.541C105.642 97.3374 106.13 98.0738 106.221 98.7726C106.311 99.4639 106.033 100.178 105.387 100.899C104.74 101.62 104.072 101.966 103.388 101.951C102.704 101.928 101.915 101.523 101.029 100.719C100.142 99.9222 99.6385 99.1783 99.5258 98.4946C99.4131 97.8108 99.6836 97.1045 100.345 96.3757C101.006 95.6468 101.682 95.2937 102.389 95.3162C103.095 95.3387 103.884 95.752 104.763 96.5485V96.541ZM103.538 99.817C103.711 99.8921 103.876 99.8471 104.034 99.6742C104.192 99.5014 104.222 99.3286 104.132 99.1633C104.042 98.998 103.779 98.72 103.35 98.3368L103.11 98.1189C102.637 97.6906 102.306 97.4351 102.118 97.36C101.938 97.2773 101.765 97.3299 101.615 97.4952C101.464 97.668 101.434 97.8409 101.532 98.0137C101.63 98.1865 101.9 98.472 102.336 98.8627L102.629 99.1257C103.065 99.5164 103.373 99.7494 103.546 99.832L103.538 99.817Z" fill="white"/>
<path d="M99.0527 100.065L103.952 105.317L102.321 106.835L97.9181 102.101C97.8129 101.989 97.7152 101.936 97.625 101.936C97.5349 101.936 97.4222 101.996 97.2944 102.109L96.1147 100.583L96.6557 100.08C97.0915 99.6743 97.4973 99.4639 97.8805 99.4413C98.2637 99.4188 98.6544 99.6292 99.0527 100.057V100.065Z" fill="white"/>
<path d="M96.6188 102.297L101.187 107.842L99.4666 109.262L95.3565 104.273C95.2588 104.153 95.1612 104.092 95.071 104.085C94.9808 104.085 94.8681 104.13 94.7329 104.243L93.6509 102.65L94.2219 102.176C94.6803 101.801 95.1011 101.613 95.4843 101.613C95.8675 101.613 96.2432 101.846 96.6188 102.297Z" fill="white"/>
<path d="M90.2165 115.115L88.9241 109.112L87.5791 106.887L89.5477 105.7L90.8927 107.924L95.5889 111.862L93.4099 113.177L91.4713 111.155L91.3811 111.208L92.2978 113.845L90.2165 115.108V115.115Z" fill="white"/>
<path d="M87 110.998C87.4884 112.08 87.6387 112.951 87.4433 113.628C87.2479 114.304 86.7145 114.837 85.8278 115.235C84.9412 115.634 84.1973 115.694 83.5737 115.401C82.9575 115.108 82.4015 114.416 81.9056 113.327C81.4097 112.237 81.2519 111.358 81.4172 110.69C81.59 110.021 82.116 109.48 83.0101 109.074C83.9043 108.668 84.6707 108.616 85.3018 108.924C85.933 109.232 86.4965 109.923 86.9925 111.005L87 110.998ZM84.5655 113.507C84.6932 113.65 84.866 113.665 85.0764 113.567C85.2868 113.47 85.3845 113.327 85.3695 113.139C85.3544 112.951 85.2267 112.591 84.9863 112.065L84.851 111.772C84.588 111.186 84.3852 110.825 84.2499 110.675C84.1147 110.532 83.9418 110.502 83.7315 110.599C83.5211 110.697 83.4309 110.84 83.4459 111.043C83.4685 111.238 83.5962 111.606 83.8442 112.14L84.0095 112.493C84.2499 113.026 84.4378 113.365 84.5655 113.5V113.507Z" fill="white"/>
<path d="M78.3743 110.93C79.3962 110.607 80.0874 111.005 80.4481 112.14L81.9133 116.738L79.7193 117.437L78.4194 113.365C78.3517 113.147 78.224 113.071 78.0362 113.132C77.7957 113.207 77.6154 113.334 77.4876 113.507L78.8326 117.723L76.6686 118.414L74.7075 112.267L76.7588 111.614L76.9016 112.065L76.9542 112.05C77.2998 111.494 77.7732 111.125 78.3743 110.93Z" fill="white"/>
<path d="M72.4688 116.415L71.7174 112.854L73.9114 112.388L75.2489 118.729L73.3178 119.135L73.1074 118.782H73.0548C72.8971 119.068 72.7242 119.255 72.5364 119.368C72.341 119.481 72.0104 119.586 71.5446 119.684L71.1914 117.55L71.8 117.422C72.1457 117.347 72.3636 117.249 72.4462 117.121C72.5364 116.994 72.5439 116.761 72.4688 116.423V116.415Z" fill="white"/>
<path d="M64.8722 117.888C64.8271 117.091 64.7144 116.528 64.534 116.197C64.3537 115.867 64.0907 115.716 63.73 115.739C63.3694 115.761 62.866 115.874 62.2198 116.085L61.7539 114.199C62.4527 113.898 63.159 113.725 63.8803 113.68C64.9623 113.612 65.7663 113.928 66.2998 114.612C66.8333 115.296 67.1413 116.348 67.224 117.768C67.3066 119.188 67.1188 120.285 66.6454 121.066C66.1796 121.848 65.3606 122.276 64.2034 122.344C63.5197 122.381 62.8584 122.276 62.2198 122.028L62.4602 119.917C63.174 120.104 63.6775 120.195 63.9555 120.18C64.3537 120.157 64.6167 119.969 64.7444 119.609C64.8797 119.255 64.9172 118.677 64.8722 117.88V117.888Z" fill="white"/>
<path d="M58.7714 119.826C58.2529 120.225 57.7044 120.412 57.1334 120.382C56.5548 120.352 56.1566 120.195 55.9312 119.909C55.7057 119.624 55.6081 119.203 55.6381 118.654L55.8936 113.673L58.1928 113.793L57.9824 118.008C57.9674 118.233 58.0651 118.354 58.2604 118.361C58.5159 118.376 58.7263 118.324 58.9066 118.203L59.1245 113.838L61.3937 113.951L60.9579 122.607L58.7038 122.494L58.839 119.834H58.7864L58.7714 119.826Z" fill="white"/>
<path d="M53.9015 120.345C54.0668 120.533 54.1269 120.803 54.0743 121.164C54.0217 121.517 53.894 121.773 53.6836 121.915C53.4732 122.058 53.1501 122.103 52.7218 122.043C52.2936 121.983 52.0005 121.855 51.8352 121.66C51.6699 121.464 51.6173 121.186 51.6624 120.841C51.715 120.488 51.8427 120.24 52.0531 120.104C52.2635 119.969 52.5866 119.924 53.0149 119.984C53.4432 120.044 53.7437 120.165 53.9015 120.352V120.345ZM52.8346 113.199L55.0436 113.507L54.1495 119.856L51.9404 119.548L52.8346 113.199Z" fill="white"/>
<path d="M51.6329 114.507L50.1978 121.547L48.0112 121.104L49.3036 114.77C49.3337 114.619 49.3262 114.507 49.266 114.431C49.2059 114.356 49.1007 114.304 48.9354 114.266L49.4915 112.418L50.2203 112.568C50.8064 112.688 51.2121 112.899 51.4526 113.199C51.693 113.5 51.7531 113.936 51.6329 114.514V114.507Z" fill="white"/>
<path d="M43.3602 110.727L44.2469 110.938C44.9081 111.14 45.2537 111.479 45.2612 111.967L45.3289 111.989C45.7496 111.636 46.2455 111.546 46.8391 111.726C47.6131 111.959 48.0789 112.395 48.2292 113.034C48.3795 113.673 48.2968 114.529 47.9662 115.604C47.6431 116.678 47.2223 117.437 46.7039 117.873C46.1854 118.309 45.5918 118.429 44.9306 118.226C44.4723 118.091 44.1492 117.873 43.9688 117.58L43.2851 119.849L41.1211 119.195L43.0522 112.801C43.1048 112.636 43.0972 112.515 43.0522 112.44C42.9996 112.365 42.8869 112.298 42.699 112.245L43.3677 110.735L43.3602 110.727ZM44.9006 116.22C45.0884 116.28 45.2462 116.205 45.3664 116.002C45.4866 115.799 45.6219 115.491 45.7421 115.085C45.8623 114.679 45.945 114.394 45.9826 114.244C46.0201 114.093 46.0427 113.943 46.0577 113.778C46.0727 113.62 46.0577 113.5 46.0126 113.425C45.9675 113.349 45.8623 113.289 45.7121 113.244C45.5618 113.199 45.389 113.192 45.2011 113.214L44.3896 115.897C44.5399 116.054 44.7052 116.16 44.893 116.22H44.9006Z" fill="white"/>
<path d="M18.4891 91.8749L21.2993 95.444L14.6946 100.636L11.8018 96.9543L13.5149 95.7821L14.8975 97.5328L15.8893 96.7514L14.6946 95.2336L16.0997 94.1291L17.2944 95.6469L18.3914 94.7828L16.9262 92.9193L18.4966 91.8524L18.4891 91.8749Z" fill="white"/>
<path d="M11.7863 92.5812C11.1627 92.3859 10.6968 92.0327 10.3812 91.5293C10.0656 91.0259 9.96044 90.5976 10.0732 90.2519C10.1783 89.9063 10.4714 89.5832 10.9372 89.2977L15.1751 86.6678L16.3848 88.6214L12.8007 90.8455C12.6128 90.9657 12.5677 91.1085 12.6729 91.2738C12.8082 91.4917 12.9735 91.6345 13.1689 91.7171L16.8807 89.4104L18.0829 91.3414L12.5828 94.7602L11.4933 93.002L11.8239 92.6338L11.7938 92.5887L11.7863 92.5812Z" fill="white"/>
<path d="M10.5769 85.5106L13.8455 83.9102L14.8298 85.9239L9.01404 88.7716L8.14244 86.9984L8.43548 86.7053L8.41294 86.6603C8.11238 86.5776 7.88697 86.4574 7.72918 86.2921C7.5789 86.1343 7.39105 85.8337 7.18066 85.4054L9.16432 84.5414L9.43482 85.0974C9.59261 85.413 9.74289 85.6008 9.88565 85.6534C10.0359 85.706 10.2613 85.6534 10.5694 85.5106H10.5769Z" fill="white"/>
<path d="M9.94616 83.3917C8.83411 83.805 7.94748 83.8952 7.29377 83.6472C6.63255 83.4068 6.13664 82.8282 5.79851 81.9265C5.46039 81.0174 5.46039 80.266 5.79851 79.6724C6.13664 79.0788 6.86548 78.5678 7.98505 78.1546C9.10461 77.7413 9.99124 77.6361 10.6525 77.854C11.3137 78.0719 11.8096 78.6355 12.1552 79.5597C12.5009 80.4839 12.4934 81.2503 12.1477 81.8589C11.8021 82.4675 11.0657 82.986 9.95367 83.3992L9.94616 83.3917ZM7.61687 80.7919C7.46659 80.9122 7.43653 81.0775 7.51919 81.2954C7.60184 81.5133 7.73709 81.626 7.92493 81.6185C8.11278 81.6185 8.48096 81.5133 9.02196 81.3104L9.32251 81.1977C9.92362 80.9723 10.2993 80.7995 10.4571 80.6717C10.6149 80.544 10.6525 80.3787 10.5698 80.1608C10.4872 79.9429 10.3519 79.8452 10.149 79.8452C9.94616 79.8452 9.57798 79.9579 9.02947 80.1608L8.66129 80.296C8.11278 80.4989 7.75963 80.6642 7.61687 80.7769V80.7919Z" fill="white"/>
<path d="M9.47235 76.6969L2.54458 78.5904L1.9585 76.4339L8.19499 74.7283C8.34527 74.6907 8.43544 74.6231 8.48052 74.5479C8.5256 74.4653 8.5256 74.3451 8.48052 74.1798L10.3815 73.8416L10.5769 74.5555C10.7347 75.1265 10.7347 75.5924 10.5694 75.938C10.4041 76.2836 10.0434 76.5391 9.47986 76.6894L9.47235 76.6969Z" fill="white"/>
<path d="M8.62393 73.4885L1.59097 74.9537L1.14014 72.7672L7.4668 71.4523C7.61708 71.4222 7.71476 71.3696 7.76735 71.287C7.81244 71.2118 7.81995 71.0841 7.7899 70.9188L9.70593 70.7009L9.85621 71.4297C9.97643 72.0158 9.94637 72.4741 9.76604 72.8123C9.58571 73.1504 9.2025 73.3758 8.63145 73.496L8.62393 73.4885Z" fill="white"/>
<path d="M0.268066 61.8646L6.18147 63.5101L8.77375 63.3523L8.909 65.6441L6.31672 65.8018L0.643759 68.1236L0.493482 65.5839L3.18344 64.81V64.7048L0.418343 64.2916L0.27558 61.8646H0.268066Z" fill="white"/>
<path d="M5.40728 60.9404C4.2201 60.8728 3.37854 60.6023 2.87512 60.1139C2.37169 59.633 2.14627 58.9041 2.19887 57.9348C2.25147 56.9656 2.55202 56.2743 3.10053 55.8685C3.64904 55.4553 4.52065 55.2825 5.70784 55.3501C6.90254 55.4177 7.75161 55.6807 8.27006 56.139C8.78852 56.5974 9.01393 57.3262 8.96134 58.303C8.90874 59.2873 8.60067 59.9861 8.02962 60.4069C7.46608 60.8277 6.58696 61.0005 5.40728 60.9404ZM4.31026 57.6193C4.12993 57.6643 4.03225 57.8071 4.01722 58.04C4.00219 58.273 4.08485 58.4308 4.26518 58.4984C4.438 58.5735 4.8212 58.6261 5.39226 58.6562L5.71535 58.6712C6.35403 58.7088 6.76729 58.7013 6.96265 58.6487C7.15801 58.5961 7.25569 58.4533 7.27072 58.2279C7.28575 57.995 7.19558 57.8447 7.00773 57.7771C6.81989 57.7094 6.43668 57.6493 5.8506 57.6193L5.45988 57.5967C4.8738 57.5667 4.49059 57.5742 4.31026 57.6193Z" fill="white"/>
<path d="M9.46537 53.3213C9.27753 54.3808 8.60128 54.8016 7.42912 54.5987L2.67285 53.7722L3.07109 51.5105L7.27884 52.2469C7.50426 52.2844 7.63199 52.2093 7.66205 52.0139C7.70713 51.766 7.67708 51.5481 7.58691 51.3527L3.22888 50.5938L3.6196 48.3547L9.97632 49.4667L9.60814 51.5856L9.14228 51.503V51.5556C9.46537 52.1191 9.57808 52.7052 9.46537 53.3288V53.3213Z" fill="white"/>
<path d="M7.33097 45.5596L10.8324 46.5439L10.2238 48.7079L3.9873 46.9571L4.52079 45.0561L4.93405 45.0336L4.94908 44.981C4.77626 44.718 4.69361 44.4776 4.68609 44.2521C4.67858 44.0267 4.73869 43.6886 4.86643 43.2303L6.92522 43.9065L6.75992 44.5076C6.66224 44.8457 6.65472 45.0862 6.72986 45.2214C6.805 45.3567 7.00787 45.4769 7.33848 45.5671L7.33097 45.5596Z" fill="white"/>
<path d="M9.55491 38.1208C10.2838 38.4514 10.8323 38.6092 11.208 38.6017C11.5837 38.5942 11.8391 38.4289 11.9894 38.0983C12.1397 37.7677 12.2674 37.2718 12.3801 36.5955L14.2661 37.0539C14.2135 37.8128 14.0407 38.5191 13.7401 39.1728C13.2968 40.1571 12.6431 40.7281 11.794 40.8859C10.9375 41.0437 9.86298 40.8258 8.5706 40.2397C7.27821 39.6536 6.39158 38.9774 5.91069 38.196C5.43732 37.422 5.43732 36.4978 5.91069 35.4384C6.18871 34.8147 6.59445 34.2737 7.11291 33.8304L8.87866 35.0251C8.37524 35.5736 8.06717 35.9719 7.95446 36.2273C7.78916 36.588 7.83424 36.9111 8.08971 37.1966C8.34518 37.4821 8.83358 37.7827 9.56242 38.1133L9.55491 38.1208Z" fill="white"/>
<path d="M10.6596 31.8392C10.5469 31.2006 10.637 30.6295 10.9301 30.1336C11.2231 29.6377 11.5537 29.3597 11.9069 29.292C12.2675 29.2244 12.6808 29.3371 13.1542 29.6151L17.4446 32.1548L16.2724 34.131L12.6432 31.982C12.4479 31.8693 12.3051 31.8918 12.1999 32.0646C12.0722 32.2826 12.0196 32.5005 12.0421 32.7108L15.7991 34.9349L14.6419 36.8885L7.18066 32.4704L8.33028 30.5243L10.622 31.8843L10.6521 31.8392H10.6596Z" fill="white"/>
<path d="M12.4781 27.2708C12.2376 27.3309 11.9671 27.2558 11.6741 27.0454C11.3811 26.835 11.2233 26.6021 11.1932 26.3466C11.1632 26.0911 11.2759 25.7906 11.5313 25.4374C11.7868 25.0843 12.0348 24.8814 12.2827 24.8288C12.5307 24.7762 12.8012 24.8513 13.0942 25.0617C13.3798 25.2721 13.5375 25.4975 13.5676 25.753C13.5901 26.001 13.4774 26.309 13.222 26.6547C12.9665 27.0003 12.7185 27.2107 12.4781 27.2708ZM19.3007 29.6527L17.9933 31.4635L12.7937 27.7141L14.1011 25.9033L19.3007 29.6527Z" fill="white"/>
<path d="M18.7145 27.9696L13.1543 23.4237L14.5669 21.6955L19.5711 25.7905C19.6913 25.8882 19.7965 25.9333 19.8867 25.9183C19.9769 25.9033 20.0821 25.8356 20.1873 25.7004L21.5623 27.0529L21.0889 27.6314C20.7132 28.0898 20.3375 28.3603 19.9543 28.4279C19.5786 28.4955 19.1579 28.3453 18.707 27.9771L18.7145 27.9696Z" fill="white"/>
<path d="M25.9054 22.4168L25.3118 23.1006C24.8234 23.5965 24.365 23.7392 23.9292 23.5213L23.8841 23.5664C24.0043 24.0999 23.8466 24.5883 23.4183 25.0241C22.8472 25.6027 22.2461 25.8131 21.6149 25.6478C20.9763 25.4825 20.2625 25.0091 19.4585 24.2201C18.6545 23.4312 18.1811 22.7098 18.0384 22.0486C17.8956 21.3874 18.0609 20.8088 18.5493 20.3129C18.8874 19.9748 19.2255 19.787 19.5637 19.7569L17.873 18.0963L19.4585 16.4809L24.2298 21.162C24.35 21.2822 24.4627 21.3348 24.5529 21.3273C24.643 21.3198 24.7557 21.2446 24.891 21.1094L25.9204 22.4018L25.9054 22.4168ZM20.3226 21.2296C20.1873 21.3649 20.1798 21.5377 20.3 21.7481C20.4202 21.9509 20.6306 22.2064 20.9387 22.507C21.2468 22.8075 21.4572 23.0104 21.5699 23.1081C21.6826 23.2058 21.8103 23.3034 21.9456 23.3936C22.0808 23.4838 22.1935 23.5213 22.2837 23.5138C22.3738 23.5138 22.4715 23.4462 22.5842 23.3335C22.6969 23.2208 22.7796 23.078 22.8397 22.8977L20.841 20.9366C20.6306 20.9967 20.4578 21.0944 20.3226 21.2296Z" fill="white"/>
<path d="M39.7281 6.26002C39.0627 6.60072 38.4009 6.94839 37.739 7.29605C37.1507 6.77095 36.5587 6.23888 35.9812 5.6994C35.8736 5.59625 35.6246 5.64466 35.6344 5.82426C35.6765 6.65541 35.7187 7.48656 35.7897 8.32053C35.1748 8.65294 34.5599 8.98536 33.9523 9.31406C33.775 9.41361 33.7661 9.71708 33.9822 9.76469C34.2883 9.82771 34.5908 9.90141 34.8968 9.98208C35.1597 10.0497 35.4188 10.128 35.6816 10.2132C35.7823 10.2495 35.9156 10.278 36.009 10.3357C36.1312 10.4138 36.1088 10.5483 36.1189 10.675C36.1797 11.3999 36.2693 12.1277 36.3661 12.8517C36.3902 13.0592 36.7216 13.118 36.8272 12.9321C37.1477 12.3812 37.4753 11.8266 37.8101 11.286C37.912 11.1283 38.0103 10.9637 38.1121 10.8061C38.2103 10.6591 38.2427 10.6689 38.4121 10.6788C38.5527 10.686 38.6969 10.7001 38.8338 10.7179C39.4464 10.791 40.0406 10.9175 40.6606 10.9517C40.8481 10.9612 40.9503 10.7331 40.832 10.609C40.4701 10.2053 40.119 9.80486 39.7753 9.38308C39.6034 9.17219 39.3919 8.95522 39.2562 8.72581C39.1384 8.5136 39.291 8.31239 39.3787 8.10925C39.6016 7.58192 39.8138 7.05132 40.0223 6.51376C40.0919 6.32869 39.8872 6.17855 39.7281 6.26002ZM38.9132 8.16296C38.8146 8.38047 38.7594 8.57577 38.8447 8.79583C38.9443 9.04375 39.1593 9.26769 39.3312 9.47858C39.6034 9.81396 39.8827 10.1456 40.1693 10.4736C39.7046 10.4039 39.2581 10.2984 38.7933 10.2287C38.5195 10.1931 38.1774 10.1133 37.9313 10.2745C37.7394 10.3991 37.6226 10.6523 37.5062 10.835C37.2588 11.2254 37.0149 11.6228 36.7747 12.0271C36.7678 11.9603 36.7573 11.9041 36.7505 11.8373C36.6884 11.3416 36.6805 10.827 36.5932 10.3355C36.4953 9.78779 35.681 9.67725 35.2238 9.55093C35.0654 9.50896 34.907 9.467 34.7413 9.42874C35.1681 9.19262 35.602 8.98805 36.0146 8.72407C36.456 8.44527 36.0749 6.9877 36.05 6.29717C36.5449 6.76462 37.0471 7.22836 37.5457 7.68514C37.6139 7.74694 37.7111 7.7763 37.8051 7.72816C38.3548 7.44671 38.9009 7.1583 39.4398 6.87359C39.2714 7.31143 39.0995 7.74231 38.9132 8.16296Z" fill="white" stroke="white" stroke-width="0.5"/>
<path d="M120.111 65.1877C119.446 65.5284 118.784 65.8761 118.122 66.2237C117.534 65.6986 116.942 65.1666 116.365 64.6271C116.257 64.5239 116.008 64.5723 116.018 64.7519C116.06 65.5831 116.102 66.4142 116.173 67.2482C115.558 67.5806 114.943 67.913 114.336 68.2417C114.158 68.3413 114.149 68.6448 114.365 68.6924C114.672 68.7554 114.974 68.8291 115.28 68.9097C115.543 68.9774 115.802 69.0556 116.065 69.1409C116.166 69.1772 116.299 69.2057 116.392 69.2634C116.514 69.3415 116.492 69.476 116.502 69.6027C116.563 70.3276 116.653 71.0553 116.749 71.7794C116.773 71.9868 117.105 72.0457 117.211 71.8598C117.531 71.3089 117.859 70.7543 118.193 70.2136C118.295 70.056 118.394 69.8914 118.495 69.7337C118.594 69.5868 118.626 69.5965 118.795 69.6065C118.936 69.6136 119.08 69.6277 119.217 69.6455C119.83 69.7187 120.424 69.8452 121.044 69.8794C121.231 69.8889 121.334 69.6607 121.215 69.5367C120.853 69.133 120.502 68.7325 120.159 68.3108C119.987 68.0999 119.775 67.8829 119.639 67.6535C119.522 67.4413 119.674 67.2401 119.762 67.0369C119.985 66.5096 120.197 65.979 120.406 65.4414C120.475 65.2564 120.271 65.1062 120.111 65.1877ZM119.297 67.0906C119.198 67.3081 119.143 67.5034 119.228 67.7235C119.328 67.9714 119.543 68.1954 119.715 68.4063C119.987 68.7416 120.266 69.0733 120.553 69.4013C120.088 69.3316 119.641 69.2261 119.177 69.1564C118.903 69.1208 118.561 69.041 118.315 69.2022C118.123 69.3268 118.006 69.58 117.889 69.7627C117.642 70.1531 117.398 70.5505 117.158 70.9548C117.151 70.888 117.141 70.8318 117.134 70.765C117.072 70.2693 117.064 69.7547 116.976 69.2632C116.879 68.7155 116.064 68.6049 115.607 68.4786C115.449 68.4366 115.29 68.3947 115.125 68.3564C115.551 68.1203 115.985 67.9157 116.398 67.6517C116.839 67.3729 116.458 65.9154 116.433 65.2248C116.928 65.6923 117.43 66.156 117.929 66.6128C117.997 66.6746 118.094 66.704 118.188 66.6558C118.738 66.3744 119.284 66.086 119.823 65.8013C119.655 66.2391 119.483 66.67 119.297 67.0906Z" fill="white" stroke="white" stroke-width="0.5"/>
<path d="M31.1114 105.188C30.446 105.528 29.7842 105.876 29.1223 106.224C28.534 105.699 27.942 105.167 27.3645 104.627C27.257 104.524 27.0079 104.572 27.0177 104.752C27.0598 105.583 27.102 106.414 27.173 107.248C26.5581 107.581 25.9432 107.913 25.3356 108.242C25.1583 108.341 25.1494 108.645 25.3655 108.692C25.6716 108.755 25.9741 108.829 26.2801 108.91C26.543 108.977 26.8021 109.056 27.0649 109.141C27.1656 109.177 27.2989 109.206 27.3923 109.263C27.5145 109.341 27.4921 109.476 27.5022 109.603C27.563 110.328 27.6526 111.055 27.7494 111.779C27.7735 111.987 28.1049 112.046 28.2105 111.86C28.531 111.309 28.8586 110.754 29.1934 110.214C29.2953 110.056 29.3936 109.891 29.4954 109.734C29.5936 109.587 29.626 109.597 29.7954 109.607C29.936 109.614 30.0802 109.628 30.2171 109.646C30.8297 109.719 31.4239 109.845 32.0439 109.879C32.2314 109.889 32.3336 109.661 32.2153 109.537C31.8534 109.133 31.5023 108.733 31.1586 108.311C30.9867 108.1 30.7752 107.883 30.6395 107.653C30.5217 107.441 30.6743 107.24 30.762 107.037C30.9849 106.51 31.1971 105.979 31.4056 105.441C31.4752 105.256 31.2705 105.106 31.1114 105.188ZM30.2965 107.091C30.1979 107.308 30.1427 107.503 30.228 107.724C30.3276 107.971 30.5426 108.195 30.7145 108.406C30.9867 108.742 31.266 109.073 31.5526 109.401C31.0879 109.332 30.6414 109.226 30.1766 109.156C29.9028 109.121 29.5607 109.041 29.3146 109.202C29.1227 109.327 29.0059 109.58 28.8895 109.763C28.6421 110.153 28.3982 110.55 28.158 110.955C28.1511 110.888 28.1406 110.832 28.1338 110.765C28.0717 110.269 28.0638 109.755 27.9765 109.263C27.8786 108.715 27.0643 108.605 26.6071 108.479C26.4487 108.437 26.2903 108.395 26.1246 108.356C26.5514 108.12 26.9853 107.916 27.3979 107.652C27.8393 107.373 27.4582 105.915 27.4333 105.225C27.9282 105.692 28.4304 106.156 28.929 106.613C28.9972 106.675 29.0944 106.704 29.1884 106.656C29.7381 106.374 30.2842 106.086 30.8231 105.801C30.6547 106.239 30.4828 106.67 30.2965 107.091Z" fill="white" stroke="white" stroke-width="0.5"/>
</svg>
